<?xml version="1.0" encoding="utf-8"?><svg viewBox="0 0 135 28" xmlns="http://www.w3.org/2000/svg" xmlns:xlink="http://www.w3.org/1999/xlink"><style>:root>svg{display:none}:root>svg:target{display:block}</style><svg fill="none" viewBox="0 0 135 16" id="logo-icon" xmlns="http://www.w3.org/2000/svg"><path d="M.5 15V1h6.8c1.68 0 2.98.32 3.9.96.933.627 1.4 1.52 1.4 2.68 0 1.133-.433 2.027-1.3 2.68-.867.64-2.027.96-3.48.96l.4-.94c1.573 0 2.8.313 3.68.94.893.613 1.34 1.52 1.34 2.72 0 1.227-.48 2.2-1.44 2.92-.947.72-2.32 1.08-4.12 1.08H.5zm3.9-2.84h3.12c.573 0 1-.12 1.28-.36.293-.253.44-.62.44-1.1 0-.48-.147-.833-.44-1.06-.28-.24-.707-.36-1.28-.36H4.4v2.88zm0-5.56h2.52c.56 0 .98-.113 1.26-.34.28-.24.42-.587.42-1.04 0-.453-.14-.793-.42-1.02-.28-.24-.7-.36-1.26-.36H4.4V6.6zm9.583 8.4l6.18-14h3.9l6.2 14h-4.12l-4.84-12.06h1.56L18.023 15h-4.04zm3.38-2.72l1.02-2.92h6.84l1.02 2.92h-8.88zm22.924-.42l-.86.88V1h3.9v11.74l-.9-.88h5.42l-.9.88V1h3.9v14h-18.98V1h3.9v11.74l-.86-.88h5.38zm18.253 2.06l1.18-2.78c.6.307 1.227.54 1.88.7.654.16 1.287.253 1.9.28a6.527 6.527 0 001.66-.12c.507-.12.907-.3 1.2-.54.293-.24.44-.553.44-.94 0-.427-.18-.733-.54-.92-.347-.2-.806-.3-1.38-.3H61.3V6.4h3.26c.534 0 .947-.107 1.24-.32.294-.213.44-.5.44-.86 0-.347-.126-.62-.38-.82-.253-.213-.593-.36-1.02-.44a5.474 5.474 0 00-1.44-.1 6.932 6.932 0 00-1.66.3c-.573.16-1.127.38-1.66.66l-1.16-2.96c.947-.467 1.94-.787 2.98-.96a11.718 11.718 0 013.04-.12c.987.093 1.88.313 2.68.66.8.333 1.433.78 1.9 1.34.48.56.72 1.22.72 1.98 0 .667-.18 1.26-.54 1.78a3.65 3.65 0 01-1.46 1.22c-.613.293-1.32.44-2.12.44l.1-.84c.92 0 1.72.16 2.4.48.694.32 1.227.76 1.6 1.32.387.547.58 1.18.58 1.9 0 .68-.18 1.287-.54 1.82-.347.52-.833.96-1.46 1.32-.626.36-1.346.627-2.16.8-.8.187-1.66.273-2.58.26-.92 0-1.853-.113-2.8-.34a12.87 12.87 0 01-2.72-1zM71.541 15l6.18-14h3.9l6.2 14h-4.12l-4.84-12.06h1.56L75.581 15h-4.04zm3.38-2.72l1.02-2.92h6.84l1.02 2.92h-8.88zM98.266 15l-3.94-6.66 3.18-1.88 5.22 8.54h-4.46zm-8.92 0V1h3.94v14h-3.94zm2.8-5.36v-3.2h5.08v3.2h-5.08zm5.74-1.22l-3.66-.4 4.3-7.02h4.16l-4.8 7.42zm12.912 6.86c-1.12 0-2.153-.18-3.1-.54a7.58 7.58 0 01-2.48-1.52 7.225 7.225 0 01-1.62-2.32c-.387-.88-.58-1.847-.58-2.9s.193-2.02.58-2.9a7.001 7.001 0 011.62-2.3 7.41 7.41 0 012.48-1.54c.947-.36 1.98-.54 3.1-.54 1.133 0 2.167.18 3.1.54.947.36 1.767.873 2.46 1.54a7.001 7.001 0 011.62 2.3c.4.88.6 1.847.6 2.9s-.2 2.027-.6 2.92a7 7 0 01-1.62 2.3 7.347 7.347 0 01-2.46 1.52c-.933.36-1.967.54-3.1.54zm0-3.28c.533 0 1.027-.093 1.48-.28a3.38 3.38 0 001.2-.8c.347-.36.613-.787.8-1.28.2-.493.3-1.04.3-1.64 0-.613-.1-1.16-.3-1.64a3.514 3.514 0 00-.8-1.26 3.26 3.26 0 00-1.2-.82 3.85 3.85 0 00-1.48-.28c-.533 0-1.033.093-1.5.28-.453.187-.853.46-1.2.82a3.93 3.93 0 00-.8 1.26c-.187.48-.28 1.027-.28 1.64 0 .6.093 1.147.28 1.64.2.493.467.92.8 1.28.347.347.747.613 1.2.8.467.187.967.28 1.5.28zm19.257-11h3.96v14h-3.96V1zm-5.4 14h-3.96V1h3.96v14zm5.68-5.46h-5.96V6.26h5.96v3.28z" fill="#000"/></svg><svg fill="none" viewBox="0 0 28 28" id="wa-icon" xmlns="http://www.w3.org/2000/svg"><path d="M2.338 25.667l1.577-5.796A11.613 11.613 0 012.333 14C2.333 7.556 7.556 2.333 14 2.333S25.667 7.556 25.667 14c0 6.443-5.224 11.667-11.667 11.667a11.613 11.613 0 01-5.868-1.581l-5.794 1.58zM9.79 8.526c-.151.01-.298.049-.433.117a1.508 1.508 0 00-.343.266c-.14.131-.22.246-.305.357a3.184 3.184 0 00-.659 1.957c.002.572.152 1.128.385 1.649.477 1.052 1.262 2.166 2.3 3.199.25.248.493.498.756.73a11.023 11.023 0 004.48 2.387l.663.102c.216.011.432-.005.649-.016.34-.017.671-.11.972-.27.194-.102.285-.153.447-.256 0 0 .05-.032.145-.105.158-.116.255-.2.386-.336.096-.1.18-.218.244-.352.091-.19.183-.553.22-.855.028-.231.02-.357.016-.435-.005-.125-.108-.255-.222-.31l-.678-.304s-1.015-.442-1.635-.725a.582.582 0 00-.207-.047.562.562 0 00-.44.148v-.003c-.006 0-.084.067-.928 1.089a.408.408 0 01-.43.152 1.657 1.657 0 01-.222-.077c-.145-.061-.195-.084-.294-.128l-.006-.002a7.013 7.013 0 01-1.832-1.167c-.147-.128-.283-.268-.423-.403a7.35 7.35 0 01-1.19-1.48l-.069-.11a1.077 1.077 0 01-.119-.24c-.044-.171.071-.309.071-.309s.284-.31.415-.478c.11-.14.213-.285.307-.435.138-.222.181-.45.109-.626a97.136 97.136 0 00-1.013-2.38c-.069-.157-.273-.27-.458-.291a5.817 5.817 0 00-.19-.019 3.95 3.95 0 00-.47.005z" fill="#fff"/></svg></svg>