<?xml version="1.0" encoding="utf-8"?><svg viewBox="0 0 135 81" xmlns="http://www.w3.org/2000/svg" xmlns:xlink="http://www.w3.org/1999/xlink"><style>:root>svg{display:none}:root>svg:target{display:block}</style><svg fill="none" viewBox="0 0 80 80" id="about-bottom-features-1-icon" xmlns="http://www.w3.org/2000/svg"><path d="M78.772 77.59h-17.32V63.559c0-1.686-.348-3.286-.974-4.755v-.012l2.768-1.59a5.627 5.627 0 003.912 1.577 5.667 5.667 0 005.658-5.657 5.669 5.669 0 00-4.454-5.537v-19.73c2.54-.553 4.454-2.816 4.454-5.525 0-3.13-2.54-5.67-5.658-5.67a5.661 5.661 0 00-3.745 1.423L44.911 7.399c.001-.003.003-.005.003-.008A5.68 5.68 0 0039.51 0c-3.117-.001-5.67 2.551-5.67 5.669 0 .602.097 1.191.265 1.733l-18.498 10.68-.003-.003a5.652 5.652 0 00-3.731-1.42c-3.13 0-5.67 2.54-5.67 5.67 0 2.706 1.912 4.968 4.461 5.523v20.66a5.667 5.667 0 001.209 11.205 5.621 5.621 0 004.46-2.196l2.977 1.72a12.027 12.027 0 00-.793 4.316l.001 14.033H1.204a1.204 1.204 0 100 2.408c22.552 0 8.128.002 77.568 0a1.203 1.203 0 100-2.408zm-8.363-24.469a3.252 3.252 0 01-3.25 3.25 3.262 3.262 0 01-3.262-3.25 3.27 3.27 0 013.262-3.261 3.25 3.25 0 013.25 3.261zm-6.512-30.827a3.265 3.265 0 013.263-3.226 3.254 3.254 0 013.25 3.262 3.252 3.252 0 01-3.25 3.25 3.265 3.265 0 01-3.263-3.25v-.036zm2.059 5.561v19.73a5.582 5.582 0 00-2.793 1.516l-12.037-8.895a11.81 11.81 0 00.674-3.443 11.685 11.685 0 00-1.613-6.524l12.254-4.779a5.611 5.611 0 003.515 2.395zM43.695 9.477l18.287 10.558a5.626 5.626 0 00-.492 2.295c0 .3.024.59.072.879l-12.855 5.019c-2.083-2.275-4.912-3.611-7.993-3.804V11.207a5.534 5.534 0 002.981-1.73zm5.71 27.176c-.276 5.337-4.777 9.223-9.847 8.98-5.119-.22-9.212-4.56-8.98-9.834.22-4.967 4.297-8.992 9.401-8.992 6.988 1.244 9.622 5.21 9.425 9.846zM39.508 2.407a3.272 3.272 0 013.262 3.262c0 1.831-1.508 3.263-3.262 3.263-1.76 0-3.262-1.454-3.262-3.263a3.273 3.273 0 013.262-3.262zm-22.473 17.63L35.32 9.482l.002.003a5.677 5.677 0 002.986 1.721v13.313a11.766 11.766 0 00-7.139 3.816l-13.65-5.658c.012-.108.012-.228.012-.349 0-.819-.18-1.588-.494-2.287v-.004zM8.61 22.328a3.257 3.257 0 013.263-3.262 3.245 3.245 0 013.25 3.262 3.246 3.246 0 01-3.25 3.25 3.255 3.255 0 01-3.263-3.25zm3.263 34.98a3.265 3.265 0 01-3.263-3.262 3.265 3.265 0 013.263-3.262 3.254 3.254 0 013.13 2.395c.591 1.948-.919 4.13-3.13 4.13zm3.671-7.559a5.637 5.637 0 00-2.468-1.24h-.004V27.854h.004A5.686 5.686 0 0016.856 25l12.867 5.344a11.616 11.616 0 00-1.552 5.345c-.06 1.408.12 2.793.53 4.093l-13.157 9.966zm43.503 27.84H20.925V63.557c0-5.404 4.393-9.798 9.798-9.798h3.78l4.526 5.826c.229.29.577.458.95.458.374 0 .723-.169.951-.458l4.539-5.826h3.78c5.404 0 9.797 4.394 9.797 9.798V77.59zm.289-20.906c-2.203-3.214-5.898-5.333-10.087-5.333h-4.37c-.373 0-.722.17-.95.47l-3.949 5.068-3.936-5.068a1.19 1.19 0 00-.95-.47h-4.37c-4.346 0-8.174 2.288-10.34 5.73l-3.009-1.736c.282-1.1.199-2.44-.374-3.668l12.688-9.619c1.986 3.477 5.591 5.792 9.762 5.983.18.012.373.012.554.012 4.23 0 7.977-2.235 10.075-5.645l11.785 8.715v.012a5.392 5.392 0 00-.373 1.986c0 .734.144 1.444.397 2.082l-2.553 1.48z" fill="#AD132F"/></svg><svg fill="none" viewBox="0 0 80 81" id="about-bottom-features-2-icon" xmlns="http://www.w3.org/2000/svg"><path d="M6.796 67.419a1.25 1.25 0 001.4-1.075l2.479-18.699a3.302 3.302 0 012.25-2.7l14.612-4.725.288 4.01c.031.428.279.81.657 1.013l2.267 1.212-.441 1.278h-.001a1.25 1.25 0 001.182 1.659 1.252 1.252 0 001.182-.834l.79-2.287c.2-.58-.05-1.22-.592-1.511l-2.6-1.388-.307-4.279 1.36-1.148 2.92 6.627 1.637 3.713a1.25 1.25 0 002.288-1L36.862 44.3l3.05-3.285 3.029 3.017-1.429 3.241a1.25 1.25 0 002.288 1l4.562-10.337 1.36 1.149-.307 4.278-2.6 1.389a1.25 1.25 0 00-.591 1.511l.79 2.287a1.25 1.25 0 002.363-.817l-.443-1.278 2.267-1.212c.381-.2.633-.584.666-1.013l.289-4.01 14.611 4.723a3.312 3.312 0 012.25 2.702l2.477 18.698a1.251 1.251 0 002.48-.328L71.48 47.324a5.819 5.819 0 00-3.951-4.758l-15.899-5.14-2.703-2.268-.957-1.254v-3.833a26.165 26.165 0 004.764-11.223 12.07 12.07 0 001.121-2.197c.132-.333.275-.716.385-1.104 2.438-8.522-1.818-13.58-2.001-13.792a1.26 1.26 0 00-.94-.43c-.36.001-.7.156-.939.425-.011.013-1.241 1.368-2.451 1.136a16.558 16.558 0 01-2.117-.611 38.347 38.347 0 00-1.185-.387 19.906 19.906 0 00-6.169-.897c-3.293 0-11.15.695-13.01 7.139a13.55 13.55 0 00.303 8.528c.264.755.604 1.48 1.016 2.166a25.93 25.93 0 005.034 11.592v3.458l-.899 1.177-2.833 2.387-15.893 5.128a5.82 5.82 0 00-3.96 4.758L5.721 66.016a1.247 1.247 0 001.076 1.403zm32.941-32.596a9.148 9.148 0 005.73-2.166v.988l-5.596 4.037-5.59-4.025v-.812a9.02 9.02 0 005.456 1.979zm-3.978 6.99l-2.525-5.731.048-.062 4.71 3.388-2.233 2.405zm6.038-2.44l4.647-3.35.015.02-2.441 5.543-2.22-2.212zM29.154 18.112a1.384 1.384 0 00-.084-.216 1.166 1.166 0 00-.1-.237c0-.009 0-.019-.012-.027a8.83 8.83 0 01-.878-1.833 11.076 11.076 0 01-.248-6.974c1.39-4.813 7.881-5.333 10.608-5.333a17.329 17.329 0 015.431.785c.394.122.764.247 1.122.367.793.287 1.605.52 2.43.696a4.796 4.796 0 003.614-.905 13.465 13.465 0 01.794 10.425c-.035.126-.076.25-.118.372a4.463 4.463 0 00-2.303-2.455 2.32 2.32 0 00-1.863.139 12.448 12.448 0 01-8.43 1.601 20.983 20.983 0 01-6.355-1.588 1.264 1.264 0 00-1.654.55 9.849 9.849 0 01-1.28 1.705 1.251 1.251 0 001.865 1.666c.427-.478.758-.9 1.008-1.241a24.937 24.937 0 006.167 1.396 14.426 14.426 0 009.72-1.864s.427.188 1.017 1.478c.266.584.489 1.186.667 1.802-1.19 6.74-5.5 13.901-10.53 13.901-5.093 0-9.455-7.358-10.573-14.176a.183.183 0 01-.015-.034z" fill="#AD132F"/><path d="M78.75 68.342H16.945V50.723l2.692-1.4c.563.465 1.27.72 2 .724a3.21 3.21 0 10-3.207-3.209c0 .095.02.185.028.279l-3.338 1.735a1.25 1.25 0 00-.667 1.11v18.38H1.25c-.69 0-1.25.56-1.25 1.25V79.74a1.25 1.25 0 002.5 0v-8.9h75v8.899a1.25 1.25 0 002.5 0V69.592c0-.69-.56-1.25-1.25-1.25zM21.64 46.138a.71.71 0 11.003 1.418.71.71 0 01-.003-1.418z" fill="#AD132F"/><path d="M56.529 67.43c.69 0 1.25-.559 1.25-1.25V52.36c0-.69-.56-1.25-1.25-1.25H23.194c-.69 0-1.25.56-1.25 1.25v13.82a1.25 1.25 0 102.5 0V53.61h30.833v12.57c0 .691.56 1.25 1.25 1.25h.002z" fill="#AD132F"/></svg><svg fill="none" viewBox="0 0 88 80" id="about-bottom-features-3-icon" xmlns="http://www.w3.org/2000/svg"><path d="M10.499 43.257h10.4c.778 0 1.556-.778 1.556-1.556 0-.777-.778-1.555-1.556-1.555H10.5c-.778 0-1.556.778-1.556 1.555 0 .82.753 1.556 1.556 1.556zm0-27.218h34.8c.822 0 1.36-.793 1.36-1.555 0-.73-.582-1.555-1.36-1.555h-34.8c-.893 0-1.75.498-1.75 1.458 0 .842.92 1.652 1.75 1.652zm0 7.68h25.176c.824 0 1.36-.794 1.36-1.556 0-.73-.58-1.555-1.36-1.555H10.499c-.893 0-1.75.498-1.75 1.458 0 .842.92 1.653 1.75 1.653zm48.116.971c-8.66 0-16.24 7.357-16.102 16.137.136 8.666 7.31 16.027 16.102 16.039 8.76.01 16.137-7.21 16.137-16.04 0-8.763-7.374-16.136-16.137-16.136zm0 28.967c-7.05 0-12.862-5.872-12.963-12.83-.104-7.174 5.9-13.012 12.963-12.987 7.057.026 12.832 6.034 12.832 12.986 0 7.015-5.82 12.831-12.832 12.831zm28.482 15.068L75.723 56.574c4.003-4.28 6.193-10.004 6.212-15.845.034-10.654-7.691-20.446-18.169-22.746V5.638C63.767 2.569 61.206 0 58.13 0H5.735C2.667 0 0 2.553 0 5.638v68.724C0 77.431 2.562 80 5.638 80h52.394c3.068 0 5.638-2.562 5.638-5.638v-10.79c3.499-.777 6.804-2.43 9.623-4.665L84.666 70.96c.622.622 1.548.613 2.236.097.652-.326.65-1.876.194-2.332zm-26.538 5.54c0 1.436-1.098 2.337-2.43 2.527H5.736a2.397 2.397 0 01-2.43-2.43V5.638c0-1.396 1.06-2.43 2.43-2.43h52.393c1.373 0 2.43 1.196 2.43 2.527v11.859c-.583-.097-1.263-.097-1.944-.097-12.762 0-23.329 10.566-23.329 23.33 0 12.762 10.566 23.328 23.33 23.328.68 0 1.263 0 1.943-.097v10.207zm-1.944-13.317c-10.971 0-20.092-9.274-20.121-20.122-.03-10.934 9.188-20.194 20.121-20.218 10.884-.023 20.22 9.248 20.22 20.218 0 11.057-9.205 20.122-20.22 20.122zM35.286 59.1H10.304c-.863 0-1.457.607-1.457 1.458 0 .844.615 1.458 1.458 1.458h24.981c.863 0 1.458-.607 1.458-1.458 0-.844-.615-1.458-1.458-1.458zm-6.902 8.068h-18.08c-.863 0-1.458.607-1.458 1.458 0 .843.615 1.458 1.458 1.458h18.08c.863 0 1.459-.607 1.459-1.458 0-.844-.616-1.458-1.459-1.458zm38.882-33.536c-.667-.667-1.649-.393-2.235.194l-8.068 9.818-5.541-2.916c-.746-.373-1.76-.078-2.138.68-.374.746-.078 1.76.68 2.138l6.707 3.5c.592.395 1.572.074 1.944-.486l8.846-10.887c.407-.814.523-1.325-.194-2.041z" fill="#AD132F"/></svg><svg fill="none" viewBox="0 0 46 61" id="about-top-features-1-icon" xmlns="http://www.w3.org/2000/svg"><path fill-rule="evenodd" clip-rule="evenodd" d="M8.87.2h27.927c.72 0 1.262.54 1.262 1.261v1.982c0 .18 0 .36-.18.541h5.945c.72 0 1.442.54 1.442 1.262 0 4.144-.541 7.747-2.163 10.81-1.441 2.703-3.603 5.045-7.207 7.027-.9 4.685-4.504 8.468-9.009 9.73 0 1.08-.72 1.982-1.622 2.342v7.027h2.163v2.523h6.846v10.27h2.883V60.2H8.508v-5.225h2.883v-10.27h6.847v-2.523H20.4v-7.027c-.901-.36-1.622-1.261-1.802-2.342-4.504-1.262-7.927-5.045-8.829-9.73-3.603-1.982-5.945-4.324-7.387-7.027C.941 12.993.4 9.39.4 5.246c0-.721.54-1.262 1.261-1.262h5.946V1.461C7.607.741 8.148.2 8.87.2zm14.593 13.513l1.081 3.423h3.424c.72 0 .901.72.54 1.081l-2.882 2.162 1.081 3.424c.18.54-.54 1.08-1.081.54l-2.883-1.982-2.703 2.162c-.54.36-1.261-.18-1.08-.9l1.08-3.244-2.882-2.162c-.541-.36-.18-1.08.36-1.08h3.604l1.08-3.424c.18-.541 1.082-.541 1.262 0zm12.613-7.027v13.152c2.162-1.441 3.784-3.063 4.685-5.045 1.261-2.342 1.621-5.044 1.801-8.108h-6.486zM9.59 19.838V6.686H3.103c0 3.063.541 5.765 1.622 8.108 1.081 1.982 2.523 3.603 4.865 5.044zm13.152-8.468c4.145 0 7.568 3.424 7.568 7.567 0 4.144-3.424 7.567-7.568 7.567s-7.387-3.423-7.387-7.567 3.243-7.567 7.387-7.567z" fill="#AD132F"/></svg><svg fill="none" viewBox="0 0 63 60" id="about-top-features-2-icon" xmlns="http://www.w3.org/2000/svg"><path d="M61.521 28.611a5.463 5.463 0 00.409-4.37c-.113-.411-2.493-12.132-2.656-12.527-.946-2.485-3.903-3.758-6.592-2.838-1.38.471-2.509 1.464-3.102 2.724a4.618 4.618 0 00-.244 3.369l1.148 8.08c-2.517-.966-5.457.079-6.727 2.403l-6.228 11.407c-1.016 1.855-1.545 3.89-1.52 5.968l.089 7.761-.9.307a2.225 2.225 0 00-1.353 2.906l1.858 4.782a2.23 2.23 0 002.79 1.297l20.398-6.972a2.225 2.225 0 001.353-2.906l-1.858-4.782c-.409-1.05-1.54-1.588-2.609-1.322l-.953-2.284c-.11-.269-.082-.587.083-.884l6.613-12.12zM40.452 42.758c-.01-1.318.325-2.58.973-3.77l6.23-11.408c.19-.42 1.467-.782 1.467.029l-4.32 7.91a2.222 2.222 0 003.9 2.13s5.6-10.26 5.79-10.623c.727-1.333.88-2.88.431-4.283l-1.222-8.608c-.024-.162-.044-.494-.102-.649.185-.504 1.271-.596 1.476-.262l2.532 12.073c.14.383.232.894.011 1.178L51 38.595c-.809 1.487-.913 3.207-.282 4.722l.829 1.984L40.52 49.07l-.068-6.312zM27.01 50.89l-.898-.306.092-7.762c.022-2.084-.502-4.106-1.52-5.968L18.456 25.45c-1.269-2.327-4.213-3.37-6.726-2.404l1.149-8.084c.82-2.515-.84-5.281-3.349-6.086-2.69-.924-5.648.352-6.594 2.838-.16.375-2.55 12.14-2.658 12.53-.48 1.424-.336 3.004.409 4.366l6.617 12.118c.164.302.193.613.082.882l-.953 2.287c-1.074-.263-2.198.273-2.607 1.322L1.966 50a2.225 2.225 0 00.056 1.742c.254.55.724.971 1.296 1.165l20.397 6.972c1.1.382 2.36-.176 2.788-1.298L28.36 53.8a2.225 2.225 0 00-1.349-2.909zM4.5 25.634c.04-.11.073-.22.096-.332L7.13 13.227c.28-.347 1.362-.285 1.495.433a2.332 2.332 0 00-.12.475l-1.222 8.606c-.45 1.404-.297 2.95.434 4.288.202.373 5.79 10.62 5.79 10.62a2.223 2.223 0 003.9-2.13l-4.356-8.104c.03-.08.127-.158.26-.213.48-.194 1.062.046 1.245.38l6.23 11.407c.651 1.195.986 2.462.973 3.784l-.073 6.299-11.026-3.769.827-1.981c.633-1.516.531-3.238-.282-4.726l-6.62-12.119c-.108-.199-.213-.508-.086-.843zM45.547 6.16v-.022a2.19 2.19 0 00-1.555-2.11L32.238.182a3.594 3.594 0 00-2.266 0L18.218 4.027c-.934.289-1.556 1.178-1.556 2.133 0 8.866 3.622 17.242 9.933 22.93a6.677 6.677 0 009.02 0c6.31-5.688 9.932-14.065 9.932-22.93zM30.106 19.98c-.6 0-1.156-.244-1.578-.644l-2.666-2.666a2.213 2.213 0 010-3.133 2.24 2.24 0 013.155 0l1.089 1.066 3.088-3.088a2.24 2.24 0 013.155 0 2.213 2.213 0 010 3.133l-4.688 4.689c-.4.4-.978.644-1.555.644z" fill="#AD132F"/></svg><svg fill="none" viewBox="0 0 60 60" id="about-top-features-3-icon" xmlns="http://www.w3.org/2000/svg"><path d="M9.048 6.19h15.715a.476.476 0 000-.952H9.048a.476.476 0 000 .952zm15.714 6.667a.476.476 0 000-.953H9.048a.476.476 0 100 .953h15.714z" fill="#AD132F"/><path d="M59.95 59.312l-3.283-6.566V41.905a3.337 3.337 0 00-3.333-3.333H48.9a21.03 21.03 0 002.051-9.048c0-11.394-9.142-20.693-20.476-20.947V3.333A3.337 3.337 0 0027.143 0H6.667a3.337 3.337 0 00-3.334 3.333v10.84L.05 20.739a.477.477 0 00.426.69L7.24 18.57h4.896a20.85 20.85 0 00-3.088 10.952c0 11.394 9.142 20.693 20.476 20.947v3.34a3.337 3.337 0 003.333 3.333H52.76L59.523 60a.477.477 0 00.427-.69v.002zM7.143 17.62a.473.473 0 00-.187.038l-5.472 2.345 2.802-5.717V3.334A2.384 2.384 0 016.666.953h20.477a2.384 2.384 0 012.381 2.38V15.24a2.384 2.384 0 01-2.381 2.38l-14.134.001H7.143zm22.998-.927c3.77.304 6.819 3.432 6.994 7.233.153 3.338-1.764 5.942-5.4 7.33a.476.476 0 00-.306.445v4.252a.238.238 0 01-.238.238H28.81a.238.238 0 01-.238-.238v-4.578a2.25 2.25 0 011.283-2.039c2.816-1.316 4.43-3.156 4.43-5.05 0-2.576-2.094-4.711-4.668-4.76a4.683 4.683 0 00-3.387 1.36 4.912 4.912 0 00-1.468 3.485v2.059a.238.238 0 01-.239.238h-2.38a.238.238 0 01-.239-.238v-2.143c0-2.194.942-4.266 2.587-5.715h2.652a3.337 3.337 0 002.998-1.878zm-.617 25.213v2.857h-.715c-.11 0-.238-.173-.238-.397v-3.492c0-.224.128-.397.238-.397h1.037a3.313 3.313 0 00-.322 1.429zm23.334 14.286h-20a2.384 2.384 0 01-2.381-2.381V41.906a2.384 2.384 0 012.381-2.38h20.476a2.384 2.384 0 012.381 2.38V52.86l2.803 5.716-5.66-2.383z" fill="#AD132F"/><path d="M50.952 43.81H35.238a.476.476 0 000 .952h15.715a.476.476 0 100-.952h-.001zm0 6.666H35.238a.476.476 0 000 .953h15.715a.476.476 0 100-.953h-.001z" fill="#AD132F"/></svg><svg fill="none" viewBox="0 0 135 16" id="logo-icon" xmlns="http://www.w3.org/2000/svg"><path d="M.5 15V1h6.8c1.68 0 2.98.32 3.9.96.933.627 1.4 1.52 1.4 2.68 0 1.133-.433 2.027-1.3 2.68-.867.64-2.027.96-3.48.96l.4-.94c1.573 0 2.8.313 3.68.94.893.613 1.34 1.52 1.34 2.72 0 1.227-.48 2.2-1.44 2.92-.947.72-2.32 1.08-4.12 1.08H.5zm3.9-2.84h3.12c.573 0 1-.12 1.28-.36.293-.253.44-.62.44-1.1 0-.48-.147-.833-.44-1.06-.28-.24-.707-.36-1.28-.36H4.4v2.88zm0-5.56h2.52c.56 0 .98-.113 1.26-.34.28-.24.42-.587.42-1.04 0-.453-.14-.793-.42-1.02-.28-.24-.7-.36-1.26-.36H4.4V6.6zm9.583 8.4l6.18-14h3.9l6.2 14h-4.12l-4.84-12.06h1.56L18.023 15h-4.04zm3.38-2.72l1.02-2.92h6.84l1.02 2.92h-8.88zm22.924-.42l-.86.88V1h3.9v11.74l-.9-.88h5.42l-.9.88V1h3.9v14h-18.98V1h3.9v11.74l-.86-.88h5.38zm18.253 2.06l1.18-2.78c.6.307 1.227.54 1.88.7.654.16 1.287.253 1.9.28a6.527 6.527 0 001.66-.12c.507-.12.907-.3 1.2-.54.293-.24.44-.553.44-.94 0-.427-.18-.733-.54-.92-.347-.2-.806-.3-1.38-.3H61.3V6.4h3.26c.534 0 .947-.107 1.24-.32.294-.213.44-.5.44-.86 0-.347-.126-.62-.38-.82-.253-.213-.593-.36-1.02-.44a5.474 5.474 0 00-1.44-.1 6.932 6.932 0 00-1.66.3c-.573.16-1.127.38-1.66.66l-1.16-2.96c.947-.467 1.94-.787 2.98-.96a11.718 11.718 0 013.04-.12c.987.093 1.88.313 2.68.66.8.333 1.433.78 1.9 1.34.48.56.72 1.22.72 1.98 0 .667-.18 1.26-.54 1.78a3.65 3.65 0 01-1.46 1.22c-.613.293-1.32.44-2.12.44l.1-.84c.92 0 1.72.16 2.4.48.694.32 1.227.76 1.6 1.32.387.547.58 1.18.58 1.9 0 .68-.18 1.287-.54 1.82-.347.52-.833.96-1.46 1.32-.626.36-1.346.627-2.16.8-.8.187-1.66.273-2.58.26-.92 0-1.853-.113-2.8-.34a12.87 12.87 0 01-2.72-1zM71.541 15l6.18-14h3.9l6.2 14h-4.12l-4.84-12.06h1.56L75.581 15h-4.04zm3.38-2.72l1.02-2.92h6.84l1.02 2.92h-8.88zM98.266 15l-3.94-6.66 3.18-1.88 5.22 8.54h-4.46zm-8.92 0V1h3.94v14h-3.94zm2.8-5.36v-3.2h5.08v3.2h-5.08zm5.74-1.22l-3.66-.4 4.3-7.02h4.16l-4.8 7.42zm12.912 6.86c-1.12 0-2.153-.18-3.1-.54a7.58 7.58 0 01-2.48-1.52 7.225 7.225 0 01-1.62-2.32c-.387-.88-.58-1.847-.58-2.9s.193-2.02.58-2.9a7.001 7.001 0 011.62-2.3 7.41 7.41 0 012.48-1.54c.947-.36 1.98-.54 3.1-.54 1.133 0 2.167.18 3.1.54.947.36 1.767.873 2.46 1.54a7.001 7.001 0 011.62 2.3c.4.88.6 1.847.6 2.9s-.2 2.027-.6 2.92a7 7 0 01-1.62 2.3 7.347 7.347 0 01-2.46 1.52c-.933.36-1.967.54-3.1.54zm0-3.28c.533 0 1.027-.093 1.48-.28a3.38 3.38 0 001.2-.8c.347-.36.613-.787.8-1.28.2-.493.3-1.04.3-1.64 0-.613-.1-1.16-.3-1.64a3.514 3.514 0 00-.8-1.26 3.26 3.26 0 00-1.2-.82 3.85 3.85 0 00-1.48-.28c-.533 0-1.033.093-1.5.28-.453.187-.853.46-1.2.82a3.93 3.93 0 00-.8 1.26c-.187.48-.28 1.027-.28 1.64 0 .6.093 1.147.28 1.64.2.493.467.92.8 1.28.347.347.747.613 1.2.8.467.187.967.28 1.5.28zm19.257-11h3.96v14h-3.96V1zm-5.4 14h-3.96V1h3.96v14zm5.68-5.46h-5.96V6.26h5.96v3.28z" fill="#000"/></svg><svg fill="none" viewBox="0 0 28 28" id="wa-icon" xmlns="http://www.w3.org/2000/svg"><path d="M2.338 25.667l1.577-5.796A11.613 11.613 0 012.333 14C2.333 7.556 7.556 2.333 14 2.333S25.667 7.556 25.667 14c0 6.443-5.224 11.667-11.667 11.667a11.613 11.613 0 01-5.868-1.581l-5.794 1.58zM9.79 8.526c-.151.01-.298.049-.433.117a1.508 1.508 0 00-.343.266c-.14.131-.22.246-.305.357a3.184 3.184 0 00-.659 1.957c.002.572.152 1.128.385 1.649.477 1.052 1.262 2.166 2.3 3.199.25.248.493.498.756.73a11.023 11.023 0 004.48 2.387l.663.102c.216.011.432-.005.649-.016.34-.017.671-.11.972-.27.194-.102.285-.153.447-.256 0 0 .05-.032.145-.105.158-.116.255-.2.386-.336.096-.1.18-.218.244-.352.091-.19.183-.553.22-.855.028-.231.02-.357.016-.435-.005-.125-.108-.255-.222-.31l-.678-.304s-1.015-.442-1.635-.725a.582.582 0 00-.207-.047.562.562 0 00-.44.148v-.003c-.006 0-.084.067-.928 1.089a.408.408 0 01-.43.152 1.657 1.657 0 01-.222-.077c-.145-.061-.195-.084-.294-.128l-.006-.002a7.013 7.013 0 01-1.832-1.167c-.147-.128-.283-.268-.423-.403a7.35 7.35 0 01-1.19-1.48l-.069-.11a1.077 1.077 0 01-.119-.24c-.044-.171.071-.309.071-.309s.284-.31.415-.478c.11-.14.213-.285.307-.435.138-.222.181-.45.109-.626a97.136 97.136 0 00-1.013-2.38c-.069-.157-.273-.27-.458-.291a5.817 5.817 0 00-.19-.019 3.95 3.95 0 00-.47.005z" fill="#fff"/></svg></svg>