<?xml version="1.0" encoding="utf-8"?><svg viewBox="0 0 135 81" xmlns="http://www.w3.org/2000/svg" xmlns:xlink="http://www.w3.org/1999/xlink"><style>:root>svg{display:none}:root>svg:target{display:block}</style><svg fill="none" viewBox="0 0 80 80" id="about-bottom-features-1-icon" xmlns="http://www.w3.org/2000/svg"><path d="M78.772 77.59h-17.32V63.559c0-1.686-.348-3.286-.974-4.755v-.012l2.768-1.59a5.627 5.627 0 003.912 1.577 5.667 5.667 0 005.658-5.657 5.669 5.669 0 00-4.454-5.537v-19.73c2.54-.553 4.454-2.816 4.454-5.525 0-3.13-2.54-5.67-5.658-5.67a5.661 5.661 0 00-3.745 1.423L44.911 7.399c.001-.003.003-.005.003-.008A5.68 5.68 0 0039.51 0c-3.117-.001-5.67 2.551-5.67 5.669 0 .602.097 1.191.265 1.733l-18.498 10.68-.003-.003a5.652 5.652 0 00-3.731-1.42c-3.13 0-5.67 2.54-5.67 5.67 0 2.706 1.912 4.968 4.461 5.523v20.66a5.667 5.667 0 001.209 11.205 5.621 5.621 0 004.46-2.196l2.977 1.72a12.027 12.027 0 00-.793 4.316l.001 14.033H1.204a1.204 1.204 0 100 2.408c22.552 0 8.128.002 77.568 0a1.203 1.203 0 100-2.408zm-8.363-24.469a3.252 3.252 0 01-3.25 3.25 3.262 3.262 0 01-3.262-3.25 3.27 3.27 0 013.262-3.261 3.25 3.25 0 013.25 3.261zm-6.512-30.827a3.265 3.265 0 013.263-3.226 3.254 3.254 0 013.25 3.262 3.252 3.252 0 01-3.25 3.25 3.265 3.265 0 01-3.263-3.25v-.036zm2.059 5.561v19.73a5.582 5.582 0 00-2.793 1.516l-12.037-8.895a11.81 11.81 0 00.674-3.443 11.685 11.685 0 00-1.613-6.524l12.254-4.779a5.611 5.611 0 003.515 2.395zM43.695 9.477l18.287 10.558a5.626 5.626 0 00-.492 2.295c0 .3.024.59.072.879l-12.855 5.019c-2.083-2.275-4.912-3.611-7.993-3.804V11.207a5.534 5.534 0 002.981-1.73zm5.71 27.176c-.276 5.337-4.777 9.223-9.847 8.98-5.119-.22-9.212-4.56-8.98-9.834.22-4.967 4.297-8.992 9.401-8.992 6.988 1.244 9.622 5.21 9.425 9.846zM39.508 2.407a3.272 3.272 0 013.262 3.262c0 1.831-1.508 3.263-3.262 3.263-1.76 0-3.262-1.454-3.262-3.263a3.273 3.273 0 013.262-3.262zm-22.473 17.63L35.32 9.482l.002.003a5.677 5.677 0 002.986 1.721v13.313a11.766 11.766 0 00-7.139 3.816l-13.65-5.658c.012-.108.012-.228.012-.349 0-.819-.18-1.588-.494-2.287v-.004zM8.61 22.328a3.257 3.257 0 013.263-3.262 3.245 3.245 0 013.25 3.262 3.246 3.246 0 01-3.25 3.25 3.255 3.255 0 01-3.263-3.25zm3.263 34.98a3.265 3.265 0 01-3.263-3.262 3.265 3.265 0 013.263-3.262 3.254 3.254 0 013.13 2.395c.591 1.948-.919 4.13-3.13 4.13zm3.671-7.559a5.637 5.637 0 00-2.468-1.24h-.004V27.854h.004A5.686 5.686 0 0016.856 25l12.867 5.344a11.616 11.616 0 00-1.552 5.345c-.06 1.408.12 2.793.53 4.093l-13.157 9.966zm43.503 27.84H20.925V63.557c0-5.404 4.393-9.798 9.798-9.798h3.78l4.526 5.826c.229.29.577.458.95.458.374 0 .723-.169.951-.458l4.539-5.826h3.78c5.404 0 9.797 4.394 9.797 9.798V77.59zm.289-20.906c-2.203-3.214-5.898-5.333-10.087-5.333h-4.37c-.373 0-.722.17-.95.47l-3.949 5.068-3.936-5.068a1.19 1.19 0 00-.95-.47h-4.37c-4.346 0-8.174 2.288-10.34 5.73l-3.009-1.736c.282-1.1.199-2.44-.374-3.668l12.688-9.619c1.986 3.477 5.591 5.792 9.762 5.983.18.012.373.012.554.012 4.23 0 7.977-2.235 10.075-5.645l11.785 8.715v.012a5.392 5.392 0 00-.373 1.986c0 .734.144 1.444.397 2.082l-2.553 1.48z" fill="#AD132F"/></svg><svg fill="none" viewBox="0 0 80 81" id="about-bottom-features-2-icon" xmlns="http://www.w3.org/2000/svg"><path d="M6.796 67.419a1.25 1.25 0 001.4-1.075l2.479-18.699a3.302 3.302 0 012.25-2.7l14.612-4.725.288 4.01c.031.428.279.81.657 1.013l2.267 1.212-.441 1.278h-.001a1.25 1.25 0 001.182 1.659 1.252 1.252 0 001.182-.834l.79-2.287c.2-.58-.05-1.22-.592-1.511l-2.6-1.388-.307-4.279 1.36-1.148 2.92 6.627 1.637 3.713a1.25 1.25 0 002.288-1L36.862 44.3l3.05-3.285 3.029 3.017-1.429 3.241a1.25 1.25 0 002.288 1l4.562-10.337 1.36 1.149-.307 4.278-2.6 1.389a1.25 1.25 0 00-.591 1.511l.79 2.287a1.25 1.25 0 002.363-.817l-.443-1.278 2.267-1.212c.381-.2.633-.584.666-1.013l.289-4.01 14.611 4.723a3.312 3.312 0 012.25 2.702l2.477 18.698a1.251 1.251 0 002.48-.328L71.48 47.324a5.819 5.819 0 00-3.951-4.758l-15.899-5.14-2.703-2.268-.957-1.254v-3.833a26.165 26.165 0 004.764-11.223 12.07 12.07 0 001.121-2.197c.132-.333.275-.716.385-1.104 2.438-8.522-1.818-13.58-2.001-13.792a1.26 1.26 0 00-.94-.43c-.36.001-.7.156-.939.425-.011.013-1.241 1.368-2.451 1.136a16.558 16.558 0 01-2.117-.611 38.347 38.347 0 00-1.185-.387 19.906 19.906 0 00-6.169-.897c-3.293 0-11.15.695-13.01 7.139a13.55 13.55 0 00.303 8.528c.264.755.604 1.48 1.016 2.166a25.93 25.93 0 005.034 11.592v3.458l-.899 1.177-2.833 2.387-15.893 5.128a5.82 5.82 0 00-3.96 4.758L5.721 66.016a1.247 1.247 0 001.076 1.403zm32.941-32.596a9.148 9.148 0 005.73-2.166v.988l-5.596 4.037-5.59-4.025v-.812a9.02 9.02 0 005.456 1.979zm-3.978 6.99l-2.525-5.731.048-.062 4.71 3.388-2.233 2.405zm6.038-2.44l4.647-3.35.015.02-2.441 5.543-2.22-2.212zM29.154 18.112a1.384 1.384 0 00-.084-.216 1.166 1.166 0 00-.1-.237c0-.009 0-.019-.012-.027a8.83 8.83 0 01-.878-1.833 11.076 11.076 0 01-.248-6.974c1.39-4.813 7.881-5.333 10.608-5.333a17.329 17.329 0 015.431.785c.394.122.764.247 1.122.367.793.287 1.605.52 2.43.696a4.796 4.796 0 003.614-.905 13.465 13.465 0 01.794 10.425c-.035.126-.076.25-.118.372a4.463 4.463 0 00-2.303-2.455 2.32 2.32 0 00-1.863.139 12.448 12.448 0 01-8.43 1.601 20.983 20.983 0 01-6.355-1.588 1.264 1.264 0 00-1.654.55 9.849 9.849 0 01-1.28 1.705 1.251 1.251 0 001.865 1.666c.427-.478.758-.9 1.008-1.241a24.937 24.937 0 006.167 1.396 14.426 14.426 0 009.72-1.864s.427.188 1.017 1.478c.266.584.489 1.186.667 1.802-1.19 6.74-5.5 13.901-10.53 13.901-5.093 0-9.455-7.358-10.573-14.176a.183.183 0 01-.015-.034z" fill="#AD132F"/><path d="M78.75 68.342H16.945V50.723l2.692-1.4c.563.465 1.27.72 2 .724a3.21 3.21 0 10-3.207-3.209c0 .095.02.185.028.279l-3.338 1.735a1.25 1.25 0 00-.667 1.11v18.38H1.25c-.69 0-1.25.56-1.25 1.25V79.74a1.25 1.25 0 002.5 0v-8.9h75v8.899a1.25 1.25 0 002.5 0V69.592c0-.69-.56-1.25-1.25-1.25zM21.64 46.138a.71.71 0 11.003 1.418.71.71 0 01-.003-1.418z" fill="#AD132F"/><path d="M56.529 67.43c.69 0 1.25-.559 1.25-1.25V52.36c0-.69-.56-1.25-1.25-1.25H23.194c-.69 0-1.25.56-1.25 1.25v13.82a1.25 1.25 0 102.5 0V53.61h30.833v12.57c0 .691.56 1.25 1.25 1.25h.002z" fill="#AD132F"/></svg><svg fill="none" viewBox="0 0 88 80" id="about-bottom-features-3-icon" xmlns="http://www.w3.org/2000/svg"><path d="M10.499 43.257h10.4c.778 0 1.556-.778 1.556-1.556 0-.777-.778-1.555-1.556-1.555H10.5c-.778 0-1.556.778-1.556 1.555 0 .82.753 1.556 1.556 1.556zm0-27.218h34.8c.822 0 1.36-.793 1.36-1.555 0-.73-.582-1.555-1.36-1.555h-34.8c-.893 0-1.75.498-1.75 1.458 0 .842.92 1.652 1.75 1.652zm0 7.68h25.176c.824 0 1.36-.794 1.36-1.556 0-.73-.58-1.555-1.36-1.555H10.499c-.893 0-1.75.498-1.75 1.458 0 .842.92 1.653 1.75 1.653zm48.116.971c-8.66 0-16.24 7.357-16.102 16.137.136 8.666 7.31 16.027 16.102 16.039 8.76.01 16.137-7.21 16.137-16.04 0-8.763-7.374-16.136-16.137-16.136zm0 28.967c-7.05 0-12.862-5.872-12.963-12.83-.104-7.174 5.9-13.012 12.963-12.987 7.057.026 12.832 6.034 12.832 12.986 0 7.015-5.82 12.831-12.832 12.831zm28.482 15.068L75.723 56.574c4.003-4.28 6.193-10.004 6.212-15.845.034-10.654-7.691-20.446-18.169-22.746V5.638C63.767 2.569 61.206 0 58.13 0H5.735C2.667 0 0 2.553 0 5.638v68.724C0 77.431 2.562 80 5.638 80h52.394c3.068 0 5.638-2.562 5.638-5.638v-10.79c3.499-.777 6.804-2.43 9.623-4.665L84.666 70.96c.622.622 1.548.613 2.236.097.652-.326.65-1.876.194-2.332zm-26.538 5.54c0 1.436-1.098 2.337-2.43 2.527H5.736a2.397 2.397 0 01-2.43-2.43V5.638c0-1.396 1.06-2.43 2.43-2.43h52.393c1.373 0 2.43 1.196 2.43 2.527v11.859c-.583-.097-1.263-.097-1.944-.097-12.762 0-23.329 10.566-23.329 23.33 0 12.762 10.566 23.328 23.33 23.328.68 0 1.263 0 1.943-.097v10.207zm-1.944-13.317c-10.971 0-20.092-9.274-20.121-20.122-.03-10.934 9.188-20.194 20.121-20.218 10.884-.023 20.22 9.248 20.22 20.218 0 11.057-9.205 20.122-20.22 20.122zM35.286 59.1H10.304c-.863 0-1.457.607-1.457 1.458 0 .844.615 1.458 1.458 1.458h24.981c.863 0 1.458-.607 1.458-1.458 0-.844-.615-1.458-1.458-1.458zm-6.902 8.068h-18.08c-.863 0-1.458.607-1.458 1.458 0 .843.615 1.458 1.458 1.458h18.08c.863 0 1.459-.607 1.459-1.458 0-.844-.616-1.458-1.459-1.458zm38.882-33.536c-.667-.667-1.649-.393-2.235.194l-8.068 9.818-5.541-2.916c-.746-.373-1.76-.078-2.138.68-.374.746-.078 1.76.68 2.138l6.707 3.5c.592.395 1.572.074 1.944-.486l8.846-10.887c.407-.814.523-1.325-.194-2.041z" fill="#AD132F"/></svg><svg fill="none" viewBox="0 0 46 61" id="about-top-features-1-icon" xmlns="http://www.w3.org/2000/svg"><path fill-rule="evenodd" clip-rule="evenodd" d="M8.87.2h27.927c.72 0 1.262.54 1.262 1.261v1.982c0 .18 0 .36-.18.541h5.945c.72 0 1.442.54 1.442 1.262 0 4.144-.541 7.747-2.163 10.81-1.441 2.703-3.603 5.045-7.207 7.027-.9 4.685-4.504 8.468-9.009 9.73 0 1.08-.72 1.982-1.622 2.342v7.027h2.163v2.523h6.846v10.27h2.883V60.2H8.508v-5.225h2.883v-10.27h6.847v-2.523H20.4v-7.027c-.901-.36-1.622-1.261-1.802-2.342-4.504-1.262-7.927-5.045-8.829-9.73-3.603-1.982-5.945-4.324-7.387-7.027C.941 12.993.4 9.39.4 5.246c0-.721.54-1.262 1.261-1.262h5.946V1.461C7.607.741 8.148.2 8.87.2zm14.593 13.513l1.081 3.423h3.424c.72 0 .901.72.54 1.081l-2.882 2.162 1.081 3.424c.18.54-.54 1.08-1.081.54l-2.883-1.982-2.703 2.162c-.54.36-1.261-.18-1.08-.9l1.08-3.244-2.882-2.162c-.541-.36-.18-1.08.36-1.08h3.604l1.08-3.424c.18-.541 1.082-.541 1.262 0zm12.613-7.027v13.152c2.162-1.441 3.784-3.063 4.685-5.045 1.261-2.342 1.621-5.044 1.801-8.108h-6.486zM9.59 19.838V6.686H3.103c0 3.063.541 5.765 1.622 8.108 1.081 1.982 2.523 3.603 4.865 5.044zm13.152-8.468c4.145 0 7.568 3.424 7.568 7.567 0 4.144-3.424 7.567-7.568 7.567s-7.387-3.423-7.387-7.567 3.243-7.567 7.387-7.567z" fill="#AD132F"/></svg><svg fill="none" viewBox="0 0 63 60" id="about-top-features-2-icon" xmlns="http://www.w3.org/2000/svg"><path d="M61.521 28.611a5.463 5.463 0 00.409-4.37c-.113-.411-2.493-12.132-2.656-12.527-.946-2.485-3.903-3.758-6.592-2.838-1.38.471-2.509 1.464-3.102 2.724a4.618 4.618 0 00-.244 3.369l1.148 8.08c-2.517-.966-5.457.079-6.727 2.403l-6.228 11.407c-1.016 1.855-1.545 3.89-1.52 5.968l.089 7.761-.9.307a2.225 2.225 0 00-1.353 2.906l1.858 4.782a2.23 2.23 0 002.79 1.297l20.398-6.972a2.225 2.225 0 001.353-2.906l-1.858-4.782c-.409-1.05-1.54-1.588-2.609-1.322l-.953-2.284c-.11-.269-.082-.587.083-.884l6.613-12.12zM40.452 42.758c-.01-1.318.325-2.58.973-3.77l6.23-11.408c.19-.42 1.467-.782 1.467.029l-4.32 7.91a2.222 2.222 0 003.9 2.13s5.6-10.26 5.79-10.623c.727-1.333.88-2.88.431-4.283l-1.222-8.608c-.024-.162-.044-.494-.102-.649.185-.504 1.271-.596 1.476-.262l2.532 12.073c.14.383.232.894.011 1.178L51 38.595c-.809 1.487-.913 3.207-.282 4.722l.829 1.984L40.52 49.07l-.068-6.312zM27.01 50.89l-.898-.306.092-7.762c.022-2.084-.502-4.106-1.52-5.968L18.456 25.45c-1.269-2.327-4.213-3.37-6.726-2.404l1.149-8.084c.82-2.515-.84-5.281-3.349-6.086-2.69-.924-5.648.352-6.594 2.838-.16.375-2.55 12.14-2.658 12.53-.48 1.424-.336 3.004.409 4.366l6.617 12.118c.164.302.193.613.082.882l-.953 2.287c-1.074-.263-2.198.273-2.607 1.322L1.966 50a2.225 2.225 0 00.056 1.742c.254.55.724.971 1.296 1.165l20.397 6.972c1.1.382 2.36-.176 2.788-1.298L28.36 53.8a2.225 2.225 0 00-1.349-2.909zM4.5 25.634c.04-.11.073-.22.096-.332L7.13 13.227c.28-.347 1.362-.285 1.495.433a2.332 2.332 0 00-.12.475l-1.222 8.606c-.45 1.404-.297 2.95.434 4.288.202.373 5.79 10.62 5.79 10.62a2.223 2.223 0 003.9-2.13l-4.356-8.104c.03-.08.127-.158.26-.213.48-.194 1.062.046 1.245.38l6.23 11.407c.651 1.195.986 2.462.973 3.784l-.073 6.299-11.026-3.769.827-1.981c.633-1.516.531-3.238-.282-4.726l-6.62-12.119c-.108-.199-.213-.508-.086-.843zM45.547 6.16v-.022a2.19 2.19 0 00-1.555-2.11L32.238.182a3.594 3.594 0 00-2.266 0L18.218 4.027c-.934.289-1.556 1.178-1.556 2.133 0 8.866 3.622 17.242 9.933 22.93a6.677 6.677 0 009.02 0c6.31-5.688 9.932-14.065 9.932-22.93zM30.106 19.98c-.6 0-1.156-.244-1.578-.644l-2.666-2.666a2.213 2.213 0 010-3.133 2.24 2.24 0 013.155 0l1.089 1.066 3.088-3.088a2.24 2.24 0 013.155 0 2.213 2.213 0 010 3.133l-4.688 4.689c-.4.4-.978.644-1.555.644z" fill="#AD132F"/></svg><svg fill="none" viewBox="0 0 60 60" id="about-top-features-3-icon" xmlns="http://www.w3.org/2000/svg"><path d="M9.048 6.19h15.715a.476.476 0 000-.952H9.048a.476.476 0 000 .952zm15.714 6.667a.476.476 0 000-.953H9.048a.476.476 0 100 .953h15.714z" fill="#AD132F"/><path d="M59.95 59.312l-3.283-6.566V41.905a3.337 3.337 0 00-3.333-3.333H48.9a21.03 21.03 0 002.051-9.048c0-11.394-9.142-20.693-20.476-20.947V3.333A3.337 3.337 0 0027.143 0H6.667a3.337 3.337 0 00-3.334 3.333v10.84L.05 20.739a.477.477 0 00.426.69L7.24 18.57h4.896a20.85 20.85 0 00-3.088 10.952c0 11.394 9.142 20.693 20.476 20.947v3.34a3.337 3.337 0 003.333 3.333H52.76L59.523 60a.477.477 0 00.427-.69v.002zM7.143 17.62a.473.473 0 00-.187.038l-5.472 2.345 2.802-5.717V3.334A2.384 2.384 0 016.666.953h20.477a2.384 2.384 0 012.381 2.38V15.24a2.384 2.384 0 01-2.381 2.38l-14.134.001H7.143zm22.998-.927c3.77.304 6.819 3.432 6.994 7.233.153 3.338-1.764 5.942-5.4 7.33a.476.476 0 00-.306.445v4.252a.238.238 0 01-.238.238H28.81a.238.238 0 01-.238-.238v-4.578a2.25 2.25 0 011.283-2.039c2.816-1.316 4.43-3.156 4.43-5.05 0-2.576-2.094-4.711-4.668-4.76a4.683 4.683 0 00-3.387 1.36 4.912 4.912 0 00-1.468 3.485v2.059a.238.238 0 01-.239.238h-2.38a.238.238 0 01-.239-.238v-2.143c0-2.194.942-4.266 2.587-5.715h2.652a3.337 3.337 0 002.998-1.878zm-.617 25.213v2.857h-.715c-.11 0-.238-.173-.238-.397v-3.492c0-.224.128-.397.238-.397h1.037a3.313 3.313 0 00-.322 1.429zm23.334 14.286h-20a2.384 2.384 0 01-2.381-2.381V41.906a2.384 2.384 0 012.381-2.38h20.476a2.384 2.384 0 012.381 2.38V52.86l2.803 5.716-5.66-2.383z" fill="#AD132F"/><path d="M50.952 43.81H35.238a.476.476 0 000 .952h15.715a.476.476 0 100-.952h-.001zm0 6.666H35.238a.476.476 0 000 .953h15.715a.476.476 0 100-.953h-.001z" fill="#AD132F"/></svg><svg fill="none" viewBox="0 0 90 80" id="features-1-icon" xmlns="http://www.w3.org/2000/svg"><path d="M44.817 40.163a19.903 19.903 0 00-19.702 22.83 19.9 19.9 0 009.057 13.895c.017.007.03.02.046.028a19.749 19.749 0 0021.197 0c.017-.007.03-.02.046-.028a19.9 19.9 0 00-10.644-36.725zm-8.3 34.271v-.243a8.308 8.308 0 018.3-8.3 8.313 8.313 0 018.3 8.3v.244a16.464 16.464 0 01-16.6 0zm3.32-16.842a4.98 4.98 0 119.96 0 4.98 4.98 0 01-9.96 0zm16.404 14.5a11.671 11.671 0 00-6.067-8.214 8.301 8.301 0 00.67-12.045A8.299 8.299 0 1039.47 63.886a11.641 11.641 0 00-6.073 8.211 16.598 16.598 0 1122.844-.004zM34.949 21.79l-1.762 10.268a1.659 1.659 0 002.409 1.75l9.22-4.847 9.22 4.847a1.66 1.66 0 002.409-1.75L54.683 21.79l7.46-7.27a1.66 1.66 0 00-.92-2.832L50.916 10.19 46.305.85a1.73 1.73 0 00-2.978 0l-4.61 9.34-10.307 1.498h-.001a1.66 1.66 0 00-.92 2.832l7.46 7.27zm5.11-8.44a1.658 1.658 0 001.248-.908l3.51-7.108 3.508 7.107c.24.49.708.83 1.248.909l7.844 1.14-5.677 5.532h.001c-.39.382-.57.93-.477 1.47l1.34 7.81-7.016-3.687a1.659 1.659 0 00-1.544 0l-7.016 3.688 1.34-7.81v-.002a1.663 1.663 0 00-.476-1.469l-5.677-5.532 7.844-1.14zM21.795 35.696l5.492-5.353h.001a1.66 1.66 0 00-.92-2.832l-7.59-1.104-3.396-6.877a1.727 1.727 0 00-2.976 0l-3.394 6.877-7.59 1.103a1.66 1.66 0 00-.92 2.832l5.492 5.354-1.296 7.558a1.66 1.66 0 002.41 1.75l6.787-3.569 6.79 3.569a1.66 1.66 0 002.407-1.75l-1.297-7.558zm-2.942-1.768c-.39.381-.569.93-.477 1.47l.875 5.103-4.584-2.41a1.661 1.661 0 00-1.545 0L8.54 40.5l.875-5.104a1.661 1.661 0 00-.477-1.468l-3.709-3.617 5.126-.744a1.661 1.661 0 001.25-.91l2.29-4.643 2.293 4.643c.242.49.708.83 1.25.909l5.125.745-3.709 3.616zm70.699-5.288a1.662 1.662 0 00-1.34-1.128l-7.59-1.103-3.393-6.877h-.001a1.659 1.659 0 00-2.977 0l-3.395 6.876-7.59 1.103a1.659 1.659 0 00-.92 2.832l5.493 5.354-1.297 7.558a1.66 1.66 0 002.409 1.75l6.789-3.569 6.788 3.569h-.001a1.66 1.66 0 002.408-1.75l-1.296-7.558 5.493-5.353a1.662 1.662 0 00.42-1.703zm-8.855 5.289c-.39.381-.57.93-.478 1.468l.876 5.104-4.584-2.41a1.655 1.655 0 00-1.544 0l-4.584 2.411.875-5.104a1.663 1.663 0 00-.477-1.469l-3.71-3.615 5.126-.745a1.657 1.657 0 001.249-.908l2.294-4.646 2.29 4.644c.242.49.71.83 1.25.909l5.126.744-3.709 3.617z" fill="#AD132F"/></svg><svg fill="none" viewBox="0 0 95 81" id="features-2-icon" xmlns="http://www.w3.org/2000/svg"><path d="M28.059 54.421c.395 0 .79-.15 1.09-.453l11.945-11.944c.29-.29.452-.681.452-1.09V17.591a1.542 1.542 0 10-3.085 0v22.702L26.969 51.786a1.543 1.543 0 001.09 2.635zm11.945-41.524c.853 0 1.542-.691 1.542-1.543V7.415a1.542 1.542 0 10-3.084 0v3.94a1.54 1.54 0 001.541 1.542zM23.879 16.09a1.54 1.54 0 002.106.564c.736-.427.99-1.368.564-2.107l-1.97-3.413a1.542 1.542 0 00-2.671 1.543l1.97 3.413zm-8.72 8.718l-3.413-1.97a1.54 1.54 0 00-2.106.564 1.539 1.539 0 00.563 2.106l3.413 1.973c.243.138.508.206.77.206a1.543 1.543 0 00.774-2.878zm-3.192 16.125c0-.851-.691-1.542-1.543-1.542h-3.94a1.541 1.541 0 100 3.085h3.94c.851 0 1.543-.689 1.543-1.543zm-.99 18.303c.261 0 .526-.066.769-.208l3.413-1.97a1.543 1.543 0 00-1.543-2.672l-3.413 1.972a1.54 1.54 0 00-.563 2.107c.284.498.802.772 1.337.772zm11.497 12.063a1.538 1.538 0 002.106-.563l1.97-3.416a1.543 1.543 0 00-2.67-1.542l-1.97 3.412c-.43.74-.177 1.683.564 2.109zm17.531 4.694c.852 0 1.543-.69 1.543-1.542l-.003-3.938a1.541 1.541 0 10-3.084 0l.002 3.938c0 .853.69 1.542 1.542 1.542zm29.576-33.517h3.94a1.543 1.543 0 000-3.085h-3.94a1.543 1.543 0 000 3.085zm.784-19.076a1.538 1.538 0 00-2.106-.562l-3.413 1.975a1.542 1.542 0 001.547 2.668l3.413-1.976c.736-.425.989-1.37.56-2.105zM55.427 11.135l-1.97 3.413a1.542 1.542 0 002.67 1.543l1.97-3.413a1.54 1.54 0 00-.564-2.106 1.538 1.538 0 00-2.106.563zm37.271 39.231H58.914a1.543 1.543 0 000 3.085h33.784a1.541 1.541 0 10-.001-3.085zm-4.254 9.302H54.66a1.541 1.541 0 100 3.085h33.785a1.542 1.542 0 100-3.086z" fill="#AD132F"/><path d="M40.004 77.85c-20.359 0-36.919-16.56-36.919-36.917 0-20.356 16.561-36.916 36.919-36.916 20.356 0 36.918 16.56 36.918 36.916 0 2.166-.197 4.283-.558 6.348h3.133c.332-2.07.51-4.186.51-6.348 0-22.057-17.946-40-40.003-40S0 18.878 0 40.933c0 22.06 17.947 40 40.004 40 7.58 0 14.67-2.116 20.716-5.792h-6.86a36.675 36.675 0 01-13.857 2.707v.002z" fill="#AD132F"/><path d="M84.189 68.972H50.406a1.542 1.542 0 100 3.085h33.783c.854 0 1.542-.691 1.542-1.543a1.54 1.54 0 00-1.542-1.542z" fill="#AD132F"/></svg><svg fill="none" viewBox="0 0 74 81" id="features-3-icon" xmlns="http://www.w3.org/2000/svg"><path d="M33.44 27.31a4.624 4.624 0 00-4.62-4.62 4.624 4.624 0 00-4.62 4.62 4.625 4.625 0 004.62 4.62 4.625 4.625 0 004.62-4.62zm-6.66 0c0-1.124.916-2.039 2.04-2.039 1.123 0 2.038.915 2.038 2.039 0 1.125-.915 2.04-2.038 2.04a2.041 2.041 0 01-2.04-2.04zm20.002-1.85a1.288 1.288 0 00-1.824-.03L26.669 43.12a1.29 1.29 0 001.795 1.856l18.289-17.688a1.294 1.294 0 00.029-1.826v-.001zm-2.181 13.013a4.624 4.624 0 00-4.62 4.62 4.624 4.624 0 004.62 4.62 4.624 4.624 0 004.62-4.62 4.626 4.626 0 00-4.62-4.62zm0 6.66a2.041 2.041 0 01-2.039-2.039c0-1.125.915-2.04 2.039-2.04s2.038.915 2.038 2.04a2.041 2.041 0 01-2.038 2.039z" fill="#AD132F"/><path d="M57.963 35.202c0-11.719-9.534-21.252-21.253-21.252-11.72 0-21.254 9.534-21.254 21.252 0 11.72 9.534 21.255 21.254 21.255 11.719-.002 21.253-9.536 21.253-21.255zM36.71 53.874c-10.295 0-18.674-8.376-18.674-18.673 0-10.297 8.378-18.67 18.674-18.67s18.672 8.376 18.672 18.671c0 10.296-8.377 18.672-18.672 18.672z" fill="#AD132F"/><path d="M73.21 67.2l-8.494-12.92a17.184 17.184 0 001.391-6.901 17.094 17.094 0 005.135-12.177c0-4.568-1.864-8.972-5.135-12.177.044-4.585-1.753-9.017-4.98-12.24-3.252-3.252-7.6-4.963-12.24-4.98C45.677 2.533 41.274.67 36.71.67a17.103 17.103 0 00-12.18 5.134c-4.646-.025-8.988 1.73-12.24 4.98-3.228 3.227-5.024 7.66-4.98 12.242-3.27 3.208-5.134 7.611-5.134 12.175 0 4.565 1.865 8.97 5.134 12.177a17.166 17.166 0 001.392 6.906L.212 67.2a1.288 1.288 0 00.876 1.983l10.736 1.706 5.82 9.182c.236.37.642.595 1.08.598h.01c.434 0 .839-.218 1.077-.582l8.345-12.69c2.582 1.502 5.528 2.335 8.553 2.335 3.023 0 5.968-.833 8.549-2.335l8.344 12.69c.24.364.645.583 1.08.583h.01c.438-.004.844-.23 1.08-.599l5.824-9.182 10.737-1.706a1.292 1.292 0 00.877-1.985zm-54.458 9.802l-5.062-7.987a1.29 1.29 0 00-.888-.583l-9.338-1.484 6.615-10.064a16.9 16.9 0 002.209 2.737c3.213 3.213 7.5 4.982 12.072 4.982h.168a17.3 17.3 0 001.496 1.34l-7.272 11.06zm7.27-14.578a1.289 1.289 0 00-.953-.42c-.02 0-.037 0-.057.002-4.081.174-8.02-1.334-10.9-4.212-2.856-2.856-4.391-6.829-4.21-10.899a1.286 1.286 0 00-.419-1.009c-3.005-2.748-4.729-6.643-4.729-10.684 0-4.041 1.724-7.934 4.73-10.682a1.29 1.29 0 00.417-1.01c-.18-4.07 1.354-8.042 4.212-10.899 2.877-2.877 6.805-4.392 10.9-4.211.382.004.751-.137 1.008-.418 2.75-3.007 6.645-4.73 10.688-4.73 4.04 0 7.933 1.723 10.683 4.728.258.282.613.422 1.009.419 4.094-.182 8.022 1.334 10.9 4.211 2.856 2.853 4.392 6.826 4.21 10.9a1.29 1.29 0 00.419 1.01 14.51 14.51 0 014.73 10.682 14.51 14.51 0 01-4.73 10.683 1.291 1.291 0 00-.42 1.01c.181 4.072-1.353 8.045-4.211 10.9-2.877 2.877-6.797 4.389-10.9 4.21a1.244 1.244 0 00-1.008.42c-2.749 3.004-6.643 4.728-10.683 4.728-4.041 0-7.937-1.724-10.687-4.729zm34.593 6.008c-.366.058-.689.27-.887.583l-5.067 7.987-7.274-11.062c.52-.418 1.025-.86 1.497-1.34h.169c4.571 0 8.859-1.77 12.07-4.98a16.784 16.784 0 002.212-2.74l6.618 10.067-9.338 1.485z" fill="#AD132F"/></svg><svg fill="none" viewBox="0 0 12 10" id="form-icon" xmlns="http://www.w3.org/2000/svg"><path d="M2.094 4.3a1.236 1.236 0 00-1.755.05 1.256 1.256 0 00.05 1.767L4.113 9.66c.533.506 1.383.44 1.832-.142l5.793-7.5a1.256 1.256 0 00-.217-1.754 1.236 1.236 0 00-1.742.22L4.825 6.896 2.094 4.3z" fill="#FF9DAF"/></svg><svg fill="none" viewBox="0 0 53 22" id="isart-icon" xmlns="http://www.w3.org/2000/svg"><g clip-path="url(#aka)" fill-rule="evenodd" clip-rule="evenodd" fill="#AD132F"><path d="M.616 18.19c.01-.086.029-.173.048-.25l.058-.318c.01-.048.01-.105.029-.163.01-.048.019-.087.029-.125.01-.087.028-.174.038-.27.01-.086.039-.173.048-.24 0-.058.087-.549.106-.587 0-.077.116-.8.135-.838.01-.134.057-.288.067-.423.01-.154.068-.356.087-.51.01-.135.048-.308.067-.443.01-.077.02-.135.039-.221.01-.058.029-.116.029-.193.028-.096.038-.279.067-.356.01-.144.048-.289.067-.433.01-.058.02-.096.03-.164.009-.048 0-.086.028-.106 0-.125.048-.25.048-.356.03-.163.068-.337.087-.5l.058-.337c.01-.038.019-.125.028-.164.01-.057.02-.077.02-.134.01-.087.029-.174.048-.26.01-.068.038-.173.038-.231a3.05 3.05 0 00.048-.289c.01-.192.087-.385.087-.587.02-.048.048-.212.048-.26a3.05 3.05 0 00.048-.289l.087-.529c.01-.038.01-.048.01-.087 0-.019 0-.019.01-.038l.009-.02c0-.144.048-.317.067-.452 0-.057.048-.337.068-.365 0-.126.038-.174.038-.29.01-.047.048-.22.048-.278 0-.068.02-.096.03-.164l.076-.404c0-.125.02-.183.039-.299.01-.038.038-.22.048-.269.01-.087.029-.144.038-.24.01-.068.087-.607.116-.636 0-.086.01-.106.029-.183.01-.067.048-.404.077-.433 0-.106.019-.183.038-.289.02-.096.02-.163.048-.24l.106-.606c0-.078.087-.597.106-.626 0-.087.077-.549.106-.606 0-.068.048-.366.067-.405 0-.086.03-.24.048-.327 0-.058.126-.77.135-.808 0-.135.048-.299.068-.433 0-.077.01-.058.019-.116H24.61l-.096.635c-.02.096.01.039-.039.077l.01.048c-.029.145-.106.78-.154.847.01.087-.077.664-.116.722.01.096-.077.578-.105.693l-.058.327-.183 1.001c.01.068-.077.597-.106.645.01.144-.048.366-.077.52l-.087.51c-.01.02-.01.02-.01.038l-.009.03c.01.076-.01.26-.058.317.01.106-.038.308-.057.414-.02.115-.097.673-.135.722.01.086-.058.548-.106.606.01.048-.038.443-.087.5.02.125-.096.597-.115.77-.029.106-.039.222-.058.328l-.067.336c.01.048-.048.54-.106.616.02.077-.01.26-.058.318.01.087-.019.183-.029.28l-.105.528c.01.068-.02.29-.058.337.01.097-.039.433-.087.5.01.097-.02.203-.038.3-.01.066-.03.24-.068.288.01.058 0 .106-.01.163 0 .03-.01.058-.019.087-.01.058 0 .029-.028.067.01.068 0 .106-.01.164 0 .02-.01.058-.01.077-.01.058 0 .029-.029.068l-.057.452c-.039.115.038-.096-.01.029 0 0-.01.019-.01.01 0 0 0 .009-.01.009.01.058 0 .106-.009.164l-.038.144c.019.077-.049.481-.087.539.01.096-.058.548-.106.606.01.096-.038.453-.087.51.01.077-.01.25-.048.308.01.087-.019.193-.038.29l-.068.423c-.01.067-.048.336-.077.394.02.096-.019.221-.038.327-.02.097-.02.231-.067.299.01.086-.02.183-.03.27-.009.076-.018.192-.057.24.02.115-.048.356-.067.481-.02.125-.02.356-.087.443.01.096-.039.452-.087.51.01.086-.067.568-.106.616.01.115-.057.433-.077.568-.019.144.01.163-.134.173H2.753v-.01c-.578 0-1.155 0-1.723.01H0c.01-.077.029-.164.048-.25l.077-.5c.01-.04.029-.213.048-.232 0-.058.068-.5.087-.53 0-.067.02-.163.029-.22.212-1.233.048-.164.298-1.79l.029.028zm4.389 1.675h3.253c1.01-4.976 2.358-12.906 3.253-18.113H8.287c.038 1.145-3.128 17.256-3.273 18.123l-.01-.01zm8.142-5.265c-.029.068-.039.193-.048.28-.01.086-.048.192-.048.288 0 .058-.03.135-.039.193-.01.067-.029.154-.038.23a2.09 2.09 0 00-.068.395c-.029.039-.106.53-.106.616l-.105.54c-.02.144-.068.26-.049.442.03.289.28.471.587.423.231-.038.212-.057.366-.144.058-.096.289-.289.27-.443.038-.057.106-.5.115-.568.03-.125.106-.51.097-.606l.01-.029c0-.01.076-.23.057-.365l.029-.097c.01-.029.01-.067.019-.106.01-.067.038-.144.02-.211.009-.02.009 0 .018-.039l.02-.086c.01-.068.01-.068.01-.126.047-.057.067-.317.086-.413.02-.125.087-.395.077-.5l.067-.29c.02-.105.048-.211.039-.308.029-.038.029-.096.019-.154.087-.134-.048-.654-.096-.798-.048-.135-.299-.54-.376-.578-.019-.048-.23-.337-.279-.366-.019-.057 0-.01-.038-.057l-.27-.337-.067-.106c-.087-.106-.49-.635-.53-.645-.019-.067-.182-.26-.24-.327-.048-.058-.212-.289-.25-.308-.02-.039-.25-.366-.289-.385-.048-.116-.135-.222-.202-.337a1.583 1.583 0 01-.096-.183c-.02-.048-.049-.144-.077-.183-.039-.221-.058-.327-.049-.568l.087-.615.145-.809c.028-.135.105-.481.086-.597.048-.067.087-.375.087-.471.038-.048.115-.54.106-.607.067-.106.096-.558.144-.721.02-.135.096-.434.087-.549.019-.02.01 0 .019-.039l.038-.163c.02-.068.048-.145.039-.212.029-.038.02-.02.038-.077.01-.029.02-.048.03-.077.018-.058.038-.096.038-.164.048-.048.106-.211.134-.288l.154-.289c.049-.029.097-.106.135-.154.048-.067.087-.096.145-.144.048-.039.317-.222.327-.241.086-.029.183-.096.279-.135.096-.038.183-.077.289-.106.221-.067.414-.096.654-.115.684-.02 1.386 0 2.079 0 .664 0 1.29.058 1.646.443.077.077.24.298.289.433.038.115.086.202.115.327a1.921 1.921 0 01.02.664c-.01.077-.03.173-.03.26-.01.087-.038.192-.048.279a1.48 1.48 0 01-.057.308c0 .067-.03.173-.039.25-.02.096-.038.193-.048.28a2.47 2.47 0 00-.048.288c-.01.067-.029.144-.048.231-.02.096-.039.183-.039.28-.029.086-.038.201-.058.307-.019.125-.038.222-.057.337 0 .067-.039.23-.048.289-.01.057-.01.077-.02.144-.01.048-.029.106-.029.173a2.46 2.46 0 01-.048.231 1.31 1.31 0 00-.038.26c-.01.058-.029.135-.048.212l-2.57.01c0-.183.115-.51.106-.684.048-.058.096-.423.086-.51.02-.029.01 0 .02-.048l.077-.51c.057-.067.106-.616.144-.741.02-.135.077-.337.068-.462.038-.058.038-.202.067-.27l.01-.096.028-.125c.077-.375-.067-.703-.462-.703-.317 0-.644.193-.74.462-.02.049-.02.077-.04.116-.018.096-.047.23-.047.327-.02.087-.03.145-.048.24-.02.097-.039.174-.039.28l-.038.144-.03.173c-.019.126-.047.241-.057.357-.029.019-.02.077-.029.125-.01.067-.02.086-.029.144-.01.087-.048.212-.048.298-.02.077-.029.145-.048.241-.02.096-.039.173-.039.28-.028.038-.067.317-.077.413-.01.067-.028.337-.01.404.02.058-.018.02.03.048-.048.135.125.472.202.607.048.077-.01.029.067.067-.01.048-.01.01 0 .048 0 .02.02.039.029.058l.462.626c.039.028-.029 0 .039.028 0 .058.23.328.279.366l.346.404c0 .01-.02.01.029.077l.433.54.24.298c.068.086.04.067.097.096.01.058.144.221.183.289.077.115.144.279.202.308-.02.057-.01.019.02.086.018.03.018.039.038.087l.125.356c.038.144.01.154.057.193-.048.115-.019.288-.019.413-.01.077-.02.097-.02.193a4.55 4.55 0 00-.086.577c-.029.03 0-.01-.019.039 0 .01-.01.067-.01.067-.01.068-.019.106-.019.164a3.752 3.752 0 00-.086.49c-.02.078-.039.193-.049.29-.01.105-.048.202-.048.327-.019.019-.019.067-.029.106-.01.057-.01.086-.019.134-.019.097-.029.203-.048.29 0 .095-.048.23-.048.346a1.07 1.07 0 00-.048.279c-.02.134-.058.27-.067.414-.02.048-.068.336-.068.413-.029.02-.029.096-.029.135-.01.067-.019.096-.029.164-.019.115-.048.24-.057.356a1.33 1.33 0 00-.049.211 1.903 1.903 0 00-.057.25l-.164.463c-.087.212-.192.337-.23.433-.02.01-.136.173-.164.212-.039.048-.049.057-.087.105l-.106.116c-.077.106-.385.327-.53.385-.076.029-.144.048-.22.096-.087.01-.424.125-.732.135l-.857.02c-.163 0-.27.018-.414.018H11.81c-.106 0-.125-.019-.221-.019-.048 0-.183-.029-.24-.038-.04-.01-.068-.01-.117-.02-.048-.01-.067-.028-.125-.028-.336-.077-.433-.193-.606-.318-.029-.02-.01-.01-.029-.02-.029-.047 0-.009-.038-.057-.01-.02-.02-.02-.03-.038l-.326-.616c-.01-.087-.039-.164-.049-.25-.01-.097.01-.184-.01-.27.03-.058.068-.5.078-.606.02-.154.096-.472.086-.597a.759.759 0 00.058-.327l.01-.03s.086-.317.067-.442c.039-.048.135-.616.125-.703l.039-.144c.01-.067.029-.106.01-.164l.019-.057c0-.01.01-.048.01-.058.009-.039.009-.077.019-.116.01-.076.038-.163.028-.24.049-.067.097-.385.087-.481.039-.058.116-.597.135-.712.058-.049 1.213-.02 1.28-.02h1.309l-.096.568-.039.222c-.02.105-.058.211-.058.327h-.038zM32.3 8.364l.077 1.213c.01.067.01.115.01.211 0 .097.019.106.019.203 0 .269.048.548.048.827l.029.395c.019.144.019.279.019.423 0 .116.029.28.038.395l.03.597c0 .096.019.115.019.202l.048.828c0 .096.019.105.019.202 0 .24.029.356.029.616l.038.413H31.01l.318-1.636c.048-.279.115-.539.163-.818.02-.135.049-.26.077-.404.03-.145.058-.27.077-.414l.318-1.636c.058-.27.096-.549.164-.818l.115-.607c.01-.038.01-.048.02-.105l.028-.106.01.019zm9.278 2.868h-1.665c-.068 0-.039-.058-.039-.135l.193-3.05c0-.097.019-.107.019-.193l.058-1.02c.01-.068.01-.125.01-.202 0-.174.047-.607.047-.809 0-.096.02-.115.02-.202l.019-.414c.01-.115.029-.289.029-.414h1.78c.491 0 .347.366.347.751l-.221 3.446c0 .077.01.144 0 .221-.049.433-.049.991-.097 1.415-.029.26.077.597-.5.597v.01zm-11.646 8.97c.039-.183.077-.385.116-.568.038-.202.077-.385.115-.587.039-.192.077-.385.116-.587.038-.193.077-.395.125-.577h2.54c0 .163.049.423.049.587.01.288.058.587.067.876.01.192.048.394.048.596 0 .087-.01.26.068.26h6.073c.077 0 .048-.135.067-.327.02-.24.02-.5.048-.741.01-.058 0-.125 0-.183l.068-.934c.019-.173.01-.394.038-.568.029-.182.02-.375.039-.567.01-.058 0-.116.01-.183l.096-1.492c0-.077 0-.125.01-.202.028-.212.047-.549.047-.76h.443c.067 0 .058.086.077.144l.49 2.06.184.76c.192.75.375 1.492.539 2.252l.134.568c.02.067.01.163.077.163h3.821c0-.086-.067-.279-.096-.375l-.395-1.473c-.154-.625-.346-1.241-.5-1.867-.154-.616-.346-1.241-.49-1.857-.03-.125-.078-.25-.107-.375.472 0 .828-.126 1.088-.337a1.83 1.83 0 00.693-1.463l.212-3.369c.019-.106.01-.24.028-.337l.039-.683c0-.077.01-.096.02-.154.009-.067 0-.116.009-.183.029-.163.019-.337.029-.5l.048-.674c.01-.164.01-.356.029-.52l.057-1.02h1.146c0 .318-.048.626-.048.943l-.068.943c-.02.164-.01.318-.02.482l-.066.943c0 .173-.01.337-.03.481l-.23 3.792c-.02.135-.02.337-.03.472 0 .086-.018.115-.018.221l-.308 5.005c-.01.144-.039.317-.039.462l-.058.953a3.834 3.834 0 00-.029.48h3.773c.077 0 .048-.105.048-.192 0-.154.039-.308.039-.48l.077-1.194a3.53 3.53 0 00.029-.472c0-.087.02-.125.02-.24 0-.116.018-.145.018-.241 0-.125.01-.347.03-.472.028-.163.009-.327.028-.49.01-.145.029-.309.029-.463l.038-.48c0-.107.01-.145.02-.222l.038-.741c.02-.28.058-.664.067-.943l.049-.963c.01-.144.038-.308.038-.462 0-.164.029-.327.039-.481.01-.337.038-.626.048-.963l.337-5.226c.01-.086.01-.154.01-.25 0-.087.018-.125.018-.24H53.6c-.067-.28-.116-.568-.183-.867l-.26-1.299c-.029-.154-.058-.289-.087-.443-.028-.134-.057-.288-.086-.423-.029-.154-.077-.299-.077-.453h-6.93c-.01.068-.029.116-.048.174-.058.163-.135.346-.173.51h-.039c-.019-.068-.086-.116-.134-.164a1.425 1.425 0 00-.357-.24c-.317-.193-.818-.28-1.241-.28h-7.257c0 .26-.038.462-.038.703 0 .077-.01.106-.01.154-.01.067 0 .125-.01.183-.01.096-.019.25-.029.346-.01.058 0 .116 0 .174l-.057.885c-.03.212-.039.79-.058 1.059l-.029.52c0 .182-.038.336-.038.51l-.106 1.578c-.01.289-.058.587-.048.876 0 .289-.039.587-.049.876l-.134 2.079c0 .413-.068.837-.068 1.25h-.019c0-.346-.125-1-.154-1.385l-.029-.231c-.01-.096-.01-.145-.019-.231l-.327-2.762c-.087-.607-.125-1.242-.222-1.839l-.057-.462-.491-4.157c-.02-.174-.039-.116-.404-.116h-3.62l-.654 2.704c-.51 2.031-.981 4.072-1.491 6.112a17.18 17.18 0 00-.164.674l-1.068 4.398-.087.347-.991 4.07c-.01.03-.087.338-.087.338.01.048 0 .028.058.028h3.705v.039z"/></g><defs><clipPath id="aka"><path fill="#fff" d="M0 0h52.338v21.684H0z"/></clipPath></defs></svg><svg fill="none" viewBox="0 0 135 16" id="logo-icon" xmlns="http://www.w3.org/2000/svg"><path d="M.5 15V1h6.8c1.68 0 2.98.32 3.9.96.933.627 1.4 1.52 1.4 2.68 0 1.133-.433 2.027-1.3 2.68-.867.64-2.027.96-3.48.96l.4-.94c1.573 0 2.8.313 3.68.94.893.613 1.34 1.52 1.34 2.72 0 1.227-.48 2.2-1.44 2.92-.947.72-2.32 1.08-4.12 1.08H.5zm3.9-2.84h3.12c.573 0 1-.12 1.28-.36.293-.253.44-.62.44-1.1 0-.48-.147-.833-.44-1.06-.28-.24-.707-.36-1.28-.36H4.4v2.88zm0-5.56h2.52c.56 0 .98-.113 1.26-.34.28-.24.42-.587.42-1.04 0-.453-.14-.793-.42-1.02-.28-.24-.7-.36-1.26-.36H4.4V6.6zm9.583 8.4l6.18-14h3.9l6.2 14h-4.12l-4.84-12.06h1.56L18.023 15h-4.04zm3.38-2.72l1.02-2.92h6.84l1.02 2.92h-8.88zm22.924-.42l-.86.88V1h3.9v11.74l-.9-.88h5.42l-.9.88V1h3.9v14h-18.98V1h3.9v11.74l-.86-.88h5.38zm18.253 2.06l1.18-2.78c.6.307 1.227.54 1.88.7.654.16 1.287.253 1.9.28a6.527 6.527 0 001.66-.12c.507-.12.907-.3 1.2-.54.293-.24.44-.553.44-.94 0-.427-.18-.733-.54-.92-.347-.2-.806-.3-1.38-.3H61.3V6.4h3.26c.534 0 .947-.107 1.24-.32.294-.213.44-.5.44-.86 0-.347-.126-.62-.38-.82-.253-.213-.593-.36-1.02-.44a5.474 5.474 0 00-1.44-.1 6.932 6.932 0 00-1.66.3c-.573.16-1.127.38-1.66.66l-1.16-2.96c.947-.467 1.94-.787 2.98-.96a11.718 11.718 0 013.04-.12c.987.093 1.88.313 2.68.66.8.333 1.433.78 1.9 1.34.48.56.72 1.22.72 1.98 0 .667-.18 1.26-.54 1.78a3.65 3.65 0 01-1.46 1.22c-.613.293-1.32.44-2.12.44l.1-.84c.92 0 1.72.16 2.4.48.694.32 1.227.76 1.6 1.32.387.547.58 1.18.58 1.9 0 .68-.18 1.287-.54 1.82-.347.52-.833.96-1.46 1.32-.626.36-1.346.627-2.16.8-.8.187-1.66.273-2.58.26-.92 0-1.853-.113-2.8-.34a12.87 12.87 0 01-2.72-1zM71.541 15l6.18-14h3.9l6.2 14h-4.12l-4.84-12.06h1.56L75.581 15h-4.04zm3.38-2.72l1.02-2.92h6.84l1.02 2.92h-8.88zM98.266 15l-3.94-6.66 3.18-1.88 5.22 8.54h-4.46zm-8.92 0V1h3.94v14h-3.94zm2.8-5.36v-3.2h5.08v3.2h-5.08zm5.74-1.22l-3.66-.4 4.3-7.02h4.16l-4.8 7.42zm12.912 6.86c-1.12 0-2.153-.18-3.1-.54a7.58 7.58 0 01-2.48-1.52 7.225 7.225 0 01-1.62-2.32c-.387-.88-.58-1.847-.58-2.9s.193-2.02.58-2.9a7.001 7.001 0 011.62-2.3 7.41 7.41 0 012.48-1.54c.947-.36 1.98-.54 3.1-.54 1.133 0 2.167.18 3.1.54.947.36 1.767.873 2.46 1.54a7.001 7.001 0 011.62 2.3c.4.88.6 1.847.6 2.9s-.2 2.027-.6 2.92a7 7 0 01-1.62 2.3 7.347 7.347 0 01-2.46 1.52c-.933.36-1.967.54-3.1.54zm0-3.28c.533 0 1.027-.093 1.48-.28a3.38 3.38 0 001.2-.8c.347-.36.613-.787.8-1.28.2-.493.3-1.04.3-1.64 0-.613-.1-1.16-.3-1.64a3.514 3.514 0 00-.8-1.26 3.26 3.26 0 00-1.2-.82 3.85 3.85 0 00-1.48-.28c-.533 0-1.033.093-1.5.28-.453.187-.853.46-1.2.82a3.93 3.93 0 00-.8 1.26c-.187.48-.28 1.027-.28 1.64 0 .6.093 1.147.28 1.64.2.493.467.92.8 1.28.347.347.747.613 1.2.8.467.187.967.28 1.5.28zm19.257-11h3.96v14h-3.96V1zm-5.4 14h-3.96V1h3.96v14zm5.68-5.46h-5.96V6.26h5.96v3.28z" fill="#000"/></svg><svg fill="none" viewBox="0 0 84 64" id="questions-features-1-icon" xmlns="http://www.w3.org/2000/svg"><mask id="ama" fill="#fff"><path d="M68.191 26.466c.736-.615 1.353-1.5 1.353-2.823V12.516c0-2.288-1.885-4.173-4.173-4.173H48.684V4.168C48.684 1.88 46.79 0 44.503 0H25.037c-2.288 0-4.167 1.88-4.167 4.167v4.175l-16.697.001C1.885 8.343 0 10.228 0 12.516v11.127c0 1.163.57 2.2 1.312 2.85.742.649 1.611 1.008 2.461 1.262l20.845 6.583c1.811.644 2.689-2.14.836-2.652l-20.873-6.59c-.635-.19-1.155-.453-1.435-.698-.28-.245-.364-.377-.364-.755V12.516c0-.795.596-1.39 1.39-1.39l61.2-.001c.795 0 1.39.596 1.39 1.39v11.128c0 .244-.058.44-.355.687-.293.245-.86.524-1.53.793l-20.786 6.563c-1.853.513-.975 3.296.836 2.652l20.913-6.606c.797-.317 1.616-.652 2.352-1.267h-.001zM25.035 2.782h19.466c.795 0 1.397.591 1.397 1.386v4.175h-22.26V4.168c0-.795.6-1.386 1.396-1.386h.001zm5.566 25.03a1.391 1.391 0 00-1.396 1.399v9.734c0 3.058 2.505 5.563 5.563 5.563s5.566-2.505 5.566-5.563V29.21a1.39 1.39 0 00-1.385-1.399h-8.348zM4.152 30.574a1.39 1.39 0 00-1.377 1.419v27.814c0 2.288 1.893 4.167 4.18 4.167H52.85c1.814-.042 1.814-2.74 0-2.781H6.956c-.795 0-1.4-.591-1.4-1.386V31.993a1.391 1.391 0 00-1.404-1.418zm59.835 1.422v2.847c-4.688.307-6.221 2.665-9.733 2.716-1.293 0-2.685-.512-3.197-.986-1.424-1.314-3.2.775-1.959 1.972.918.885 2.338 1.384 3.116 1.56l-4.8 10.803a1.39 1.39 0 00-.111.565s-.02 1.676.842 3.399c.86 1.722 2.661 3.55 6.106 3.55 3.446 0 5.249-1.828 6.11-3.55.861-1.723.84-3.399.84-3.399a1.39 1.39 0 00-.112-.565l-4.797-10.795c2.844-.452 4.515-2.547 9.068-2.549 4.57.005 6.241 2.107 9.09 2.56l-4.797 10.795a1.38 1.38 0 00-.112.565s-.021 1.676.84 3.398c.861 1.723 2.664 3.55 6.11 3.55 3.444 0 5.245-1.827 6.106-3.55.862-1.722.842-3.398.842-3.398a1.391 1.391 0 00-.11-.565l-4.801-10.804c.778-.176 2.198-.674 3.116-1.559 1.24-1.197-.535-3.287-1.959-1.972-.513.474-1.904.986-3.197.986-3.512-.053-5.045-2.41-9.734-2.717v-2.846a1.398 1.398 0 00-1.382-1.413 1.382 1.382 0 00-1.383 1.401h-.002zm-32.001-1.4h5.563v8.348a2.745 2.745 0 01-2.781 2.782 2.745 2.745 0 01-2.782-2.782v-8.348zm33.39 9.726c-.696 0-1.39.464-1.39 1.39v19.496l-5.633-.001c-1.878.128-1.75 2.828.065 2.782h6.94v.01h6.963c1.815.048 1.943-2.653.065-2.781h-5.633V41.723c0-.92-.682-1.381-1.372-1.389v-.015l-.006.003zM54.25 42.375l3.417 7.7h-6.832l3.415-7.7zm22.238.011l3.414 7.699H73.07l3.418-7.699zm-26.16 10.473h7.848s-.49 2.782-3.922 2.782c-3.433 0-3.926-2.782-3.926-2.782zm22.235.01h7.848s-.493 2.782-3.925 2.782c-3.433 0-3.923-2.782-3.923-2.782z"/></mask><path d="M68.191 26.466c.736-.615 1.353-1.5 1.353-2.823V12.516c0-2.288-1.885-4.173-4.173-4.173H48.684V4.168C48.684 1.88 46.79 0 44.503 0H25.037c-2.288 0-4.167 1.88-4.167 4.167v4.175l-16.697.001C1.885 8.343 0 10.228 0 12.516v11.127c0 1.163.57 2.2 1.312 2.85.742.649 1.611 1.008 2.461 1.262l20.845 6.583c1.811.644 2.689-2.14.836-2.652l-20.873-6.59c-.635-.19-1.155-.453-1.435-.698-.28-.245-.364-.377-.364-.755V12.516c0-.795.596-1.39 1.39-1.39l61.2-.001c.795 0 1.39.596 1.39 1.39v11.128c0 .244-.058.44-.355.687-.293.245-.86.524-1.53.793l-20.786 6.563c-1.853.513-.975 3.296.836 2.652l20.913-6.606c.797-.317 1.616-.652 2.352-1.267h-.001zM25.035 2.782h19.466c.795 0 1.397.591 1.397 1.386v4.175h-22.26V4.168c0-.795.6-1.386 1.396-1.386h.001zm5.566 25.03a1.391 1.391 0 00-1.396 1.399v9.734c0 3.058 2.505 5.563 5.563 5.563s5.566-2.505 5.566-5.563V29.21a1.39 1.39 0 00-1.385-1.399h-8.348zM4.152 30.574a1.39 1.39 0 00-1.377 1.419v27.814c0 2.288 1.893 4.167 4.18 4.167H52.85c1.814-.042 1.814-2.74 0-2.781H6.956c-.795 0-1.4-.591-1.4-1.386V31.993a1.391 1.391 0 00-1.404-1.418zm59.835 1.422v2.847c-4.688.307-6.221 2.665-9.733 2.716-1.293 0-2.685-.512-3.197-.986-1.424-1.314-3.2.775-1.959 1.972.918.885 2.338 1.384 3.116 1.56l-4.8 10.803a1.39 1.39 0 00-.111.565s-.02 1.676.842 3.399c.86 1.722 2.661 3.55 6.106 3.55 3.446 0 5.249-1.828 6.11-3.55.861-1.723.84-3.399.84-3.399a1.39 1.39 0 00-.112-.565l-4.797-10.795c2.844-.452 4.515-2.547 9.068-2.549 4.57.005 6.241 2.107 9.09 2.56l-4.797 10.795a1.38 1.38 0 00-.112.565s-.021 1.676.84 3.398c.861 1.723 2.664 3.55 6.11 3.55 3.444 0 5.245-1.827 6.106-3.55.862-1.722.842-3.398.842-3.398a1.391 1.391 0 00-.11-.565l-4.801-10.804c.778-.176 2.198-.674 3.116-1.559 1.24-1.197-.535-3.287-1.959-1.972-.513.474-1.904.986-3.197.986-3.512-.053-5.045-2.41-9.734-2.717v-2.846a1.398 1.398 0 00-1.382-1.413 1.382 1.382 0 00-1.383 1.401h-.002zm-32.001-1.4h5.563v8.348a2.745 2.745 0 01-2.781 2.782 2.745 2.745 0 01-2.782-2.782v-8.348zm33.39 9.726c-.696 0-1.39.464-1.39 1.39v19.496l-5.633-.001c-1.878.128-1.75 2.828.065 2.782h6.94v.01h6.963c1.815.048 1.943-2.653.065-2.781h-5.633V41.723c0-.92-.682-1.381-1.372-1.389v-.015l-.006.003zM54.25 42.375l3.417 7.7h-6.832l3.415-7.7zm22.238.011l3.414 7.699H73.07l3.418-7.699zm-26.16 10.473h7.848s-.49 2.782-3.922 2.782c-3.433 0-3.926-2.782-3.926-2.782zm22.235.01h7.848s-.493 2.782-3.925 2.782c-3.433 0-3.923-2.782-3.923-2.782z" fill="#AD132F" stroke="#fff" stroke-width=".6" mask="url(#ama)"/></svg><svg fill="none" viewBox="0 0 71 64" id="questions-features-2-icon" xmlns="http://www.w3.org/2000/svg"><path d="M64 39.82c-.471 0-1.12.152-2.095.485-.97.33-2.242.831-3.952 1.51l-.016.006c-2.164.86-4.734 1.88-7.189 2.687-2.455.806-4.819 1.406-6.557 1.406-.403 0-.778-.168-1.476-.486L64 39.82zm0 0a5.902 5.902 0 015.894 5.894c0 1.257-.715 2.526-1.533 3.56a14.095 14.095 0 01-1.99 2.028c-.48.325-5.188 3.437-11.331 6.475-6.184 3.058-13.788 6.023-19.992 6.023-8.916 0-16.166-3.104-19.717-4.965l-.293-.153v.746c0 .733-.593 1.324-1.324 1.324H1.524c-.73 0-1.324-.591-1.324-1.324v-24.38c0-.733.593-1.324 1.324-1.324h12.19c.73 0 1.324.591 1.324 1.324v1.628l.19.01c.189.01.376.024.557.038h.002l.133.009c.272.019.556.038.842.038 6.26 0 9.51 2.904 10.282 5.952l.038.15.154.001c5.076.062 8.442.473 10.79.981 2.344.508 3.676 1.113 4.689 1.573L64 39.82zm1.26 9.055l-.537.353c-.602.395-5.194 3.373-11.042 6.253-5.839 2.875-12.968 5.671-18.633 5.671-9.771 0-17.612-4.113-19.91-5.453l-.1-.058V39.33l.213.014.139.007 49.87 9.523zm0 0l-.135-.003m.135.003l-.135-.003m0 0c.43-.401.88-.886 1.254-1.37a6.31 6.31 0 00.612-.935c.152-.295.257-.591.257-.853A3.25 3.25 0 0064 42.467h-.013c-.172.011-.456.088-.793.196-.346.11-.771.262-1.238.435-.899.335-1.96.755-2.916 1.135l-.109.043c-2.412.959-5.111 2.031-7.706 2.864-2.598.834-5.072 1.422-7.035 1.422-.974 0-1.69-.323-2.563-.718l-.007-.003c-1.803-.822-5.134-2.327-15.715-2.327-.73 0-1.324-.591-1.324-1.324 0-1.218-.701-2.417-2.022-3.303-1.32-.887-3.267-1.468-5.797-1.468-.393 0-.779-.027-1.168-.055l49.531 9.508zm-52.934 9.233h.2V36.37H2.848v21.735h9.343zm39.031-45.327c.248.248.388.585.388.936v15.238c0 .73-.592 1.324-1.324 1.324H25.905c-.73 0-1.324-.593-1.324-1.324V13.714c0-.351.139-.688.388-.934v-.001L37.16.589a1.322 1.322 0 011.872 0l6.542 6.54.341.342v-2.9a1.324 1.324 0 112.648 0v5.548l.059.058 2.6 2.601zm-23.935 1.425l-.058.059v13.367h21.733V14.262l-.059-.058-2.6-2.602-.058-.058h-.002l-8.006-8.007-.142-.142-.141.142-10.667 10.666z" fill="#AD132F" stroke="#fff" stroke-width=".4"/></svg><svg fill="none" viewBox="0 0 58 65" id="questions-features-3-icon" xmlns="http://www.w3.org/2000/svg"><path d="M57.336 47.573a3.417 3.417 0 00-1.74-2.107l-7.676-3.86V3.445A2.602 2.602 0 0045.322.847H7.77a.852.852 0 00-.657.31L.191 9.546a.904.904 0 00-.077.114l-.008.012a.9.9 0 00-.055.12l-.006.017a.81.81 0 00-.033.126v.018A.856.856 0 000 10.09v48.338a2.6 2.6 0 002.597 2.598h11.478a3.137 3.137 0 00-.009.218v2.753a.852.852 0 00.852.851h18.084a.85.85 0 00.85-.848v-2.753c0-.073 0-.146-.008-.219h11.478a2.599 2.599 0 002.598-2.596v-6.488l2.853 1.874a3.37 3.37 0 001.86.554c.281 0 .562-.034.836-.1a3.788 3.788 0 002.396-1.781l1.125-1.95c.517-.9.642-1.972.346-2.967zM7.127 3.817v4.524c0 .494-.4.894-.893.895h-3.58l4.473-5.419zm25.022 59.33H15.765v-1.902a1.661 1.661 0 011.659-1.66H30.49a1.661 1.661 0 011.66 1.66v1.901zm-2.51-5.265H18.274v-1.558a1.256 1.256 0 011.254-1.255h8.855a1.256 1.256 0 011.255 1.255v1.558zm16.576.544a.896.896 0 01-.895.895H33.245a3.366 3.366 0 00-1.903-1.329v-1.668a2.964 2.964 0 00-2.958-2.958H19.53a2.963 2.963 0 00-2.958 2.958v1.669a3.37 3.37 0 00-1.902 1.328H2.59a.896.896 0 01-.893-.895V10.94h4.535A2.599 2.599 0 008.83 8.343v-5.79h36.49a.895.895 0 01.894.891v37.303l-10.152-5.108.21-.364h4.463a.851.851 0 100-1.703h-2.116c.902-.2 1.68-.77 2.141-1.57l1.052-1.82a2.085 2.085 0 00-.762-2.845l-7.753-4.476a2.084 2.084 0 00-2.846.762l-1.052 1.824a3.287 3.287 0 00-.427 1.35H7.176a.852.852 0 000 1.703h22.098a3.3 3.3 0 00.511.783l-2.48 4.29H7.175a.851.851 0 100 1.703h19.151l-2.472 4.286a3.325 3.325 0 00-2.87.787H7.177a.851.851 0 100 1.703h12.638l-.529.916a2.084 2.084 0 00.762 2.846l2.277 1.313H7.177a.852.852 0 000 1.704h18.096l2.526 1.459a2.083 2.083 0 002.846-.762l.402-.697h9.688a.848.848 0 00.826-1.06l4.654 3.056v7.6zM20.9 44.334a.383.383 0 01-.139-.516l1.052-1.825a1.605 1.605 0 012.183-.583l5.64 3.256a1.606 1.606 0 01.584 2.184l-1.05 1.824h-.001a.384.384 0 01-.517.138L20.9 44.334zm11.126.864a3.292 3.292 0 00-.715-1.332l1.05-1.817h.494l7.726 5.074h-8.62a3.29 3.29 0 00.065-1.925zm-2.1-2.335l-4.51-2.603 5.764-9.983 4.509 2.603-5.763 9.983zm.956-16.57l1.051-1.821a.383.383 0 01.516-.14l7.75 4.48a.384.384 0 01.137.517l-1.051 1.82a1.6 1.6 0 01-2.183.584l-5.64-3.255a1.592 1.592 0 01-.749-.994l-.006-.029a1.589 1.589 0 01.17-1.16l.005-.003zm24.632 23.394l-1.126 1.95a2.07 2.07 0 01-1.314.975c-.467.12-.962.042-1.368-.218l-4.163-2.735-14.194-9.322 1.86-3.22 19.619 9.87c.428.22.745.609.875 1.073a2.078 2.078 0 01-.189 1.627zM23.641 14.09c0-.47.381-.851.852-.851h16.242a.851.851 0 110 1.703H24.493a.851.851 0 01-.852-.852zm-8.312 6.63c0-.983-.446-1.163-1.824-1.464-1.257-.27-3.157-.688-3.157-3.117a3.02 3.02 0 012.489-3.02v-.657a.85.85 0 011.462-.619.85.85 0 01.241.619v.656a3.022 3.022 0 012.492 3.021.852.852 0 01-1.703 0 1.484 1.484 0 00-1.638-1.415 1.484 1.484 0 00-1.64 1.415c0 .973.445 1.152 1.816 1.451 1.261.275 3.166.69 3.166 3.13a3.023 3.023 0 01-2.49 3.021v.657a.852.852 0 01-1.704 0v-.657a3.02 3.02 0 01-2.49-3.022.852.852 0 011.703 0 1.483 1.483 0 001.639 1.415 1.48 1.48 0 001.638-1.413zm8.313.147h-.001c0-.47.381-.852.852-.852h16.242a.851.851 0 110 1.703H24.493a.852.852 0 01-.852-.85v-.001z" fill="#AD132F"/></svg><svg fill="none" viewBox="0 0 60 65" id="questions-features-4-icon" xmlns="http://www.w3.org/2000/svg"><path fill-rule="evenodd" clip-rule="evenodd" d="M27.198 40.471a2.564 2.564 0 002.56 2.562 2.564 2.564 0 002.562-2.562c0-1.411-1.15-2.56-2.562-2.56a2.563 2.563 0 00-2.56 2.56zm-2.225 0a4.789 4.789 0 014.785-4.784 4.79 4.79 0 014.786 4.784 4.791 4.791 0 01-4.786 4.787 4.79 4.79 0 01-4.785-4.787zm14.224 18.655c-.206-4.029-2.004-7.612-4.803-9.595a10.193 10.193 0 01-9.273 0c-2.8 1.983-4.596 5.566-4.801 9.595a15.637 15.637 0 0018.877 0zm2.241.51c.007.34-.144.664-.408.877a17.858 17.858 0 01-22.544 0 1.11 1.11 0 01-.409-.878c.08-5.255 2.54-9.989 6.419-12.353.355-.216.8-.216 1.154-.002a7.963 7.963 0 008.216 0c.355-.214.8-.214 1.155.002 3.879 2.365 6.34 7.098 6.418 12.353zm3.837-54.329a2.563 2.563 0 002.56 2.56 2.563 2.563 0 002.562-2.56 2.563 2.563 0 00-2.562-2.561 2.563 2.563 0 00-2.56 2.561zm-2.224 0A4.79 4.79 0 0147.834.52a4.792 4.792 0 014.786 4.787 4.791 4.791 0 01-4.786 4.785 4.79 4.79 0 01-4.785-4.785zM57.276 23.96c-.207-4.027-2.004-7.61-4.804-9.593a10.186 10.186 0 01-9.272 0c-2.8 1.983-4.597 5.566-4.802 9.593a15.638 15.638 0 0018.877 0zm2.24.51a1.11 1.11 0 01-.409.88c-6.54 5.325-16.006 5.346-22.544 0a1.114 1.114 0 01-.407-.88c.078-5.256 2.538-9.989 6.418-12.353.355-.215.8-.217 1.154-.002a7.96 7.96 0 008.216 0 1.114 1.114 0 011.156.002c3.878 2.364 6.337 7.097 6.417 12.353zM9.12 5.307a2.563 2.563 0 002.56 2.56 2.563 2.563 0 002.561-2.56 2.563 2.563 0 00-2.56-2.562 2.563 2.563 0 00-2.56 2.562zm-2.225 0A4.792 4.792 0 0111.682.52a4.792 4.792 0 014.786 4.787 4.791 4.791 0 01-4.787 4.785 4.791 4.791 0 01-4.786-4.785zM2.243 23.96a15.637 15.637 0 0018.877 0c-.206-4.027-2.004-7.61-4.804-9.594a10.185 10.185 0 01-9.272 0c-2.799 1.983-4.597 5.567-4.802 9.594zm9.438 5.397c-4.097 0-8.1-1.423-11.272-4.008A1.112 1.112 0 010 24.47c.08-5.255 2.54-9.988 6.419-12.352.354-.215.8-.217 1.154-.002a7.958 7.958 0 008.215 0 1.114 1.114 0 011.156.002c3.878 2.364 6.339 7.097 6.418 12.353.005.34-.145.665-.41.88a17.891 17.891 0 01-11.27 4.007zM52.82 42.89c-.31.537-.99.712-1.52.407L29.759 30.86 8.22 43.297a1.111 1.111 0 11-1.113-1.927l21.54-12.436V4.061a1.113 1.113 0 012.225 0v24.873L52.41 41.37c.533.307.715.988.408 1.52z" fill="#AD132F"/></svg><svg fill="none" viewBox="0 0 71 65" id="questions-features-5-icon" xmlns="http://www.w3.org/2000/svg"><path d="M69.919 45.214l-9.845-9.845V25.25a1.098 1.098 0 00-1.097-1.097h-6.684c-.606 0-1.098.492-1.098 1.098v1.24l-4.769-4.769a1.098 1.098 0 00-1.553 0L21.402 45.213a1.099 1.099 0 001.553 1.554l22.719-22.719 5.844 5.867a1.098 1.098 0 001.871-.774v-2.793h4.49l-.001 9.477a1.1 1.1 0 00.324.773l10.169 10.17a1.098 1.098 0 101.553-1.554h-.005z" fill="#AD132F"/><path d="M60.88 42.563c-.606 0-1.097.492-1.097 1.098v19.01h-7.82V51.694a1.098 1.098 0 00-1.098-1.098H40.191c-.606 0-1.097.491-1.097 1.098V62.67h-7.815V43.661a1.098 1.098 0 00-2.195 0v20.107a1.099 1.099 0 001.098 1.097h10.01a1.098 1.098 0 001.097-1.097V52.792h8.479v10.976a1.099 1.099 0 001.097 1.097H60.88a1.098 1.098 0 001.098-1.097V43.66a1.098 1.098 0 00-1.098-1.098zm-42.677-6.541c-.606 0-1.098.492-1.098 1.098v26.643a1.097 1.097 0 102.195 0V37.12a1.099 1.099 0 00-1.097-1.098z" fill="#AD132F"/><path d="M13.313 50.153a6.802 6.802 0 01-8.09-5.795 6.807 6.807 0 011.505-5.213 1.097 1.097 0 00-.077-1.482 14.894 14.894 0 015.444-24.694c.56-.2.858-.808.675-1.372a6.584 6.584 0 1111.942 1.36 1.097 1.097 0 00.35 1.493 14.818 14.818 0 016.899 12.567c0 .717-.052 1.431-.154 2.14a1.109 1.109 0 002.195.314 17.28 17.28 0 00.176-2.454 17.012 17.012 0 00-7.08-13.845 8.781 8.781 0 10-16.671-1.91A17.129 17.129 0 000 27.012a16.946 16.946 0 004.478 11.524 9.004 9.004 0 009.241 13.769 1.1 1.1 0 00-.422-2.157l.016.005z" fill="#AD132F"/></svg><svg fill="none" viewBox="0 0 63 65" id="questions-features-6-icon" xmlns="http://www.w3.org/2000/svg"><path d="M46.952 11.121a10.123 10.123 0 10-20.247 0c0 5.59 4.536 14.153 10.124 14.153 5.588 0 10.123-8.564 10.123-14.153zm-18.745 0a8.622 8.622 0 0117.244 0c0 4.88-3.946 12.652-8.622 12.652s-8.622-7.771-8.622-12.652z" fill="#AD132F"/><path d="M42.084 11.009a5.257 5.257 0 00-8.972-3.717 5.258 5.258 0 003.716 8.973 5.265 5.265 0 005.256-5.256zm-9.01 0a3.755 3.755 0 117.51 0 3.755 3.755 0 01-7.51 0zM17.808 30.28v10.862l-.474.2a2.24 2.24 0 00-2.544-.589c-1.706.709-6.586 2.753-10.65 4.455a6.766 6.766 0 00-3.627 8.823l2.83 6.81a6.789 6.789 0 008.866 3.635l10.453-4.41a2.26 2.26 0 001.358-2.207l.717-.305a5.25 5.25 0 012.796-.365c5.518.827 14.985-1.084 19.864-4.008 4.741-2.86 9.28-6.04 13.585-9.52 4.25-3.42-.463-9.766-4.88-6.879l-.254.169v-6.67a3.76 3.76 0 00-3.753-3.755H21.56a3.76 3.76 0 00-3.753 3.754zm1.502 4.164a7.067 7.067 0 003.003.591 7.284 7.284 0 003.993-1.094 5.76 5.76 0 013.26-.908 5.781 5.781 0 013.267.908 7.825 7.825 0 007.983 0 6.329 6.329 0 016.533 0 7.281 7.281 0 003.991 1.094 7.075 7.075 0 003.009-.591v3.535c-1.425.992-3.192 2.248-4.455 3.14-.548-1.441-2.079-2.62-3.62-2.237-.488.111-.952.262-1.405.407-1.828.587-3.72 1.196-7.885-.397-7.873-3.014-15.703.738-16.29 1.03l-1.384.585v-6.063zm-7.683 28.648a5.28 5.28 0 01-6.897-2.826l-2.83-6.81a5.264 5.264 0 012.82-6.863l6.963-2.916 6.857 16.5-6.913 2.915zm10.452-4.41l-2.156.91-6.855-16.498 2.297-.958a.751.751 0 01.984.409L22.48 57.71a.75.75 0 01-.401.971zm34.865-20.654c2.88-1.838 5.876 2.208 3.099 4.463a115.918 115.918 0 01-13.415 9.402c-4.555 2.729-13.727 4.582-18.87 3.81a6.748 6.748 0 00-3.605.468l-.578.245-5.556-13.737 3.279-1.384c.163-.07 7.696-3.822 15.146-1.001 4.66 1.78 6.903 1.06 8.882.424.44-.142.855-.283 1.28-.373 1.177-.25 2.081 1.184 2.083 2.272 0 1.29-2.193 2.82-3.312 3.317-1.473.655-4.513.651-6.107.442a.75.75 0 10-.194 1.49c1.797.223 5.147.237 6.908-.56.041-.019 4.054-1.88 4.19-4.554 1.776-1.249 5.313-3.796 6.77-4.724zm-2.595-7.748v2.49c-.91.535-1.954.8-3.008.764a5.783 5.783 0 01-3.267-.908 7.828 7.828 0 00-7.983 0 6.33 6.33 0 01-6.533 0 7.819 7.819 0 00-7.978 0 5.776 5.776 0 01-3.266.908 5.558 5.558 0 01-3.004-.764v-2.49a2.254 2.254 0 012.253-2.252h30.534a2.254 2.254 0 012.252 2.252z" fill="#AD132F"/></svg><svg fill="none" viewBox="0 0 56 65" id="questions-features-7-icon" xmlns="http://www.w3.org/2000/svg"><path d="M13.902 16.583a6.885 6.885 0 006.88-6.879V7.88c.006-3.8-3.085-6.885-6.88-6.885-3.788 0-6.88 3.084-6.88 6.879v1.824c0 3.794 3.092 6.885 6.88 6.885zM8.88 7.873a5.028 5.028 0 015.023-5.023 5.028 5.028 0 015.024 5.024v1.824a5.028 5.028 0 01-5.024 5.023A5.028 5.028 0 018.88 9.698V7.874zm32.77 8.71a6.885 6.885 0 006.88-6.879V7.88c0-3.8-3.085-6.885-6.88-6.885a6.885 6.885 0 00-6.879 6.879v1.824c0 3.794 3.084 6.885 6.88 6.885zm-5.03-8.71a5.028 5.028 0 015.024-5.023 5.028 5.028 0 015.023 5.024v1.824a5.028 5.028 0 01-5.023 5.023 5.028 5.028 0 01-5.024-5.023V7.874zm16.619 28.363c.89-3.622 1.99-8.127 2.271-10.866.198-1.914-.441-3.795-1.792-5.299-1.529-1.696-3.807-2.707-6.105-2.707H35.685c-1.69 0-3.391.55-4.78 1.53a5.255 5.255 0 00-6.38-.096 8.27 8.27 0 00-4.652-1.44H7.938c-2.29 0-4.575 1.005-6.098 2.694C.483 21.555-.163 23.437.035 25.357c.288 2.803 1.35 7.116 2.285 10.924.21.87.422 1.702.608 2.483.492 2.067 1.657 3.43 3.2 3.82v17.911a4.498 4.498 0 004.492 4.493h3.218c.026 0 .052-.007.07-.007.026 0 .046.007.071.007h3.22a4.498 4.498 0 004.492-4.493V48.561c.012.006.025.006.031.013v12.889a3.535 3.535 0 003.532 3.532h2.349c.02 0 .032-.007.051-.007.02 0 .032.007.052.007h2.348a3.535 3.535 0 003.532-3.533V50.86h.282v9.643a4.498 4.498 0 004.493 4.493h3.218c.026 0 .045-.007.07-.007.026 0 .046.007.072.007h3.218a4.498 4.498 0 004.493-4.493V50.86h3.519a.942.942 0 00.717-.333.914.914 0 00.198-.761l-1.792-9.446c.237-.46.422-.979.557-1.542.172-.755.384-1.613.608-2.54v-.001zM31.072 23.04v1.33a3.42 3.42 0 01-3.417 3.418 3.42 3.42 0 01-3.417-3.417V23.04a3.42 3.42 0 013.417-3.417 3.424 3.424 0 013.417 3.417zm.66 38.415c0 .921-.75 1.676-1.677 1.676h-1.421V47.198a.929.929 0 00-1.856 0v15.934h-1.53a1.678 1.678 0 01-1.676-1.676V36.62a.929.929 0 00-1.856 0v9.771a1.93 1.93 0 01-.199-.3 3.29 3.29 0 01-.326-.877c-.134-.57-.288-1.184-.441-1.817-.672-2.726-1.434-5.817-1.632-7.756-.096-.94.23-1.882.909-2.636a4.457 4.457 0 013.263-1.44H32c1.228 0 2.45.537 3.27 1.446.684.755 1.004 1.69.908 2.63-.191 1.888-.985 5.12-1.619 7.711-.166.685-.326 1.318-.454 1.869-.083.345-.237.819-.525 1.17V36.62a.929.929 0 00-1.856 0v24.836h.007zm3.986-.96v-9.638h5.068v12.274h-2.432a2.641 2.641 0 01-2.636-2.636zm11.858 0a2.64 2.64 0 01-2.636 2.636h-2.291V50.858h4.927v9.638zm1.836-34.198a.924.924 0 00-1.081-.736.924.924 0 00-.736 1.082l4.242 22.353h-18.25v-.43c1.126-.364 1.97-1.395 2.33-2.924.127-.544.28-1.171.447-1.856.647-2.65 1.46-5.945 1.664-7.96.154-1.472-.34-2.912-1.376-4.064a6.24 6.24 0 00-1.67-1.299l.723-3.827a.925.925 0 10-1.818-.345l-.671 3.539a6.34 6.34 0 00-1.203-.122h-8.716c-.544 0-1.088.077-1.613.218v-3.463a.929.929 0 00-1.856 0v4.294a6.25 6.25 0 00-1.17.998c-1.037 1.152-1.53 2.592-1.383 4.064.211 2.067.986 5.221 1.67 8.012.154.633.307 1.241.442 1.804.109.449.255.845.441 1.203v13.638a2.64 2.64 0 01-2.636 2.636h-2.29V40.966a.929.929 0 00-1.857 0v22.166h-2.431a2.64 2.64 0 01-2.637-2.636V26.471a.929.929 0 00-.928-.928.933.933 0 00-.928.928v14.136c-.832-.474-1.222-1.555-1.395-2.272-.185-.78-.39-1.619-.608-2.49-.92-3.75-1.964-7.992-2.24-10.667-.14-1.388.333-2.764 1.338-3.878 1.177-1.306 2.944-2.086 4.722-2.086h11.928c1.184 0 2.349.339 3.36.96a5.24 5.24 0 00-.852 2.867v1.33a5.282 5.282 0 005.274 5.274 5.282 5.282 0 005.273-5.273V23.04a5.267 5.267 0 00-.781-2.759 6.524 6.524 0 013.539-1.068h11.936c1.779 0 3.551.78 4.729 2.093.998 1.107 1.471 2.482 1.325 3.865-.27 2.61-1.357 7.052-2.227 10.616-.045.179-.083.346-.129.518l-1.9-10.008z" fill="#AD132F"/></svg><svg fill="none" viewBox="0 0 56 65" id="questions-features-8-icon" xmlns="http://www.w3.org/2000/svg"><path d="M27.588 35.637A27.745 27.745 0 003.613 49.693 27.742 27.742 0 00.001 63.619a1.067 1.067 0 001.067 1.067H54.12a1.067 1.067 0 001.067-1.067 27.745 27.745 0 00-27.598-27.982zm1.484 11.323l2.038 15.593h-7.663l2.22-15.593h3.405zm1.718-8.953v6.83h-6.403v-6.83a23.812 23.812 0 016.403 0zm-8.538.32v7.566a1.068 1.068 0 001.067 1.068h.182l-2.199 15.592H2.092a25.784 25.784 0 0120.16-24.226zm10.992 24.225l-2.027-15.593h.64a1.067 1.067 0 001.067-1.067v-7.567a25.78 25.78 0 0120.117 24.226l-19.797.001zm-6.371-30.724a15.571 15.571 0 10-15.56-15.57 15.594 15.594 0 0015.56 15.57zm0-29.04a13.447 13.447 0 11-13.436 13.469A13.457 13.457 0 0126.874 2.789z" fill="#AD132F"/></svg><svg fill="none" viewBox="0 0 17 16" id="rating-icon" xmlns="http://www.w3.org/2000/svg"><path fill-rule="evenodd" clip-rule="evenodd" d="M9.109.478l1.97 4.31c.04.094.129.159.23.168l4.71.542a.81.81 0 01.456 1.405l-3.49 3.205a.28.28 0 00-.09.272l.94 4.646a.809.809 0 01-1.194.867l-4.128-2.33a.284.284 0 00-.285 0l-4.13 2.33a.81.81 0 01-1.193-.867l.94-4.646a.279.279 0 00-.09-.272L.266 6.902a.81.81 0 01.457-1.405l4.71-.542a.279.279 0 00.23-.167l1.97-4.31a.81.81 0 011.477 0z" fill="#FE7223"/></svg><svg fill="none" viewBox="0 0 12 20" id="slider-arrow-icon" xmlns="http://www.w3.org/2000/svg"><path fill-rule="evenodd" clip-rule="evenodd" d="M11.503.488a1.72 1.72 0 00-2.4 0L.616 8.821a1.646 1.646 0 000 2.357l8.487 8.334a1.72 1.72 0 002.4 0 1.646 1.646 0 000-2.357L4.217 10l7.286-7.155a1.646 1.646 0 000-2.357z" fill="#BFC4CC"/></svg><svg fill="none" viewBox="0 0 18 18" id="socials-1-icon" xmlns="http://www.w3.org/2000/svg"><path d="M9 0c2.445 0 2.75.009 3.71.054.958.045 1.61.195 2.185.418A4.388 4.388 0 0116.49 1.51c.457.45.812.994 1.038 1.595.222.573.373 1.227.418 2.185.042.96.054 1.265.054 3.71 0 2.445-.009 2.75-.054 3.71-.045.958-.196 1.61-.419 2.185a4.395 4.395 0 01-1.037 1.595 4.44 4.44 0 01-1.595 1.038c-.573.222-1.227.373-2.185.418-.96.042-1.265.054-3.71.054-2.445 0-2.75-.009-3.71-.054-.958-.045-1.61-.196-2.185-.419A4.402 4.402 0 011.51 16.49a4.414 4.414 0 01-1.038-1.595C.25 14.322.1 13.668.054 12.71.012 11.75 0 11.445 0 9c0-2.445.009-2.75.054-3.71s.195-1.61.418-2.185A4.392 4.392 0 011.51 1.51c.45-.458.994-.812 1.595-1.038C3.679.25 4.331.1 5.29.054 6.25.012 6.555 0 9 0zm0 4.5a4.5 4.5 0 100 9 4.5 4.5 0 000-9zm5.85-.225a1.125 1.125 0 10-2.25 0 1.125 1.125 0 002.25 0zM9 6.3a2.7 2.7 0 110 5.4 2.7 2.7 0 010-5.4z" fill="#AD132F"/><path d="M9 0c2.445 0 2.75.009 3.71.054.958.045 1.61.195 2.185.418A4.388 4.388 0 0116.49 1.51c.457.45.812.994 1.038 1.595.222.573.373 1.227.418 2.185.042.96.054 1.265.054 3.71 0 2.445-.009 2.75-.054 3.71-.045.958-.196 1.61-.419 2.185a4.395 4.395 0 01-1.037 1.595 4.44 4.44 0 01-1.595 1.038c-.573.222-1.227.373-2.185.418-.96.042-1.265.054-3.71.054-2.445 0-2.75-.009-3.71-.054-.958-.045-1.61-.196-2.185-.419A4.402 4.402 0 011.51 16.49a4.414 4.414 0 01-1.038-1.595C.25 14.322.1 13.668.054 12.71.012 11.75 0 11.445 0 9c0-2.445.009-2.75.054-3.71s.195-1.61.418-2.185A4.392 4.392 0 011.51 1.51c.45-.458.994-.812 1.595-1.038C3.679.25 4.331.1 5.29.054 6.25.012 6.555 0 9 0zm0 4.5a4.5 4.5 0 100 9 4.5 4.5 0 000-9zm5.85-.225a1.125 1.125 0 10-2.25 0 1.125 1.125 0 002.25 0zM9 6.3a2.7 2.7 0 110 5.4 2.7 2.7 0 010-5.4z" fill="#AD132F"/></svg><svg fill="none" viewBox="0 0 20 20" id="socials-2-icon" xmlns="http://www.w3.org/2000/svg"><path d="M10 20c5.523 0 10-4.477 10-10S15.523 0 10 0 0 4.477 0 10s4.477 10 10 10z" fill="#AD132F"/><path d="M13.815 5.925s1.04-.405.954.578c-.03.404-.29 1.82-.492 3.352l-.693 4.538s-.058.665-.578.78c-.52.116-1.3-.404-1.445-.52-.116-.087-2.168-1.387-2.89-2.023-.203-.173-.434-.52.029-.925l3.034-2.89c.347-.347.694-1.156-.751-.173l-4.047 2.745s-.462.29-1.329.03l-1.879-.579s-.693-.433.492-.867c2.89-1.358 6.445-2.746 9.595-4.046z" fill="#fff"/></svg><svg fill="none" viewBox="0 0 20 20" id="socials-3-icon" xmlns="http://www.w3.org/2000/svg"><path d="M17.742 1.95c-.524-.458-2.641-1.916-7.359-1.936 0 0-5.562-.318-8.274 2.041C.599 3.487.069 5.582.012 8.18c-.056 2.598-.128 7.466 4.82 8.785h.005l-.004 2.014s-.031.816.535.982c.685.202 1.087-.418 1.74-1.086a53.68 53.68 0 001.228-1.317c3.384.27 5.987-.347 6.282-.439.684-.21 4.55-.68 5.179-5.547.649-5.017-.314-8.19-2.055-9.62zm.574 9.261c-.53 4.064-3.667 4.32-4.245 4.496-.246.075-2.531.614-5.406.436 0 0-2.142 2.45-2.81 3.087-.105.1-.228.14-.31.12-.115-.026-.147-.155-.146-.345l.019-3.346c-4.186-1.102-3.942-5.245-3.894-7.415.047-2.17.477-3.947 1.754-5.142 2.293-1.97 7.018-1.676 7.018-1.676 3.99.017 5.903 1.156 6.346 1.538 1.472 1.195 2.222 4.056 1.674 8.246v.001z" fill="#AD132F"/><path d="M18.316 11.211c-.53 4.064-3.667 4.32-4.245 4.496-.246.075-2.531.614-5.406.436 0 0-2.142 2.45-2.81 3.087-.105.1-.228.14-.31.12-.115-.026-.147-.155-.146-.345l.019-3.346c-4.186-1.102-3.942-5.245-3.894-7.415.047-2.17.477-3.947 1.754-5.142 2.293-1.97 7.018-1.676 7.018-1.676 3.99.017 5.903 1.156 6.346 1.538 1.472 1.195 2.222 4.056 1.674 8.246v.001z" fill="#AD132F"/><path d="M12.325 8.319a.274.274 0 01-.183-.07.247.247 0 01-.083-.17c-.045-.859-.472-1.28-1.342-1.324a.272.272 0 01-.18-.085.245.245 0 01.02-.353.275.275 0 01.188-.067c1.15.06 1.788.682 1.847 1.803a.242.242 0 01-.07.183.268.268 0 01-.184.083h-.013z" fill="#fff"/><path d="M13.694 8.754h-.006a.274.274 0 01-.187-.078.246.246 0 01-.074-.18c.02-.865-.24-1.565-.796-2.14-.556-.577-1.314-.889-2.325-.959a.273.273 0 01-.182-.087.245.245 0 01.027-.357.277.277 0 01.194-.061c1.137.079 2.039.456 2.68 1.12.64.665.959 1.506.936 2.494a.247.247 0 01-.08.176.275.275 0 01-.187.072z" fill="#fff"/><path d="M15.095 9.273a.274.274 0 01-.188-.073.247.247 0 01-.079-.178c-.012-1.546-.482-2.728-1.435-3.61-.943-.87-2.133-1.317-3.54-1.327a.28.28 0 01-.188-.075.246.246 0 01-.077-.179c0-.067.028-.131.079-.178a.274.274 0 01.188-.074h.003c1.548.01 2.862.505 3.907 1.47 1.045.966 1.583 2.304 1.597 3.97a.247.247 0 01-.076.18.274.274 0 01-.188.075h-.003zm-4.311 2.181s.375.03.577-.206l.393-.47c.19-.232.648-.38 1.097-.144.336.182.663.38.978.593.298.207.91.69.91.69.29.233.357.574.16.934l-.002.008a3.945 3.945 0 01-.82.957l-.007.005c-.282.224-.56.35-.832.381a1.163 1.163 0 01-.475-.044l-.009-.012c-.42-.113-1.12-.394-2.287-1.004a13.696 13.696 0 01-1.921-1.204 9.935 9.935 0 01-.865-.727l-.029-.027-.029-.028-.029-.027-.029-.028a9.737 9.737 0 01-.766-.82 12.897 12.897 0 01-1.27-1.821c-.643-1.107-.94-1.771-1.058-2.17l-.013-.008a1 1 0 01-.047-.45c.034-.259.168-.522.403-.79.002-.004.004-.004.006-.007.29-.308.63-.57 1.009-.777l.007-.002c.38-.187.74-.124.985.15.002.002.51.58.728.863.225.3.433.61.625.928.25.426.093.861-.152 1.04l-.496.374c-.25.191-.217.547-.217.547s.734 2.633 3.475 3.296z" fill="#fff"/></svg><svg fill="none" viewBox="0 0 20 20" id="socials-4-icon" xmlns="http://www.w3.org/2000/svg"><path d="M.004 20l1.352-4.968A9.954 9.954 0 010 10C0 4.477 4.477 0 10 0s10 4.477 10 10-4.477 10-10 10a9.953 9.953 0 01-5.03-1.355L.004 20zM6.391 5.308a.961.961 0 00-.371.1 1.293 1.293 0 00-.294.228c-.12.113-.188.211-.261.306A2.729 2.729 0 004.9 7.62c.002.49.13.967.33 1.413.409.902 1.082 1.857 1.971 2.742.214.213.423.427.648.626a9.448 9.448 0 003.84 2.046l.569.087c.185.01.37-.004.556-.013a1.99 1.99 0 00.833-.231 4.83 4.83 0 00.383-.22s.043-.028.125-.09c.135-.1.218-.171.33-.288.083-.086.155-.187.21-.302.078-.163.156-.474.188-.733.024-.198.017-.306.014-.373-.004-.107-.093-.218-.19-.265l-.582-.261s-.87-.379-1.401-.621a.498.498 0 00-.177-.041.482.482 0 00-.378.127v-.002c-.005 0-.072.057-.795.933a.35.35 0 01-.368.13 1.418 1.418 0 01-.191-.066c-.124-.052-.167-.072-.252-.109l-.005-.002a6.011 6.011 0 01-1.57-1c-.126-.11-.243-.23-.363-.346a6.298 6.298 0 01-1.02-1.268l-.059-.095a.923.923 0 01-.102-.205c-.038-.147.061-.265.061-.265s.243-.266.356-.41a4.38 4.38 0 00.263-.373c.118-.19.155-.385.093-.536-.28-.684-.57-1.365-.868-2.041-.059-.134-.234-.23-.393-.249a4.439 4.439 0 00-.162-.016 3.385 3.385 0 00-.403.004v.001z" fill="#AD132F"/></svg><svg fill="none" viewBox="0 0 28 28" id="wa-icon" xmlns="http://www.w3.org/2000/svg"><path d="M2.338 25.667l1.577-5.796A11.613 11.613 0 012.333 14C2.333 7.556 7.556 2.333 14 2.333S25.667 7.556 25.667 14c0 6.443-5.224 11.667-11.667 11.667a11.613 11.613 0 01-5.868-1.581l-5.794 1.58zM9.79 8.526c-.151.01-.298.049-.433.117a1.508 1.508 0 00-.343.266c-.14.131-.22.246-.305.357a3.184 3.184 0 00-.659 1.957c.002.572.152 1.128.385 1.649.477 1.052 1.262 2.166 2.3 3.199.25.248.493.498.756.73a11.023 11.023 0 004.48 2.387l.663.102c.216.011.432-.005.649-.016.34-.017.671-.11.972-.27.194-.102.285-.153.447-.256 0 0 .05-.032.145-.105.158-.116.255-.2.386-.336.096-.1.18-.218.244-.352.091-.19.183-.553.22-.855.028-.231.02-.357.016-.435-.005-.125-.108-.255-.222-.31l-.678-.304s-1.015-.442-1.635-.725a.582.582 0 00-.207-.047.562.562 0 00-.44.148v-.003c-.006 0-.084.067-.928 1.089a.408.408 0 01-.43.152 1.657 1.657 0 01-.222-.077c-.145-.061-.195-.084-.294-.128l-.006-.002a7.013 7.013 0 01-1.832-1.167c-.147-.128-.283-.268-.423-.403a7.35 7.35 0 01-1.19-1.48l-.069-.11a1.077 1.077 0 01-.119-.24c-.044-.171.071-.309.071-.309s.284-.31.415-.478c.11-.14.213-.285.307-.435.138-.222.181-.45.109-.626a97.136 97.136 0 00-1.013-2.38c-.069-.157-.273-.27-.458-.291a5.817 5.817 0 00-.19-.019 3.95 3.95 0 00-.47.005z" fill="#fff"/></svg></svg>