<svg width="59" height="59" fill="none" xmlns="http://www.w3.org/2000/svg"><path d="M29.5 54.083c13.577 0 24.583-11.006 24.583-24.583 0-13.577-11.006-24.583-24.583-24.583-13.577 0-24.583 11.006-24.583 24.583 0 13.577 11.006 24.583 24.583 24.583Z" fill="#AD132F"/><path d="M40.563 28.476c.004 1.73-.4 3.437-1.18 4.982a11.145 11.145 0 0 1-9.965 6.162c-1.73.005-3.438-.4-4.982-1.18l-7.474 2.491 2.492-7.473a10.987 10.987 0 0 1-1.18-4.982 11.144 11.144 0 0 1 6.162-9.965 10.988 10.988 0 0 1 4.982-1.18h.656a11.118 11.118 0 0 1 10.488 10.49v.655Z" fill="#fff"/></svg>