<svg width="59" height="59" fill="none" xmlns="http://www.w3.org/2000/svg"><path d="M29.5 54.083c13.577 0 24.583-11.006 24.583-24.583 0-13.577-11.006-24.583-24.583-24.583-13.577 0-24.583 11.006-24.583 24.583 0 13.577 11.006 24.583 24.583 24.583Z" fill="#AD132F"/><path d="M38.879 19.482s2.557-.995 2.344 1.42c-.07.995-.71 4.477-1.207 8.242L38.31 40.3s-.142 1.635-1.42 1.919c-1.28.284-3.198-.995-3.553-1.28-.285-.212-5.329-3.41-7.105-4.973-.497-.426-1.066-1.278.07-2.273l7.461-7.105c.853-.853 1.705-2.842-1.847-.426l-9.947 6.75s-1.137.71-3.268.07l-4.619-1.42s-1.705-1.066 1.208-2.132c7.105-3.34 15.844-6.75 23.589-9.947Z" fill="#fff"/></svg>