<svg width="59" height="59" fill="none" xmlns="http://www.w3.org/2000/svg"><path d="M29.5 51.256c12.423 0 22.494-10.07 22.494-22.494C51.994 16.34 41.923 6.27 29.5 6.27S7.006 16.339 7.006 28.762c0 12.423 10.071 22.494 22.494 22.494Z" fill="#fff"/><path d="M4.927 54.083 8.25 41.87A24.47 24.47 0 0 1 4.917 29.5c0-13.577 11.006-24.583 24.583-24.583 13.577 0 24.583 11.006 24.583 24.583 0 13.577-11.006 24.583-24.583 24.583a24.47 24.47 0 0 1-12.365-3.33l-12.208 3.33Zm15.7-36.117c-.316.02-.627.103-.911.245-.267.151-.51.34-.723.56-.295.279-.462.52-.641.753a6.708 6.708 0 0 0-1.39 4.125c.006 1.205.32 2.377.812 3.474 1.005 2.217 2.66 4.565 4.845 6.74.526.524 1.04 1.05 1.593 1.54a23.227 23.227 0 0 0 9.44 5.03l1.399.213c.455.025.91-.01 1.367-.032a4.89 4.89 0 0 0 2.048-.568c.408-.216.6-.324.941-.54 0 0 .106-.07.307-.222.332-.246.536-.42.812-.708.204-.211.38-.46.516-.742.192-.4.383-1.166.462-1.802.06-.487.042-.752.035-.917-.01-.263-.23-.536-.468-.652l-1.43-.641s-2.14-.932-3.444-1.527a1.225 1.225 0 0 0-.436-.1 1.185 1.185 0 0 0-.929.312v-.005c-.012 0-.177.14-1.954 2.293a.86.86 0 0 1-.905.32 3.496 3.496 0 0 1-.47-.162c-.304-.128-.41-.177-.619-.268l-.012-.005a14.778 14.778 0 0 1-3.86-2.459c-.31-.27-.597-.565-.892-.85a15.483 15.483 0 0 1-2.508-3.117l-.145-.234a2.262 2.262 0 0 1-.25-.504c-.094-.361.15-.651.15-.651s.597-.654.875-1.008c.231-.294.447-.6.646-.917.29-.467.381-.947.229-1.318a204.421 204.421 0 0 0-2.134-5.017c-.145-.33-.575-.566-.966-.612-.133-.015-.266-.03-.398-.04a8.312 8.312 0 0 0-.991.01v.002Z" fill="#AD132F"/></svg>