<?xml version="1.0" standalone="no"?>
<!DOCTYPE svg PUBLIC "-//W3C//DTD SVG 20010904//EN"
 "http://www.w3.org/TR/2001/REC-SVG-20010904/DTD/svg10.dtd">
<svg version="1.0" xmlns="http://www.w3.org/2000/svg"
 width="704.000000pt" height="704.000000pt" viewBox="0 0 704.000000 704.000000"
 preserveAspectRatio="xMidYMid meet">
<metadata>
Created by potrace 1.14, written by Peter Selinger 2001-2017
</metadata>
<g transform="translate(0.000000,704.000000) scale(0.100000,-0.100000)"
fill="#000000" stroke="none">
<path d="M219 5690 c-1 -3 -2 -456 -3 -1007 l-1 -1003 50 -1 c59 -1 159 -1
163 1 4 2 131 1 140 -1 4 -1 10 -1 14 0 9 1 95 1 213 1 55 0 136 0 180 0 44 0
101 0 128 -1 26 0 52 3 57 6 6 3 10 3 10 -2 0 -4 26 -7 57 -6 258 9 394 36
542 111 49 24 68 39 136 107 100 100 143 209 143 365 0 147 -46 259 -141 345
-48 44 -167 116 -199 121 -5 1 -11 2 -15 3 -5 1 13 15 39 31 152 96 233 253
224 436 -7 147 -50 235 -166 338 -68 61 -212 119 -349 141 -19 3 -39 9 -45 13
-13 8 -1175 10 -1177 2z m1018 -415 c22 -4 57 -20 76 -36 100 -83 88 -257 -23
-319 -44 -24 -51 -25 -274 -28 -143 -2 -231 0 -235 6 -4 7 -6 380 -2 388 3 5
425 -5 458 -11z m93 -785 c95 -25 142 -88 142 -190 0 -65 -19 -117 -58 -153
-54 -50 -91 -56 -376 -57 l-263 -1 2 183 c1 101 2 194 2 208 l1 25 252 -1
c165 -1 269 -6 298 -14z"/>
<path d="M2750 4800 c0 -3 -23 -5 -51 -5 -43 0 -52 -4 -65 -25 -15 -27 -66
-139 -70 -155 -2 -9 -24 -59 -88 -200 -17 -37 -41 -91 -97 -220 -24 -55 -48
-103 -54 -107 -5 -4 -7 -8 -3 -8 3 0 -18 -55 -49 -122 -54 -121 -75 -168 -78
-178 -1 -3 -9 -23 -18 -45 -18 -42 -19 -62 -2 -57 16 6 183 4 193 -1 4 -3 14
-2 21 3 8 4 26 4 41 0 15 -4 32 -5 37 -1 5 3 29 54 52 112 l43 106 238 0 238
0 35 -91 c19 -50 38 -99 41 -109 4 -14 15 -18 38 -17 18 1 36 1 41 0 9 -2 104
-2 115 0 4 1 37 1 75 0 37 -1 67 1 67 4 0 4 -136 315 -182 416 -11 25 -38 86
-60 135 -22 50 -48 108 -58 130 -10 22 -55 123 -100 225 -44 102 -87 191 -94
198 -12 13 -206 24 -206 12z m80 -387 c12 -32 28 -71 35 -88 7 -16 21 -50 30
-75 10 -25 23 -59 31 -77 8 -17 14 -34 14 -37 0 -3 -63 -5 -140 -5 -77 1 -140
3 -140 5 0 4 56 148 69 179 11 23 20 52 21 63 1 4 7 16 14 27 7 11 16 33 20
48 9 37 19 28 46 -40z"/>
<path d="M3625 4800 l-40 -5 -2 -552 c-1 -332 3 -555 8 -559 8 -4 139 -7 199
-3 8 0 53 1 100 0 47 0 92 0 100 0 12 0 252 0 325 0 11 0 67 0 125 0 58 1 112
0 120 0 77 -2 112 -1 120 4 6 3 10 3 10 -2 0 -4 48 -7 107 -5 149 3 237 4 248
2 6 -1 20 -2 33 -1 l22 1 0 560 -1 560 -37 1 c-20 1 -41 1 -45 0 -14 -2 -50
-2 -135 0 -45 1 -85 -1 -88 -4 -3 -3 -7 -198 -7 -434 l-2 -428 -142 -2 -143
-2 -1 32 c0 18 -1 213 -1 434 l0 401 -65 4 c-35 2 -71 1 -80 -3 -8 -3 -36 -3
-62 1 -25 3 -59 3 -76 0 l-30 -5 1 -433 0 -432 -145 2 -146 3 0 427 c0 235 -3
430 -7 433 -8 8 -167 9 -175 2 -3 -3 -15 -2 -27 2 -11 4 -39 4 -61 1z"/>
<path d="M768 3495 c-2 -2 -41 -5 -88 -8 -47 -4 -94 -8 -105 -10 -11 -3 -40
-8 -65 -12 -111 -17 -353 -99 -388 -130 -10 -9 -11 -18 -4 -31 14 -27 23 -49
92 -229 35 -88 64 -161 65 -163 1 -1 24 7 51 19 27 12 54 23 59 25 6 2 42 14
82 28 39 14 82 27 95 30 12 3 33 7 44 10 129 28 280 27 397 -5 152 -41 208
-177 114 -277 -43 -45 -112 -64 -227 -62 -8 0 -111 0 -227 -1 l-213 -2 1 -208
1 -209 267 0 c339 -1 361 -3 429 -37 70 -35 95 -74 93 -145 -3 -134 -156 -219
-400 -221 -216 -2 -404 38 -589 126 -29 14 -32 10 -77 -103 -21 -52 -49 -120
-63 -150 -14 -30 -24 -56 -23 -58 1 -1 -5 -15 -14 -32 -22 -42 -20 -47 32 -70
47 -21 223 -88 253 -96 202 -53 341 -71 530 -68 147 2 183 5 280 25 30 5 66
12 80 15 43 8 153 46 210 73 240 111 367 291 359 508 -6 163 -82 294 -229 396
-25 17 -50 32 -56 33 -6 1 -24 10 -39 20 l-27 18 39 19 c54 28 155 134 182
193 70 146 65 306 -13 438 -23 38 -88 110 -132 146 -29 23 -144 90 -156 90 -5
0 -22 6 -36 14 -110 57 -290 94 -489 100 -51 2 -94 2 -95 1z"/>
<path d="M5037 2584 c-1 -1 -30 -4 -63 -8 -280 -29 -500 -237 -530 -502 -9
-73 -9 -85 1 -159 26 -211 182 -392 398 -464 140 -47 340 -43 464 9 95 41 103
45 103 52 0 5 7 8 15 8 22 0 147 129 178 183 28 52 64 146 71 187 3 14 5 25 6
25 5 0 2 138 -4 180 -9 62 -51 170 -82 212 -13 17 -24 34 -24 38 0 18 -170
166 -170 148 0 -4 -4 -3 -8 2 -10 15 -77 45 -142 64 -41 12 -205 31 -213 25z
m146 -288 c82 -36 156 -130 172 -221 29 -156 -32 -294 -160 -365 -53 -30 -177
-35 -244 -10 -65 25 -125 81 -158 148 -25 50 -28 68 -28 152 0 83 3 102 27
151 41 83 119 145 203 162 42 9 152 -2 188 -17z"/>
<path d="M2456 2560 c-21 -3 -43 -12 -47 -20 -18 -32 -78 -163 -85 -183 -4
-12 -19 -49 -34 -82 -15 -33 -45 -98 -65 -145 -21 -47 -44 -101 -53 -120 -9
-19 -15 -38 -14 -42 1 -5 -2 -8 -8 -8 -5 0 -10 -6 -10 -14 0 -7 -19 -53 -41
-102 -37 -80 -59 -130 -64 -144 -4 -12 -25 -60 -54 -122 -16 -37 -37 -83 -45
-102 l-14 -35 27 1 c16 1 33 -2 40 -6 6 -4 11 -3 11 2 0 6 14 7 35 2 20 -4 38
-4 41 1 3 5 10 7 15 4 8 -6 70 -8 127 -6 18 1 28 12 43 49 12 26 26 61 33 77
8 17 19 44 27 61 l13 31 238 0 c131 0 238 -4 238 -9 0 -5 9 -28 20 -50 11 -23
20 -45 20 -49 0 -4 10 -30 22 -57 19 -44 27 -51 55 -54 18 -2 33 -1 33 3 0 4
16 3 35 -1 20 -4 38 -4 41 1 3 5 10 6 16 3 11 -7 157 -8 164 -1 3 3 -6 29 -20
58 -45 100 -73 163 -146 329 -40 91 -83 190 -97 220 -14 30 -31 69 -38 85 -37
84 -67 153 -125 283 -61 138 -64 142 -94 143 -17 0 -69 1 -116 2 -47 1 -103 0
-124 -3z m184 -490 c34 -85 64 -161 67 -167 4 -10 -27 -13 -136 -13 -152 0
-154 1 -127 52 8 14 24 53 36 85 12 32 27 72 35 88 7 17 21 51 31 77 11 26 22
44 26 40 3 -4 34 -77 68 -162z"/>
<path d="M3352 2557 c-10 -14 -10 -1102 0 -1112 6 -6 187 -10 214 -4 5 1 11 1
14 -1 3 -1 22 -2 43 -3 l37 -2 0 218 0 217 73 0 72 0 80 -136 c44 -75 87 -148
95 -163 80 -140 71 -134 190 -131 30 0 61 1 68 0 20 0 44 0 100 0 30 0 58 -2
63 -6 17 -10 7 21 -19 63 -29 46 -140 227 -157 255 -5 10 -44 74 -86 142 l-77
123 108 169 c60 93 113 174 119 181 6 7 11 14 11 17 0 2 25 42 55 87 38 59 51
85 42 91 -6 4 -16 3 -20 -1 -5 -5 -23 -5 -40 -1 -18 3 -44 3 -58 -1 -15 -3
-32 -3 -39 1 -7 4 -25 4 -40 0 -15 -4 -33 -4 -40 0 -7 4 -26 4 -42 0 -15 -5
-32 -8 -36 -8 -4 1 -33 -41 -64 -93 -31 -51 -62 -100 -67 -109 -6 -8 -40 -62
-75 -120 l-64 -105 -73 0 -74 0 -5 215 -5 215 -30 3 c-40 3 -109 2 -113 -3 -2
-2 -16 0 -30 4 -15 5 -36 5 -47 1 -11 -4 -32 -4 -47 1 -17 5 -30 3 -36 -4z"/>
<path d="M5945 2562 c-3 -3 -25 -5 -49 -3 l-43 2 1 -555 c1 -305 4 -557 8
-561 8 -8 111 -10 124 -2 6 3 16 2 23 -3 8 -4 26 -4 42 0 15 5 43 5 62 0 19
-4 40 -4 46 -1 7 5 12 81 13 221 l3 215 208 1 c229 0 225 1 220 -61 -1 -16 -2
-59 -2 -95 0 -235 1 -272 12 -276 20 -7 187 -9 187 -2 0 3 12 3 26 -1 15 -4
41 -5 59 -3 l33 4 -2 556 -1 557 -27 0 c-15 1 -30 4 -33 7 -4 3 -20 2 -36 -2
-16 -5 -31 -5 -34 0 -3 4 -20 5 -37 1 -18 -4 -46 -4 -63 -1 -16 3 -42 4 -56 2
l-27 -4 0 -181 c0 -100 -1 -194 -1 -209 l-1 -28 -215 0 -215 0 0 209 c0 223 0
224 -50 211 -14 -3 -40 -3 -58 1 -17 4 -34 3 -37 -1 -3 -4 -20 -4 -39 0 -19 4
-38 5 -41 2z"/>
</g>
</svg>
