<svg width="46" height="61" viewBox="0 0 46 61" fill="none" xmlns="http://www.w3.org/2000/svg">
<path fill-rule="evenodd" clip-rule="evenodd" d="M8.86972 0.199951H36.7972C37.5179 0.199951 38.0586 0.740683 38.0586 1.46133V3.44344C38.0586 3.62382 38.0586 3.80379 37.8782 3.98417H43.8241C44.5448 3.98417 45.2655 4.5249 45.2655 5.24555C45.2655 9.38978 44.7247 12.9932 43.1034 16.0561C41.662 18.759 39.4999 21.101 35.8964 23.0831C34.9953 27.7676 31.3918 31.5514 26.8873 32.8128C26.8873 33.8939 26.1666 34.7949 25.2655 35.1552V42.1822H27.4276V44.7046H34.2742V54.9747H37.1569V60.2H8.50838V54.9747H11.3911V44.7046H18.2377V42.1822H20.3998V35.1552C19.4987 34.7949 18.778 33.8939 18.5981 32.8128C14.0935 31.5514 10.6705 27.7679 9.76943 23.0831C6.16594 21.101 3.82351 18.759 2.38214 16.0561C0.940767 12.9929 0.400024 9.38945 0.400024 5.24555C0.400024 4.52485 0.940757 3.98417 1.6614 3.98417H7.60732V3.44344V1.46133C7.60732 0.740629 8.14805 0.199951 8.86869 0.199951L8.86972 0.199951ZM23.4634 13.7126L24.5445 17.1361H27.968C28.6887 17.1361 28.8691 17.8568 28.5087 18.2172L25.626 20.3793L26.707 23.8028C26.8874 24.3435 26.1663 24.8838 25.626 24.3435L22.7432 22.3614L20.0404 24.5235C19.4996 24.8838 18.779 24.3431 18.9593 23.6224L20.0404 20.3792L17.1576 18.2171C16.6169 17.8568 16.9772 17.1361 17.518 17.1361H21.1215L22.2025 13.7126C22.3829 13.1719 23.2836 13.1719 23.4639 13.7126L23.4634 13.7126ZM36.0761 6.68565V19.8383C38.2382 18.3969 39.8599 16.7751 40.7607 14.7935C42.022 12.451 42.3825 9.7486 42.5624 6.68543L36.0761 6.68565ZM9.58971 19.8383V6.68565H3.10348C3.10348 9.74882 3.64421 12.4511 4.72528 14.7937C5.80634 16.7758 7.24771 18.3972 9.59014 19.8385L9.58971 19.8383ZM22.7424 11.37C26.8866 11.37 30.3097 14.7935 30.3097 18.9373C30.3097 23.0815 26.8862 26.5045 22.7424 26.5045C18.5982 26.5045 15.3551 23.0811 15.3551 18.9373C15.3551 14.793 18.5983 11.37 22.7424 11.37Z" fill="#AD132F"/>
</svg>
