<svg width="80" height="81" viewBox="0 0 80 81" fill="none" xmlns="http://www.w3.org/2000/svg">
<path d="M6.79609 67.4188C6.85078 67.4266 6.90658 67.4305 6.96239 67.43C7.58739 67.4266 8.11361 66.9629 8.19564 66.3435L10.6745 47.6451C10.7576 47.0285 11.0132 46.4487 11.4116 45.971C11.8095 45.4933 12.3346 45.1378 12.9256 44.9447L27.5369 40.2199L27.8254 44.2299C27.8561 44.6579 28.1039 45.0407 28.4822 45.2433L30.7489 46.4548L30.3075 47.7332H30.307C30.0815 48.3855 30.4269 49.097 31.0787 49.3231C31.211 49.3683 31.3494 49.3917 31.4889 49.3917C32.0196 49.3928 32.4933 49.0586 32.6708 48.558L33.4609 46.2712L33.4604 46.2717C33.6613 45.6908 33.4102 45.0502 32.8689 44.76L30.269 43.3716L29.9621 39.0932L31.322 37.9448L34.2422 44.5715L35.8789 48.2846V48.2851C36.1746 48.8839 36.8883 49.1445 37.5 48.8772C38.1122 48.6099 38.4057 47.9085 38.1674 47.2851L36.8622 44.3001L39.9124 41.015L42.9408 44.0317L41.5123 47.2732C41.2734 47.8965 41.567 48.598 42.1791 48.8653C42.7907 49.1326 43.505 48.872 43.8002 48.2733L48.3622 37.9364L49.7221 39.0848L49.4152 43.3632L46.8154 44.7516C46.2735 45.0412 46.0224 45.6824 46.2239 46.2633L47.014 48.5501C47.2395 49.2025 47.9515 49.5484 48.6039 49.323C49.2568 49.0976 49.6027 48.3861 49.3773 47.7332L48.9342 46.4547L51.2009 45.2432H51.2004C51.5821 45.0423 51.8337 44.6595 51.8672 44.2298L52.1557 40.2199L66.767 44.943C67.358 45.1366 67.8825 45.4921 68.281 45.9703C68.6789 46.448 68.9339 47.0283 69.017 47.645L71.4936 66.3434C71.5762 66.9645 72.1052 67.4288 72.7319 67.4299C72.7877 67.4305 72.8435 67.4265 72.8987 67.4187C73.5829 67.3278 74.0644 66.6994 73.9735 66.0153L71.4802 47.324C71.3351 46.2398 70.8876 45.2186 70.1884 44.377C69.4897 43.5355 68.5678 42.9078 67.5288 42.5656L51.6304 37.4257L48.9267 35.1578L47.9702 33.9045V30.0708C50.4195 26.7573 52.0516 22.9119 52.7336 18.8478C53.1817 18.1558 53.5573 17.4198 53.8553 16.6514C53.987 16.3182 54.1304 15.9349 54.2403 15.5465C56.6783 7.02484 52.4222 1.96632 52.2386 1.75475C52.0014 1.48355 51.6588 1.32674 51.2989 1.32451C50.9395 1.32618 50.5986 1.48076 50.3603 1.74973C50.3486 1.76312 49.1187 3.11802 47.9089 2.88644C47.1901 2.72962 46.4831 2.5254 45.7923 2.27484C45.414 2.14649 45.0289 2.01647 44.6071 1.88813C42.6109 1.26704 40.529 0.964596 38.4385 0.991381C35.145 0.991381 27.2885 1.68613 25.4287 8.12975C24.6078 10.9304 24.7138 13.9221 25.7306 16.6581C25.9951 17.4125 26.3355 18.1385 26.7473 18.8244C27.4432 23.0442 29.1726 27.0263 31.7807 30.4164V33.8745L30.8822 35.0514L28.0491 37.4381L12.1564 42.5659C11.1151 42.9063 10.1916 43.5335 9.49129 44.375C8.79042 45.2165 8.34175 46.2389 8.19611 47.3243L5.72127 66.0156C5.67719 66.3442 5.76591 66.6768 5.96793 66.9402C6.16938 67.2036 6.46736 67.3755 6.7966 67.419L6.79609 67.4188ZM39.7372 34.8234C41.8394 34.7815 43.8628 34.0159 45.467 32.6571V33.6454L39.8705 37.6822L34.2807 33.6571V32.8452C35.832 34.0879 37.75 34.7832 39.7371 34.8235L39.7372 34.8234ZM35.759 41.8133L33.2339 36.0818L33.2824 36.0199L37.9922 39.4083L35.759 41.8133ZM41.7975 39.3736L46.4442 36.0221L46.4592 36.0422L44.0178 41.5857L41.7975 39.3736ZM29.1525 18.111C29.1307 18.0368 29.1028 17.9642 29.0688 17.8945C29.0442 17.8119 29.0107 17.7326 28.9689 17.6579C28.9689 17.6495 28.9689 17.6394 28.9572 17.6311C28.595 17.0558 28.2998 16.4408 28.0788 15.798C27.2468 13.5608 27.1597 11.115 27.8305 8.8243C29.2206 4.01134 35.7121 3.4912 38.4387 3.4912C40.2797 3.46274 42.1134 3.7278 43.8705 4.27635C44.2639 4.398 44.6339 4.52301 44.9921 4.64298C45.7851 4.92981 46.597 5.16306 47.4224 5.3394C48.6992 5.53694 50.0022 5.2105 51.0357 4.43428C52.6941 7.66025 52.9804 11.4192 51.8303 14.8595C51.7951 14.9845 51.7538 15.1095 51.712 15.2311C51.294 14.1435 50.4676 13.2624 49.409 12.7763C48.7957 12.5592 48.12 12.6094 47.5457 12.9147C45.0139 14.4308 42.0268 14.9984 39.1155 14.5162C36.927 14.3226 34.7824 13.7869 32.7607 12.9281C32.1508 12.6418 31.4242 12.8835 31.1073 13.4778C30.7435 14.0905 30.3144 14.6625 29.8272 15.1826C29.3674 15.6977 29.4115 16.4884 29.9265 16.9487C30.4416 17.4091 31.2323 17.3645 31.6921 16.8494C32.119 16.3712 32.4504 15.9493 32.7004 15.6078C34.6887 16.3332 36.7607 16.8025 38.8672 17.0045C42.2255 17.5486 45.6685 16.8879 48.587 15.1396C48.587 15.1396 49.0139 15.3276 49.6038 16.6178C49.8699 17.2015 50.0926 17.8037 50.2706 18.4197C49.0809 25.1596 44.7707 32.3213 39.7406 32.3213C34.6475 32.3213 30.2858 24.963 29.1675 18.1445C29.1614 18.1339 29.1564 18.1227 29.1525 18.111Z" fill="#AD132F"/>
<path d="M78.7497 68.3417H16.9446V50.7233L19.6366 49.3232C20.1996 49.788 20.9061 50.0436 21.6365 50.047C22.4875 50.047 23.3039 49.7093 23.9055 49.1078C24.5076 48.5068 24.8463 47.6904 24.8463 46.8394C24.8469 45.9884 24.5087 45.172 23.9072 44.5704C23.3056 43.9683 22.4898 43.6301 21.6388 43.6301C20.7878 43.6301 19.9714 43.9677 19.3698 44.5693C18.7677 45.1714 18.4295 45.9873 18.4295 46.8383C18.4295 46.9331 18.4496 47.0235 18.458 47.1167L15.1199 48.8517C14.7086 49.0688 14.4513 49.4968 14.453 49.9616V68.3415H1.24999C0.559709 68.3415 0 68.9012 0 69.5915V79.7398C0 80.4301 0.559709 80.9898 1.24999 80.9898C1.94027 80.9898 2.49998 80.4301 2.49998 79.7398V70.8414H77.4993V79.7398C77.4993 80.4301 78.059 80.9898 78.7493 80.9898C79.4396 80.9898 79.9993 80.4301 79.9993 79.7398V69.5915C79.9993 68.9012 79.4396 68.3415 78.7493 68.3415L78.7497 68.3417ZM21.6402 46.1376C21.9265 46.1371 22.1854 46.3089 22.2959 46.5734C22.4059 46.8385 22.3456 47.1432 22.143 47.3463C21.941 47.5489 21.6358 47.6097 21.3713 47.5003C21.1062 47.391 20.9332 47.1326 20.9332 46.8458C20.9332 46.6583 21.0074 46.478 21.1397 46.3452C21.2725 46.2124 21.4522 46.1376 21.6402 46.1376Z" fill="#AD132F"/>
<path d="M56.5285 67.4302C57.2188 67.4302 57.7785 66.871 57.7785 66.1802V52.3606C57.7785 51.6703 57.2188 51.1106 56.5285 51.1106H23.1945C22.5042 51.1106 21.9445 51.6703 21.9445 52.3606V66.1802C21.9445 66.871 22.5042 67.4302 23.1945 67.4302C23.8848 67.4302 24.4445 66.871 24.4445 66.1802V53.6106H55.2771V66.1802H55.2776C55.2776 66.871 55.8373 67.4302 56.5276 67.4302H56.5285Z" fill="#AD132F"/>
</svg>
