<svg width="63" height="60" viewBox="0 0 63 60" fill="none" xmlns="http://www.w3.org/2000/svg">
<path d="M61.5211 28.6112C62.2676 27.2492 62.4099 25.6671 61.9298 24.2407C61.8167 23.8296 59.4366 12.1088 59.2744 11.7136C58.3281 9.22934 55.3707 7.9561 52.682 8.87611C51.3022 9.34728 50.1734 10.3402 49.5802 11.5999C49.0738 12.6777 48.989 13.862 49.3357 14.9685L50.4843 23.0498C47.9668 22.0831 45.0273 23.1276 43.7566 25.4517L37.5287 36.859C36.5134 38.7144 35.9842 40.7494 36.009 42.827L36.0978 50.5884L35.1981 50.8949C34.6248 51.0903 34.1561 51.5104 33.9027 52.0595C33.6472 52.6085 33.6269 53.2369 33.8451 53.8013L35.7025 58.5829C36.1335 59.7028 37.3958 60.2627 38.4933 59.8804L58.8906 52.9081C59.464 52.7127 59.9327 52.2926 60.1861 51.7436C60.4415 51.1945 60.4619 50.5662 60.2436 50.0017L58.3862 45.2201C57.9775 44.1692 56.8462 43.6315 55.7774 43.8979L54.8242 41.614C54.7131 41.3452 54.7418 41.0272 54.9065 40.7297L61.5211 28.6112ZM40.4521 42.7579C40.4412 41.4401 40.7765 40.1785 41.4252 38.9871L47.6555 27.5798C47.8445 27.1598 49.1221 26.7977 49.1221 27.6086L44.8027 35.5188C44.214 36.5966 44.6117 37.9476 45.687 38.5338C46.7623 39.1205 48.1158 38.7228 48.702 37.6495C48.702 37.6495 54.3015 27.3885 54.4923 27.0264C55.2189 25.6932 55.3722 24.1467 54.9233 22.7427L53.7013 14.1347C53.677 13.9725 53.6566 13.6412 53.5991 13.486C53.7836 12.9816 54.8703 12.8903 55.0746 13.2236L57.6075 25.2975C57.7473 25.6799 57.8386 26.1907 57.6184 26.4749L50.9992 38.5954C50.1902 40.0818 50.0861 41.8018 50.7169 43.317L51.5457 45.3014L40.5203 49.0698L40.4521 42.7579Z" fill="#AD132F"/>
<path d="M27.0101 50.89L26.1124 50.5835L26.2037 42.822C26.226 40.738 25.7017 38.7159 24.684 36.8541L18.4561 25.4488C17.1874 23.1222 14.2433 22.0782 11.7302 23.0448L12.8789 14.9615C13.6987 12.4464 12.0387 9.67993 9.53012 8.87546C6.83955 7.95098 3.88209 9.2266 2.93567 11.7129C2.77548 12.0884 0.386923 23.8537 0.278239 24.2426C-0.201851 25.6671 -0.0575274 27.2467 0.686922 28.6086L7.30359 40.7271C7.46825 41.0291 7.49701 41.3401 7.38592 41.6094L6.43267 43.8958C5.3594 43.6335 4.23499 44.1691 3.82641 45.2181L1.96658 49.9992C1.74637 50.5636 1.76869 51.1925 2.02213 51.741C2.27557 52.2901 2.74624 52.7121 3.31758 52.9056L23.7149 59.8779C24.815 60.2603 26.0748 59.7023 26.5033 58.5804L28.3587 53.7988C28.5789 53.2344 28.5565 52.6055 28.3031 52.0569C28.0502 51.5079 27.5835 51.0859 27.0101 50.89ZM4.5 25.6336C4.54017 25.5244 4.5734 25.4133 4.59572 25.3022L7.13114 13.2265C7.41086 12.8798 8.49312 12.9423 8.62643 13.66C8.57089 13.8132 8.52873 13.9729 8.50641 14.1351L7.28435 22.7406C6.83351 24.1447 6.98676 25.6911 7.71783 27.0287C7.92019 27.4021 13.5082 37.6493 13.5082 37.6493C14.0969 38.7225 15.4479 39.1223 16.5232 38.5336C17.5984 37.9449 17.9962 36.5958 17.4075 35.5186L13.0523 27.415C13.0811 27.3351 13.1788 27.2573 13.3122 27.2017C13.7923 27.0083 14.3741 27.2484 14.5566 27.5816L20.7869 38.9889C21.4381 40.1842 21.7734 41.451 21.76 42.7727L21.6866 49.0719L10.6613 45.3035L11.488 43.3217C12.1214 41.8065 12.0192 40.0845 11.2058 38.5956L4.58661 26.4772C4.47799 26.2783 4.37334 25.9693 4.49982 25.6335L4.5 25.6336Z" fill="#AD132F"/>
<path d="M45.5474 6.16023V6.13792C45.5474 5.16037 44.9255 4.31568 43.9921 4.02708L32.2382 0.183386C31.5051 -0.0611286 30.7052 -0.0611286 29.9716 0.183386L18.2176 4.02708C17.2842 4.31573 16.6623 5.2045 16.6623 6.16026C16.6623 15.0257 20.2838 23.4025 26.5946 29.0906C27.8831 30.268 29.5055 30.8458 31.1049 30.8458C32.7049 30.8458 34.3267 30.268 35.6151 29.0906C41.9258 23.4018 45.5474 15.0251 45.5474 6.16023ZM30.1056 19.9807C29.5055 19.9807 28.95 19.7362 28.5279 19.3364L25.8616 16.6701C24.9952 15.8036 24.9952 14.4035 25.8616 13.537C26.7504 12.6706 28.1499 12.6706 29.017 13.537L30.1057 14.6034L33.194 11.515C34.0605 10.6485 35.4606 10.6485 36.3494 11.515C37.2159 12.3814 37.2159 13.7816 36.3494 14.648L31.661 19.3365C31.2613 19.7362 30.6834 19.9807 30.1056 19.9807Z" fill="#AD132F"/>
</svg>
