<svg width="80" height="80" viewBox="0 0 80 80" fill="none" xmlns="http://www.w3.org/2000/svg">
<path d="M78.7718 77.5909H61.4528V63.5576C61.4528 61.8723 61.104 60.2715 60.4777 58.8027V58.7905L63.2465 57.2013C64.2575 58.1764 65.6421 58.7784 67.1584 58.7784C70.276 58.7784 72.8159 56.2384 72.8159 53.1208C72.8159 50.4001 70.9018 48.1371 68.3624 47.5838V27.8547C70.9024 27.3008 72.8159 25.0378 72.8159 22.3293C72.8159 19.1995 70.276 16.6596 67.1584 16.6596C65.7262 16.6596 64.4139 17.2013 63.4146 18.0802C63.414 18.0807 63.4134 18.0813 63.4134 18.0819L44.9108 7.39905C44.912 7.39615 44.9137 7.39384 44.9143 7.39094C45.0829 6.84924 45.1791 6.27161 45.1791 5.66972C45.1791 2.55209 42.6392 0 39.5094 0C36.3917 0 33.8397 2.55209 33.8397 5.66972C33.8397 6.27168 33.9358 6.86148 34.1044 7.40325V7.40383L15.6063 18.0839C15.6052 18.0827 15.6046 18.0815 15.6034 18.0804C14.6046 17.2015 13.2923 16.6598 11.8718 16.6598C8.74197 16.6598 6.20204 19.1997 6.20204 22.3295C6.20204 25.0363 8.114 27.2975 10.6631 27.8531V48.5122C8.11341 49.0678 6.20204 51.3291 6.20204 54.048C6.20204 57.1778 8.74197 59.7177 11.8718 59.7177C13.6857 59.7177 15.3074 58.8545 16.3311 57.5225L19.309 59.2421C18.7928 60.5885 18.5164 62.0433 18.5164 63.5578L18.517 77.5911H1.20392C0.539385 77.5911 0 78.1294 0 78.7951C0 79.4602 0.538807 79.999 1.20392 79.999C23.7555 79.999 9.33244 80.0013 78.7723 79.999C79.4374 79.999 79.9762 79.4607 79.9762 78.7951C79.9756 78.1299 79.4374 77.5911 78.7717 77.5911L78.7718 77.5909ZM70.4092 53.1215C70.4092 54.9153 68.9527 56.3718 67.159 56.3718C65.3132 56.3718 63.8966 54.8631 63.8966 53.1215C63.8966 51.3533 65.3375 49.8598 67.159 49.8598C68.9719 49.8592 70.4092 51.3302 70.4092 53.1215ZM63.8972 22.2938C63.9215 20.5001 65.3781 19.0679 67.1596 19.0679C68.9533 19.0679 70.4098 20.5245 70.4098 22.3297C70.4098 24.1235 68.9533 25.5799 67.1596 25.5799C65.3636 25.5799 63.8972 24.1176 63.8972 22.3297V22.2938ZM65.9557 27.8551V47.5843C64.8723 47.8131 63.9094 48.3548 63.1632 49.1011L51.1258 40.2055C51.5232 39.1099 51.7399 37.9546 51.8002 36.7629C51.9085 34.4397 51.3425 32.1888 50.1872 30.2387L62.4413 25.4601C63.235 26.6634 64.4871 27.5423 65.9557 27.8551ZM43.6948 9.47715L61.9823 20.035C61.6706 20.7319 61.4898 21.5129 61.4898 22.3299C61.4898 22.6306 61.5142 22.9197 61.5623 23.2088L48.7067 28.2278C46.6245 25.9526 43.7955 24.6166 40.7138 24.4242V11.2072C41.8916 10.9546 42.9252 10.3417 43.6952 9.47727L43.6948 9.47715ZM49.4044 36.6533C49.1286 41.9898 44.6281 45.8757 39.5581 45.6335C34.4394 45.4127 30.3457 41.0739 30.5779 35.7987C30.7987 30.8324 34.8751 26.807 39.9793 26.807C46.967 28.0514 49.6008 32.0166 49.4044 36.6533ZM39.5094 2.40688C41.3032 2.40688 42.7712 3.87556 42.7712 5.66926C42.7712 7.50009 41.2625 8.93164 39.5094 8.93164C37.7493 8.93164 36.247 7.47802 36.247 5.66926C36.2476 3.87551 37.7157 2.40688 39.5094 2.40688ZM17.0364 20.0373L35.3195 9.4819C35.32 9.48248 35.3206 9.48364 35.3212 9.4848C36.1039 10.3394 37.1387 10.9535 38.3067 11.206V24.5193C35.4898 24.9167 32.9864 26.3008 31.1683 28.335L17.518 22.6775C17.5301 22.5691 17.5301 22.4486 17.5301 22.3281C17.5301 21.5095 17.3494 20.7395 17.0365 20.0408L17.0364 20.0373ZM8.61022 22.3281C8.61022 20.5222 10.0667 19.0663 11.8726 19.0663C13.5992 19.0663 15.1228 20.4411 15.1228 22.3281C15.1228 24.1496 13.6472 25.5783 11.8726 25.5783C10.0667 25.5783 8.61022 24.1218 8.61022 22.3281ZM11.8726 57.3087C10.0667 57.3087 8.61022 55.84 8.61022 54.0463C8.61022 52.2526 10.0667 50.7839 11.8726 50.7839C13.3837 50.7839 14.6454 51.832 15.0024 53.1795C15.5945 55.1268 14.0841 57.3087 11.8726 57.3087ZM15.544 49.7491C14.8459 49.1472 14.0035 48.7138 13.0765 48.5093C13.0748 48.5087 13.0736 48.5087 13.0719 48.5087L13.0713 27.854C13.073 27.8535 13.0742 27.8535 13.0759 27.8535C14.7132 27.4925 16.0851 26.4329 16.8556 25.0007L29.7233 30.3453C28.8085 31.9224 28.2547 33.7399 28.1706 35.69C28.1103 37.0984 28.2911 38.4825 28.7001 39.7826L15.544 49.7491ZM59.0469 77.5897H20.925V63.5564C20.925 58.1516 25.3183 53.7583 30.7231 53.7583H34.5028L39.0289 59.5843C39.2577 59.8734 39.6065 60.042 39.9796 60.042C40.3527 60.042 40.7021 59.8734 40.9304 59.5843L45.4686 53.7583H49.2483C54.6531 53.7583 59.0464 58.1516 59.0464 63.5564L59.0469 77.5897ZM59.336 56.6829C57.1332 53.4692 53.4375 51.3505 49.2487 51.3505H44.8791C44.506 51.3505 44.1567 51.5191 43.9284 51.8198L39.98 56.8875L36.0438 51.8198C35.815 51.5191 35.4662 51.3505 35.0931 51.3505H30.7235C26.3783 51.3505 22.5505 53.6378 20.3836 57.0804L17.375 55.3435C17.6571 54.2433 17.5737 52.9032 17.0013 51.6756L29.6888 42.0575C31.6755 45.5342 35.2802 47.8489 39.451 48.0401C39.6318 48.0522 39.8241 48.0522 40.0049 48.0522C44.2343 48.0522 47.9816 45.8171 50.0801 42.407L61.8649 51.1218V51.134C61.6239 51.7481 61.4918 52.4097 61.4918 53.1201C61.4918 53.8541 61.6361 54.5644 61.8893 55.2023L59.336 56.6829Z" fill="#AD132F"/>
</svg>
