<svg width="60" height="60" viewBox="0 0 60 60" fill="none" xmlns="http://www.w3.org/2000/svg">
<path d="M9.048 6.19037H24.7628C25.0256 6.19037 25.2391 5.97733 25.2391 5.71408C25.2391 5.45125 25.026 5.23779 24.7628 5.23779L9.048 5.23821C8.78517 5.23821 8.57172 5.45125 8.57172 5.7145C8.57172 5.97733 8.78475 6.19037 9.048 6.19037Z" fill="#AD132F"/>
<path d="M24.7617 12.8569C25.0246 12.8569 25.238 12.6438 25.238 12.3806C25.238 12.1177 25.025 11.9043 24.7617 11.9043H9.048C8.78517 11.9043 8.57172 12.1173 8.57172 12.3806C8.57172 12.6434 8.78475 12.8569 9.048 12.8569H24.7617Z" fill="#AD132F"/>
<path d="M59.95 59.3115L56.667 52.7456V41.9048C56.667 40.0667 55.1716 38.5717 53.3338 38.5717H48.9007C50.2438 35.7651 50.9523 32.6533 50.9523 29.5239C50.9523 18.1302 41.81 8.83123 30.4761 8.5773V3.33314C30.4761 1.49498 28.9807 0 27.1429 0H6.66667C4.82851 0 3.3331 1.49541 3.3331 3.33314V14.1729L0.0501041 20.7392C-0.0390428 20.9179 -0.00723529 21.1335 0.129625 21.2787C0.221283 21.3766 0.347684 21.4285 0.476171 21.4285L7.24049 18.5712H12.1357C10.1129 21.8626 9.04779 25.6302 9.04779 29.5235C9.04779 40.9171 18.1902 50.2162 29.5241 50.4701V53.8095C29.5241 55.6477 31.0195 57.1427 32.8572 57.1427H52.7592L59.5235 60C59.652 60 59.7784 59.9477 59.87 59.8506C60.0073 59.7049 60.0391 59.4898 59.95 59.3107L59.95 59.3115ZM7.14303 17.6197C7.07858 17.6197 7.01454 17.6327 6.95553 17.6582L1.48369 20.0033L4.28572 14.2862V3.33393C4.28572 2.02099 5.35381 0.952871 6.66677 0.952871H27.143C28.456 0.952871 29.5241 2.02097 29.5241 3.33393V15.2387C29.5241 16.5516 28.456 17.6197 27.143 17.6197L13.0086 17.6202H13.0069L7.14303 17.6197ZM30.1415 16.6935C33.9108 16.9973 36.9598 20.125 37.1347 23.9257C37.2883 27.2643 35.3706 29.8676 31.7352 31.2559C31.5506 31.3262 31.4289 31.5032 31.4289 31.7007V35.9531C31.4289 36.0845 31.3221 36.1912 31.1907 36.1912H28.8097C28.6782 36.1912 28.5715 36.0845 28.5715 35.9531V31.3748C28.5715 30.5005 29.0754 29.7003 29.8551 29.3362C32.6709 28.0199 34.2857 26.1796 34.2857 24.2866C34.2857 21.7105 32.1909 19.5747 29.6166 19.5253C28.3539 19.5015 27.1494 19.9845 26.2299 20.8868C25.2966 21.8022 24.7617 23.072 24.7617 24.3711V26.4295C24.7617 26.5609 24.655 26.6676 24.5235 26.6676H22.1425C22.0111 26.6676 21.9043 26.5609 21.9043 26.4295V24.2866C21.9043 22.093 22.8464 20.0213 24.4909 18.5724L27.1427 18.572C28.4594 18.572 29.5999 17.8048 30.1414 16.6936L30.1415 16.6935ZM29.5237 41.9055V44.7628H28.8093C28.6992 44.7628 28.5711 44.5896 28.5711 44.3661V40.8738C28.5711 40.6503 28.6992 40.4771 28.8093 40.4771H29.846C29.6396 40.9102 29.5237 41.3949 29.5237 41.9055ZM52.8575 56.1921H32.858C31.5451 56.1921 30.477 55.124 30.477 53.811V41.9063C30.477 40.5933 31.5451 39.5252 32.858 39.5252H53.3343C54.6472 39.5252 55.7154 40.5933 55.7154 41.9063V52.8585L58.5178 58.5752L52.8575 56.1921Z" fill="#AD132F"/>
<path d="M50.952 43.8098H35.2383C34.9755 43.8098 34.762 44.0228 34.762 44.2861C34.762 44.5489 34.9751 44.7624 35.2383 44.7624H50.9531C51.2159 44.7624 51.4294 44.5494 51.4294 44.2861C51.429 44.0228 51.2159 43.8098 50.9527 43.8098H50.952Z" fill="#AD132F"/>
<path d="M50.952 50.4763H35.2383C34.9755 50.4763 34.762 50.6894 34.762 50.9526C34.762 51.2154 34.9751 51.4289 35.2383 51.4289H50.9531C51.2159 51.4289 51.4294 51.2159 51.4294 50.9526C51.429 50.6898 51.2159 50.4763 50.9527 50.4763H50.952Z" fill="#AD132F"/>
</svg>
