<svg width="88" height="80" viewBox="0 0 88 80" fill="none" xmlns="http://www.w3.org/2000/svg">
<path d="M10.4987 43.2566H20.8993C21.677 43.2566 22.4548 42.4789 22.4548 41.7012C22.4548 40.9241 21.677 40.1464 20.8993 40.1464H10.4987C9.72097 40.1464 8.94326 40.9241 8.94326 41.7012C8.94326 42.5209 9.69588 43.2566 10.4987 43.2566ZM10.4987 16.0391H45.2982C46.1214 16.0391 46.659 15.2458 46.659 14.4843C46.659 13.7548 46.0773 12.9289 45.2982 12.9289H10.4987C9.60639 12.9289 8.74865 13.4273 8.74865 14.3867C8.74865 15.2289 9.66877 16.0391 10.4987 16.0391ZM10.4987 23.7187H35.6749C36.4987 23.7187 37.0357 22.9247 37.0357 22.1632C37.0357 21.4337 36.4546 20.6078 35.6749 20.6078H10.4987C9.60639 20.6078 8.74865 21.1062 8.74865 22.0663C8.74865 22.9077 9.66877 23.7187 10.4987 23.7187ZM58.6153 24.6903C49.9545 24.6903 42.3748 32.0465 42.5129 40.8266C42.6492 49.4928 49.8229 56.8544 58.6153 56.8658C67.3751 56.8767 74.7516 49.6561 74.7516 40.8266C74.7516 32.0635 67.3784 24.6903 58.6153 24.6903ZM58.6153 53.6575C51.5657 53.6575 45.7533 47.7849 45.6516 40.8261C45.5479 33.653 51.5527 27.815 58.6153 27.8401C65.6718 27.8659 71.4468 33.8735 71.4468 40.8261C71.4468 47.8412 65.6264 53.6575 58.6153 53.6575ZM87.0965 68.7245L75.723 56.5739C79.7261 52.2947 81.9163 46.5699 81.9352 40.7292C81.9691 30.075 74.244 20.2831 63.7665 17.9832V5.63791C63.7665 2.569 61.2048 0 58.1286 0H5.73494C2.66672 0 0 2.55286 0 5.63791V74.3621C0 77.431 2.56171 80 5.63791 80H58.0316C61.0998 80 63.6695 77.4383 63.6695 74.3621V63.5723C67.1689 62.7952 70.4737 61.1422 73.2925 58.9066L84.666 70.9603C85.2878 71.582 86.214 71.5732 86.9016 71.0572C87.5539 70.7311 87.5525 69.181 87.0962 68.7246L87.0965 68.7245ZM60.5594 74.2649C60.5594 75.701 59.461 76.6021 58.1293 76.792H5.73563C4.35851 76.792 3.3055 75.7221 3.3055 74.3619V5.63774C3.3055 4.2423 4.3653 3.2076 5.73563 3.2076H58.1293C59.5024 3.2076 60.5594 4.40436 60.5594 5.73477V17.5938C59.9763 17.4969 59.2962 17.4969 58.6155 17.4969C45.8526 17.4969 35.2862 28.0629 35.2862 40.8261C35.2862 53.589 45.8523 64.1554 58.6155 64.1554C59.2963 64.1554 59.8794 64.1554 60.5594 64.0578V74.2649ZM58.6155 60.9479C47.644 60.9479 38.5235 51.6742 38.494 40.8264C38.4642 29.8922 47.6816 20.632 58.6155 20.6077C69.4989 20.5847 78.8342 29.8556 78.8342 40.8264C78.8342 51.8834 69.6297 60.9479 58.6155 60.9479ZM35.2862 59.1008H10.3045C9.44129 59.1008 8.84666 59.7077 8.84666 60.5587C8.84666 61.4028 9.46165 62.0171 10.3045 62.0171H35.2862C36.1494 62.0171 36.744 61.4103 36.744 60.5587C36.744 59.7152 36.129 59.1008 35.2862 59.1008ZM28.3843 67.1689H10.3041C9.44095 67.1689 8.84631 67.7757 8.84631 68.6267C8.84631 69.4702 9.46131 70.0852 10.3041 70.0852H28.3843C29.2475 70.0852 29.8428 69.4783 29.8428 68.6267C29.8428 67.7832 29.2271 67.1689 28.3843 67.1689ZM67.2664 33.633C66.5992 32.9658 65.6174 33.2405 65.0309 33.827L56.9628 43.6451L51.4218 40.7287C50.6759 40.3558 49.6622 40.6507 49.284 41.4088C48.9104 42.1554 49.206 43.1684 49.9641 43.5473L56.6714 47.0467C57.2633 47.442 58.2425 47.1206 58.6153 46.5606L67.4612 35.6737C67.868 34.8601 67.984 34.3495 67.2666 33.6328L67.2664 33.633Z" fill="#AD132F"/>
</svg>
