<svg width="95" height="81" viewBox="0 0 95 81" fill="none" xmlns="http://www.w3.org/2000/svg">
<path d="M28.0586 54.421C28.4539 54.421 28.8484 54.271 29.149 53.9683L41.0937 42.0236C41.3836 41.7337 41.5464 41.3428 41.5464 40.9331L41.5457 17.5924C41.5457 16.7409 40.8563 16.05 40.0033 16.05C39.1496 16.05 38.4609 16.7409 38.4609 17.5924V40.294L26.9689 51.786C26.3663 52.3886 26.3663 53.3657 26.9689 53.9684C27.2709 54.269 27.6633 54.421 28.0586 54.421Z" fill="#AD132F"/>
<path d="M40.0035 12.8966C40.8572 12.8966 41.5459 12.2058 41.5459 11.3542L41.5466 7.41499C41.5466 6.56344 40.8572 5.87259 40.0042 5.87259C39.1505 5.87259 38.4618 6.56344 38.4618 7.41499V11.3542C38.4611 12.2058 39.1505 12.8966 40.0035 12.8966Z" fill="#AD132F"/>
<path d="M23.8786 16.0904C24.1648 16.5861 24.6828 16.8616 25.2158 16.8616C25.477 16.8616 25.7424 16.7956 25.9849 16.6535C26.7209 16.2274 26.9742 15.2855 26.5487 14.5472L24.5781 11.1345C24.152 10.3963 23.2065 10.1452 22.4718 10.5707C21.7336 10.9968 21.4804 11.9409 21.9079 12.677L23.8786 16.0904Z" fill="#AD132F"/>
<path d="M15.1587 24.8085L11.746 22.8379C11.0099 22.4117 10.0651 22.6628 9.63965 23.4017C9.21208 24.1399 9.4646 25.0826 10.2035 25.5081L13.6162 27.4809C13.8587 27.6186 14.1241 27.6868 14.3852 27.6868C14.9197 27.6868 15.4384 27.4113 15.7225 26.9156C16.1486 26.1788 15.8954 25.2347 15.1587 24.8085Z" fill="#AD132F"/>
<path d="M11.9667 40.9334C11.9667 40.0818 11.2759 39.3909 10.4243 39.3909H6.48439C5.63069 39.3909 4.94199 40.0818 4.94199 40.9334C4.94199 41.7871 5.63141 42.4758 6.48439 42.4758H10.4236C11.2752 42.4758 11.9667 41.7871 11.9667 40.9334Z" fill="#AD132F"/>
<path d="M10.9768 59.2364C11.238 59.2364 11.5034 59.1704 11.7459 59.0283L15.1586 57.0577C15.8946 56.6302 16.1479 55.6861 15.7224 54.9494C15.2949 54.2112 14.3508 53.9601 13.6161 54.3855L10.2034 56.3583C9.46522 56.7845 9.21198 57.7285 9.63955 58.4647C9.92365 58.9632 10.4423 59.2366 10.9768 59.2366L10.9768 59.2364Z" fill="#AD132F"/>
<path d="M22.4736 71.2988C22.7161 71.4387 22.9815 71.5069 23.2427 71.5069C23.7771 71.5069 24.2958 71.2314 24.5799 70.7357L26.5505 67.3201C26.9766 66.584 26.7234 65.6413 25.9866 65.2137C25.2506 64.7876 24.3043 65.0387 23.8803 65.7776L21.9097 69.1903C21.48 69.9306 21.7332 70.8726 22.4736 71.2986L22.4736 71.2988Z" fill="#AD132F"/>
<path d="M40.0053 75.993C40.8569 75.993 41.5477 75.3022 41.5477 74.4506L41.5455 70.5134C41.5455 69.6597 40.8547 68.971 40.0031 68.971C39.1494 68.971 38.4607 69.6619 38.4607 70.5134L38.4629 74.4506C38.4629 75.3043 39.1537 75.993 40.0053 75.993Z" fill="#AD132F"/>
<path d="M69.5811 42.4761H73.5203C74.374 42.4761 75.0627 41.7831 75.0627 40.9337C75.0627 40.08 74.3718 39.3913 73.5203 39.3913H69.5811C68.7295 39.3913 68.0387 40.0821 68.0387 40.9337C68.038 41.7874 68.7317 42.4761 69.5811 42.4761Z" fill="#AD132F"/>
<path d="M70.3653 23.3998C69.9413 22.6638 68.9972 22.4084 68.2589 22.8381L64.8463 24.8131C64.1116 25.2393 63.8591 26.1834 64.2867 26.9195C64.5708 27.4131 65.0887 27.6885 65.6218 27.6885C65.8829 27.6885 66.1483 27.6225 66.393 27.4805L69.8056 25.5055C70.5424 25.0801 70.795 24.1359 70.3653 23.3998Z" fill="#AD132F"/>
<path d="M55.4268 11.1354L53.4562 14.548C53.03 15.2862 53.2833 16.2289 54.02 16.6544C54.2625 16.7943 54.528 16.8624 54.7891 16.8624C55.3236 16.8624 55.8422 16.5869 56.1263 16.0912L58.0969 12.6785C58.5245 11.9425 58.272 10.9977 57.5331 10.5722C56.7941 10.1461 55.8523 10.395 55.4268 11.1354Z" fill="#AD132F"/>
<path d="M92.6977 50.3659H58.9144C58.0628 50.3659 57.372 51.0567 57.372 51.9083C57.372 52.7598 58.0628 53.4507 58.9144 53.4507H92.6977C93.5514 53.4507 94.2401 52.7598 94.2401 51.9083C94.2401 51.0567 93.5507 50.3659 92.697 50.3659H92.6977Z" fill="#AD132F"/>
<path d="M88.4442 59.668H54.6591C53.8054 59.668 53.1167 60.3588 53.1167 61.2104C53.1167 62.0641 53.8061 62.7528 54.6591 62.7528L88.4442 62.7535C89.2979 62.7535 89.9866 62.0641 89.9866 61.2111C89.9866 60.3595 89.2979 59.668 88.4442 59.668Z" fill="#AD132F"/>
<path d="M40.0035 77.8498C19.6453 77.8498 3.0852 61.2893 3.0852 40.9334C3.08592 20.5771 19.6464 4.01691 40.0035 4.01691C60.3598 4.01691 76.9218 20.5774 76.9218 40.9334C76.9218 43.0992 76.7245 45.2162 76.3643 47.2808H79.4973C79.8287 45.2118 80.0074 43.0948 80.0074 40.9334C80.0074 18.8764 62.0608 0.93335 40.0037 0.93335C17.9466 0.93335 0 18.8777 0 40.9334C0 62.9921 17.9466 80.9333 40.0037 80.9333C47.5837 80.9333 54.6738 78.8171 60.7199 75.1411H53.8601C49.578 76.8836 44.9027 77.8485 40.0028 77.8485L40.0035 77.8498Z" fill="#AD132F"/>
<path d="M84.189 68.9719H50.4057C49.552 68.9719 48.8633 69.6613 48.8633 70.5143C48.8633 71.3659 49.5527 72.0567 50.4057 72.0567H84.189C85.0427 72.0567 85.7314 71.3659 85.7314 70.5143C85.7314 69.6606 85.0427 68.9719 84.189 68.9719Z" fill="#AD132F"/>
</svg>
