<svg width="90" height="80" viewBox="0 0 90 80" fill="none" xmlns="http://www.w3.org/2000/svg">
<path d="M44.8169 40.1633C39.0245 40.1581 33.5173 42.6768 29.7328 47.0613C25.9485 51.4466 24.2626 57.2635 25.1148 62.9922C25.9677 68.7217 29.2749 73.7954 34.1722 76.8877C34.1885 76.8951 34.2011 76.9085 34.2181 76.9159C37.3859 78.9307 41.0628 80 44.8168 80C48.5707 80 52.2477 78.9307 55.4155 76.9159C55.4318 76.9092 55.4444 76.8959 55.4614 76.8877C60.3587 73.7954 63.6659 68.7217 64.5188 62.9922C65.371 57.2635 63.6852 51.4466 59.9008 47.0613C56.1164 42.6768 50.6093 40.158 44.8166 40.1633H44.8169ZM36.5176 74.4343V74.1905C36.5198 71.9904 37.3957 69.8808 38.9511 68.3254C40.5072 66.7693 42.6168 65.8942 44.8169 65.8912C47.0171 65.8949 49.126 66.7708 50.6813 68.3262C52.2367 69.8823 53.1125 71.9904 53.1163 74.1905V74.4351C50.5976 75.9052 47.7336 76.6804 44.8169 76.6804C41.9003 76.6804 39.0362 75.9053 36.5176 74.4351V74.4343ZM39.8373 57.5919C39.8373 56.2714 40.362 55.005 41.2956 54.0713C42.2293 53.1368 43.4965 52.6122 44.8168 52.6122C46.1372 52.6122 47.4045 53.1368 48.338 54.0713C49.2717 55.0049 49.7964 56.2714 49.7964 57.5919C49.7964 58.9131 49.2717 60.1796 48.338 61.1131C47.4044 62.0466 46.1372 62.5714 44.8168 62.5714C43.4964 62.5699 42.2307 62.0453 41.297 61.1116C40.364 60.1779 39.8387 58.9122 39.8372 57.5917L39.8373 57.5919ZM56.2412 72.0927C55.5876 68.5677 53.3506 65.5391 50.1739 63.8778C51.9167 62.4046 52.977 60.2786 53.1038 58.0001C53.2305 55.7214 52.4139 53.491 50.8444 51.8334C49.2757 50.1757 47.0935 49.2375 44.8111 49.239C42.5288 49.2405 40.348 50.1824 38.7815 51.8423C37.215 53.5022 36.4013 55.7334 36.5318 58.0119C36.6615 60.2905 37.7249 62.415 39.4699 63.8859C36.2894 65.5413 34.0487 68.5705 33.3972 72.097C30.1657 69.0338 28.3006 64.7995 28.2213 60.3475C28.142 55.8954 29.8545 51.5976 32.975 48.4209C36.0953 45.2434 40.3615 43.4538 44.8141 43.453C49.2677 43.4523 53.5336 45.2404 56.6555 48.4163C59.7766 51.5923 61.4913 55.8895 61.4135 60.3414C61.3357 64.7942 59.4722 69.0283 56.2412 72.0931V72.0927Z" fill="#AD132F"/>
<path d="M34.9488 21.7909L33.1874 32.0576C33.08 32.68 33.3364 33.3099 33.8477 33.6811C34.359 34.0524 35.037 34.1013 35.5957 33.8071L44.816 28.9609L54.0364 33.8079V33.8071C54.5951 34.1013 55.2731 34.0524 55.7844 33.6812C56.2957 33.3099 56.5521 32.6801 56.4447 32.0576L54.6833 21.7909L62.143 14.5209C62.5958 14.08 62.7595 13.4197 62.5639 12.8187C62.369 12.2178 61.8488 11.7798 61.2234 11.6887L50.9159 10.1911L46.3045 0.849947C45.9933 0.323096 45.4272 0 44.8158 0C44.2045 0 43.6384 0.323077 43.3271 0.849947L38.7172 10.1904L28.4097 11.6879L28.409 11.6887C27.7836 11.7791 27.2641 12.217 27.0685 12.818C26.8736 13.4197 27.0366 14.0792 27.4894 14.5201L34.9488 21.7909ZM40.0589 13.3508C40.5991 13.2722 41.0667 12.9321 41.3075 12.4423L44.8162 5.33444L48.3249 12.4415C48.5657 12.9313 49.0333 13.2715 49.5735 13.35L57.4172 14.4897L51.7402 20.0221H51.741C51.3505 20.4037 51.1719 20.9528 51.2638 21.4915L52.6043 29.3026L45.5884 25.6146V25.6154C45.1045 25.3612 44.5273 25.3612 44.0442 25.6154L37.0283 29.3033L38.3688 21.4922V21.4915C38.4607 20.9528 38.2821 20.4037 37.8916 20.0221L32.2147 14.4897L40.0589 13.3508Z" fill="#AD132F"/>
<path d="M21.7951 35.6958L27.2874 30.3427H27.2882C27.7409 29.9018 27.9039 29.2415 27.7083 28.6406C27.5134 28.0396 26.9932 27.6017 26.3678 27.5105L18.7776 26.4072L15.3823 19.5298V19.5306C15.0719 19.0037 14.5057 18.6806 13.8936 18.6806C13.2823 18.6806 12.7162 19.0037 12.4057 19.5306L9.01176 26.4071L1.42151 27.5098V27.5105C0.796089 27.6009 0.276635 28.0389 0.0810173 28.6398C-0.113861 29.2415 0.0491527 29.901 0.501921 30.3419L5.99428 35.6958L4.69826 43.2542C4.59155 43.8766 4.8472 44.5065 5.35851 44.8777C5.8698 45.249 6.54783 45.2979 7.10731 45.0037L13.8949 41.4351L20.6841 45.0037C21.2428 45.2979 21.9208 45.249 22.4321 44.8777C22.9434 44.5065 23.1991 43.8766 23.0924 43.2542L21.7951 35.6958ZM18.8532 33.9278V33.9285C18.4627 34.3094 18.2841 34.8585 18.376 35.3972L19.2511 40.5012L14.6672 38.0907C14.1834 37.8366 13.6054 37.8366 13.1222 38.0907L8.5391 40.5005L9.41424 35.3972C9.50612 34.8585 9.32754 34.3094 8.93703 33.9285L5.22822 30.3125L10.3539 29.5677H10.3532C10.8948 29.4884 11.3624 29.1491 11.604 28.6585L13.8944 24.0147L16.1871 28.6585C16.4287 29.1483 16.8955 29.4884 17.4365 29.567L22.5621 30.3117L18.8532 33.9278Z" fill="#AD132F"/>
<path d="M89.5519 28.6409C89.3562 28.0407 88.8368 27.6027 88.2121 27.5116L80.6219 26.409L77.2287 19.5316H77.228C76.9486 18.9647 76.3714 18.6061 75.74 18.6061C75.1079 18.6061 74.5307 18.9647 74.2513 19.5316L70.8561 26.4082L63.2658 27.5109V27.5116C62.6404 27.602 62.1202 28.0399 61.9253 28.6409C61.7297 29.2426 61.8935 29.9021 62.3462 30.343L67.8386 35.6969L66.5418 43.2553C66.4351 43.8785 66.6915 44.5076 67.2021 44.8788C67.7134 45.2501 68.3914 45.299 68.9509 45.0048L75.74 41.4362L82.5277 45.0048H82.5269C83.0864 45.299 83.7637 45.2493 84.275 44.8781C84.7855 44.5068 85.0419 43.8777 84.9352 43.2553L83.6392 35.6969L89.1315 30.3438C89.5843 29.9021 89.7468 29.2426 89.5519 28.6409ZM80.6975 33.9288H80.6967C80.3062 34.3104 80.1276 34.8595 80.2195 35.3975L81.0947 40.5008L76.5115 38.091V38.0917C76.0284 37.8368 75.4504 37.8368 74.9673 38.0917L70.3834 40.5023L71.2578 35.3982C71.3496 34.8602 71.1711 34.3111 70.7806 33.9295L67.0717 30.314L72.1974 29.5693C72.7376 29.4908 73.2052 29.1507 73.446 28.6608L75.7395 24.0155L78.0299 28.6593C78.2722 29.1491 78.7391 29.4885 79.28 29.5678L84.4057 30.3125L80.6975 33.9288Z" fill="#AD132F"/>
</svg>
