<svg width="74" height="81" viewBox="0 0 74 81" fill="none" xmlns="http://www.w3.org/2000/svg">
<path d="M33.4393 27.3099C33.4393 24.7627 31.3673 22.6907 28.8201 22.6907C26.2729 22.6907 24.2009 24.7627 24.2009 27.3099C24.2009 29.8571 26.2729 31.9303 28.8201 31.9303C31.3668 31.9303 33.4393 29.8583 33.4393 27.3099ZM26.7809 27.3099C26.7809 26.1861 27.6957 25.2713 28.8195 25.2713C29.9433 25.2713 30.8581 26.1861 30.8581 27.3099C30.8581 28.4349 29.9433 29.3497 28.8195 29.3497C27.6956 29.3497 26.7809 28.4349 26.7809 27.3099Z" fill="#AD132F"/>
<path d="M46.782 25.4607C46.2854 24.9468 45.4686 24.9342 44.9577 25.4307L26.669 43.1207C26.1569 43.6161 26.1436 44.4329 26.639 44.945C26.8919 45.2071 27.2301 45.3384 27.567 45.3384C27.8896 45.3384 28.2134 45.2186 28.4639 44.9761L46.7526 27.2876C47.2636 26.7905 47.2763 25.9737 46.782 25.4615L46.782 25.4607Z" fill="#AD132F"/>
<path d="M44.601 38.4731C42.0538 38.4731 39.9818 40.5451 39.9818 43.0935C39.9818 45.6418 42.0538 47.7127 44.601 47.7127C47.1481 47.7127 49.2202 45.6407 49.2202 43.0935C49.2202 40.5467 47.1476 38.4731 44.601 38.4731ZM44.601 45.1326C43.4771 45.1326 42.5624 44.2179 42.5624 43.0941C42.5624 41.9691 43.4771 41.0543 44.601 41.0543C45.7248 41.0543 46.6395 41.9691 46.6395 43.0941C46.6395 44.2179 45.7248 45.1326 44.601 45.1326Z" fill="#AD132F"/>
<path d="M57.9629 35.2023C57.9629 23.4833 48.4289 13.9495 36.7101 13.9495C24.9899 13.9495 15.4558 23.4835 15.4558 35.2023C15.4558 46.9224 24.9898 56.4565 36.7101 56.4565C48.429 56.4554 57.9629 46.9214 57.9629 35.2023ZM36.7101 53.8744C26.4146 53.8744 18.0365 45.4976 18.0365 35.2008C18.0365 24.9036 26.4143 16.5302 36.7101 16.5302C47.0058 16.5302 55.3822 24.907 55.3822 35.2023C55.3822 45.4978 47.0054 53.8744 36.7101 53.8744Z" fill="#AD132F"/>
<path d="M73.2093 67.1994L64.7162 54.2807C65.639 52.1194 66.1292 49.772 66.1073 47.3785C69.3769 44.1745 71.2415 39.7708 71.2415 35.2017C71.2415 30.6336 69.378 26.2299 66.1073 23.0248C66.1511 18.4401 64.3538 14.008 61.127 10.7846C57.8752 7.53283 53.5267 5.82208 48.8867 5.80423C45.6776 2.53403 41.2738 0.670654 36.7099 0.670654C32.1418 0.670654 27.7381 2.53418 24.5307 5.80482C19.8843 5.78005 15.5422 7.53415 12.2904 10.7852C9.06225 14.0122 7.26568 18.4447 7.31007 23.0266C4.04046 26.2346 2.1759 30.6384 2.1759 35.2023C2.1759 39.7674 4.0406 44.1711 7.31007 47.3791C7.28702 49.7725 7.77839 52.1222 8.70235 54.2846L0.212154 67.2006C-0.0292031 67.5669 -0.0666452 68.0301 0.110194 68.4304C0.287035 68.8319 0.65455 69.1153 1.08831 69.1839L11.824 70.8895L17.6449 80.0716C17.8799 80.442 18.286 80.6666 18.7238 80.6701H18.7342C19.1679 80.6701 19.5729 80.4518 19.8114 80.0883L28.1559 67.3981C30.7377 68.8999 33.6835 69.7334 36.7095 69.7334C39.7325 69.7334 42.6773 68.8999 45.2579 67.3981L53.6024 80.0883C53.8415 80.4523 54.247 80.6707 54.6819 80.6707H54.6923C55.1295 80.6666 55.5362 80.4408 55.7712 80.0722L61.5955 70.89L72.3334 69.1845C72.7654 69.1159 73.1346 68.8319 73.3115 68.431C73.4883 68.0295 73.4497 67.5664 73.2095 67.1994L73.2093 67.1994ZM18.7517 77.0025L13.6895 69.0151C13.4908 68.7029 13.1682 68.4898 12.8018 68.4322L3.4637 66.9484L10.0789 56.8839C10.7165 57.8631 11.4516 58.7831 12.2879 59.6207C15.501 62.8338 19.7885 64.6028 24.3599 64.6028H24.5275C24.9999 65.0844 25.5045 65.5239 26.024 65.9432L18.7517 77.0025ZM26.0213 62.4242C25.7759 62.1557 25.4303 62.0048 25.0691 62.0048C25.0495 62.0048 25.0317 62.0048 25.0121 62.006C20.9308 62.1799 16.9913 60.6718 14.1129 57.7945C11.2563 54.9379 9.72064 50.965 9.90143 46.8953C9.91814 46.5134 9.76606 46.143 9.48324 45.8861C6.47803 43.1377 4.75401 39.2432 4.75401 35.2023C4.75401 31.1609 6.47803 27.2679 9.48324 24.5197C9.76608 24.2617 9.91814 23.8924 9.90143 23.5105C9.72055 19.4407 11.2551 15.4679 14.1129 12.6113C16.9903 9.73396 20.9182 8.21905 25.0121 8.39984C25.3952 8.40387 25.7644 8.26332 26.0213 7.98164C28.7713 4.97526 32.6664 3.25123 36.7092 3.25123C40.749 3.25123 44.6424 4.97526 47.3918 7.98046C47.6498 8.26156 48.0047 8.40212 48.401 8.39866C52.4955 8.21663 56.4228 9.73277 59.3002 12.6101C62.1568 15.4633 63.6925 19.4362 63.5105 23.5093C63.4938 23.8912 63.647 24.2616 63.9299 24.5197C66.9351 27.2639 68.6591 31.1586 68.6591 35.2023C68.6591 39.2459 66.9351 43.1401 63.9299 45.8848C63.647 46.1429 63.4938 46.5133 63.5105 46.8952C63.6914 50.9672 62.1568 54.9402 59.299 57.7944C56.4217 60.6718 52.5017 62.1839 48.3998 62.0059C48.0001 61.984 47.6475 62.1413 47.3906 62.4241C44.6423 65.4293 40.7477 67.1533 36.708 67.1533C32.6666 67.1522 28.7714 65.4294 26.0213 62.4242ZM60.6153 68.4322C60.249 68.4904 59.9264 68.7029 59.7276 69.0152L54.6609 77.0025L47.3873 65.9402C47.9074 65.522 48.412 65.0808 48.8838 64.5998H49.0525C53.624 64.5998 57.912 62.8308 61.1233 59.6194C61.9609 58.783 62.6977 57.8607 63.3347 56.8798L69.9529 66.9467L60.6153 68.4322Z" fill="#AD132F"/>
</svg>
