<svg width="135" height="16" viewBox="0 0 135 16" fill="none" xmlns="http://www.w3.org/2000/svg">
<path d="M0.5 15V0.999999H7.3C8.98 0.999999 10.28 1.32 11.2 1.96C12.1333 2.58667 12.6 3.48 12.6 4.64C12.6 5.77333 12.1667 6.66667 11.3 7.32C10.4333 7.96 9.27333 8.28 7.82 8.28L8.22 7.34C9.79333 7.34 11.02 7.65333 11.9 8.28C12.7933 8.89333 13.24 9.8 13.24 11C13.24 12.2267 12.76 13.2 11.8 13.92C10.8533 14.64 9.48 15 7.68 15H0.5ZM4.4 12.16H7.52C8.09333 12.16 8.52 12.04 8.8 11.8C9.09333 11.5467 9.24 11.18 9.24 10.7C9.24 10.22 9.09333 9.86667 8.8 9.64C8.52 9.4 8.09333 9.28 7.52 9.28H4.4V12.16ZM4.4 6.6H6.92C7.48 6.6 7.9 6.48667 8.18 6.26C8.46 6.02 8.6 5.67333 8.6 5.22C8.6 4.76667 8.46 4.42667 8.18 4.2C7.9 3.96 7.48 3.84 6.92 3.84H4.4V6.6ZM13.9828 15L20.1628 0.999999H24.0628L30.2628 15H26.1428L21.3028 2.94H22.8628L18.0228 15H13.9828ZM17.3628 12.28L18.3828 9.36H25.2228L26.2428 12.28H17.3628ZM40.2872 11.86L39.4272 12.74V0.999999H43.3272V12.74L42.4272 11.86H47.8472L46.9472 12.74V0.999999H50.8472V15H31.8672V0.999999H35.7672V12.74L34.9072 11.86H40.2872ZM58.5402 13.92L59.7202 11.14C60.3202 11.4467 60.9468 11.68 61.6002 11.84C62.2535 12 62.8868 12.0933 63.5002 12.12C64.1135 12.1467 64.6668 12.1067 65.1602 12C65.6668 11.88 66.0668 11.7 66.3602 11.46C66.6535 11.22 66.8002 10.9067 66.8002 10.52C66.8002 10.0933 66.6202 9.78667 66.2602 9.6C65.9135 9.4 65.4535 9.3 64.8802 9.3H61.3002V6.4H64.5602C65.0935 6.4 65.5068 6.29333 65.8002 6.08C66.0935 5.86667 66.2402 5.58 66.2402 5.22C66.2402 4.87333 66.1135 4.6 65.8602 4.4C65.6068 4.18667 65.2668 4.04 64.8402 3.96C64.4135 3.86667 63.9335 3.83333 63.4002 3.86C62.8668 3.88667 62.3135 3.98667 61.7402 4.16C61.1668 4.32 60.6135 4.54 60.0802 4.82L58.9202 1.86C59.8668 1.39333 60.8602 1.07333 61.9002 0.899999C62.9402 0.726666 63.9535 0.686666 64.9402 0.779999C65.9268 0.873332 66.8202 1.09333 67.6202 1.44C68.4202 1.77333 69.0535 2.22 69.5202 2.78C70.0002 3.34 70.2402 4 70.2402 4.76C70.2402 5.42667 70.0602 6.02 69.7002 6.54C69.3402 7.06 68.8535 7.46667 68.2402 7.76C67.6268 8.05333 66.9202 8.2 66.1202 8.2L66.2202 7.36C67.1402 7.36 67.9402 7.52 68.6202 7.84C69.3135 8.16 69.8468 8.6 70.2202 9.16C70.6068 9.70667 70.8002 10.34 70.8002 11.06C70.8002 11.74 70.6202 12.3467 70.2602 12.88C69.9135 13.4 69.4268 13.84 68.8002 14.2C68.1735 14.56 67.4535 14.8267 66.6402 15C65.8402 15.1867 64.9802 15.2733 64.0602 15.26C63.1402 15.26 62.2068 15.1467 61.2602 14.92C60.3268 14.6933 59.4202 14.36 58.5402 13.92ZM71.5414 15L77.7214 0.999999H81.6214L87.8214 15H83.7014L78.8614 2.94H80.4214L75.5814 15H71.5414ZM74.9214 12.28L75.9414 9.36H82.7814L83.8014 12.28H74.9214ZM98.2658 15L94.3258 8.34L97.5058 6.46L102.726 15H98.2658ZM89.3458 15V0.999999H93.2858V15H89.3458ZM92.1458 9.64V6.44H97.2258V9.64H92.1458ZM97.8858 8.42L94.2258 8.02L98.5258 0.999999H102.686L97.8858 8.42ZM110.798 15.28C109.678 15.28 108.645 15.1 107.698 14.74C106.751 14.38 105.925 13.8733 105.218 13.22C104.525 12.5533 103.985 11.78 103.598 10.9C103.211 10.02 103.018 9.05333 103.018 8C103.018 6.94667 103.211 5.98 103.598 5.1C103.985 4.22 104.525 3.45333 105.218 2.8C105.925 2.13333 106.751 1.62 107.698 1.26C108.645 0.899999 109.678 0.719999 110.798 0.719999C111.931 0.719999 112.965 0.899999 113.898 1.26C114.845 1.62 115.665 2.13333 116.358 2.8C117.051 3.45333 117.591 4.22 117.978 5.1C118.378 5.98 118.578 6.94667 118.578 8C118.578 9.05333 118.378 10.0267 117.978 10.92C117.591 11.8 117.051 12.5667 116.358 13.22C115.665 13.8733 114.845 14.38 113.898 14.74C112.965 15.1 111.931 15.28 110.798 15.28ZM110.798 12C111.331 12 111.825 11.9067 112.278 11.72C112.745 11.5333 113.145 11.2667 113.478 10.92C113.825 10.56 114.091 10.1333 114.278 9.64C114.478 9.14667 114.578 8.6 114.578 8C114.578 7.38667 114.478 6.84 114.278 6.36C114.091 5.86667 113.825 5.44667 113.478 5.1C113.145 4.74 112.745 4.46667 112.278 4.28C111.825 4.09333 111.331 4 110.798 4C110.265 4 109.765 4.09333 109.298 4.28C108.845 4.46667 108.445 4.74 108.098 5.1C107.765 5.44667 107.498 5.86667 107.298 6.36C107.111 6.84 107.018 7.38667 107.018 8C107.018 8.6 107.111 9.14667 107.298 9.64C107.498 10.1333 107.765 10.56 108.098 10.92C108.445 11.2667 108.845 11.5333 109.298 11.72C109.765 11.9067 110.265 12 110.798 12ZM130.055 0.999999H134.015V15H130.055V0.999999ZM124.655 15H120.695V0.999999H124.655V15ZM130.335 9.54H124.375V6.26H130.335V9.54Z" fill="black"/>
</svg>
