<svg width="60" height="65" viewBox="0 0 60 65" fill="none" xmlns="http://www.w3.org/2000/svg">
<path fill-rule="evenodd" clip-rule="evenodd" d="M27.1979 40.471C27.1979 41.884 28.3464 43.0329 29.7582 43.0329C31.1706 43.0329 32.3196 41.8839 32.3196 40.471C32.3196 39.0596 31.1705 37.9112 29.7582 37.9112C28.3463 37.9112 27.1979 39.0597 27.1979 40.471ZM24.9732 40.471C24.9732 37.8318 27.1184 35.6866 29.7582 35.6866C32.3973 35.6866 34.5442 37.8318 34.5442 40.471C34.5442 43.1106 32.3973 45.2576 29.7582 45.2576C27.1186 45.2581 24.9732 43.1112 24.9732 40.471ZM39.197 59.1256C38.9914 55.0974 37.1931 51.5137 34.3937 49.531C31.4874 51.0184 28.028 51.0179 25.1212 49.531C22.3217 51.5139 20.5245 55.0974 20.3195 59.1256C25.8967 63.3526 33.6181 63.3514 39.1966 59.1256H39.197ZM41.4384 59.6351C41.4449 59.9756 41.2938 60.3 41.0304 60.5132C34.4586 65.8519 25.0575 65.8594 18.4865 60.5132C18.2237 60.2995 18.072 59.9757 18.0774 59.6351C18.1567 54.3795 20.6167 49.6464 24.496 47.282C24.8506 47.0656 25.2958 47.0656 25.6504 47.2799C28.1708 48.8019 31.3453 48.8013 33.8657 47.2799C34.2213 47.0656 34.6666 47.0656 35.0212 47.282C38.8999 49.6469 41.3604 54.3801 41.4386 59.6351H41.4384ZM45.2752 5.30699C45.2752 6.71832 46.4236 7.86672 47.8354 7.86672C49.2484 7.86672 50.3968 6.71825 50.3968 5.30699C50.3968 3.89401 49.2484 2.7456 47.8354 2.7456C46.4236 2.7456 45.2752 3.89408 45.2752 5.30699ZM43.0505 5.30699C43.0505 2.66782 45.1957 0.520365 47.8354 0.520365C50.4746 0.520365 52.6215 2.66782 52.6215 5.30699C52.6215 7.94506 50.4746 10.092 47.8354 10.092C45.1959 10.092 43.0505 7.94506 43.0505 5.30699ZM57.2756 23.9603C57.0695 19.9335 55.2717 16.35 52.4723 14.3666C49.5644 15.855 46.1072 15.855 43.1998 14.3666C40.4004 16.3499 38.6032 19.9335 38.3981 23.9603C43.9705 28.1866 51.7033 28.1866 57.2752 23.9603H57.2756ZM59.5165 24.4697C59.5219 24.8103 59.3719 25.1346 59.1074 25.3494C52.5663 30.6746 43.1013 30.6956 36.5635 25.3494C36.3012 25.1341 36.1495 24.8103 36.1555 24.4697C36.2337 19.2142 38.6942 14.481 42.5741 12.1167C42.9287 11.9019 43.3739 11.9002 43.728 12.115C46.2413 13.6391 49.4299 13.6359 51.9443 12.115C52.3 11.9002 52.7452 11.9013 53.0998 12.1167C56.978 14.481 59.4375 19.2142 59.5168 24.4697H59.5165ZM9.12048 5.30665C9.12048 6.71797 10.269 7.86637 11.6808 7.86637C13.0932 7.86637 14.241 6.7179 14.241 5.30665C14.241 3.89366 13.0926 2.74526 11.6808 2.74526C10.269 2.74526 9.12048 3.89373 9.12048 5.30665ZM6.89538 5.30665C6.89538 2.66747 9.04228 0.52002 11.6815 0.52002C14.3206 0.52002 16.4675 2.66747 16.4675 5.30665C16.4675 7.94471 14.3206 10.0916 11.6815 10.0916C9.04228 10.0916 6.89538 7.94471 6.89538 5.30665ZM2.24264 23.9599C7.81499 28.1863 15.5478 28.1863 21.1197 23.9599C20.9141 19.9332 19.1158 16.3497 16.3164 14.3662C13.4101 15.8546 9.9507 15.8546 7.04446 14.3662C4.24502 16.3495 2.44739 19.9332 2.24222 23.9599H2.24264ZM11.6813 29.3574C7.58398 29.3574 3.58101 27.9341 0.409224 25.3495C0.145306 25.1342 -0.00526159 24.8104 0.000140552 24.4698C0.0800148 19.2143 2.53942 14.4811 6.41874 12.1168C6.77278 11.902 7.21857 11.9003 7.57315 12.1151C10.0881 13.6387 13.2734 13.6371 15.7884 12.1151C16.1441 11.9003 16.5893 11.9014 16.9439 12.1168C20.8221 14.4811 23.2826 19.2143 23.3619 24.4698C23.3673 24.8104 23.2168 25.1347 22.9529 25.3495C19.7811 27.9341 15.7787 29.3574 11.6813 29.3574ZM52.8191 42.8902C52.5093 43.4272 51.8282 43.602 51.2987 43.2966L29.7593 30.8603L8.21842 43.2966C7.68845 43.602 7.00843 43.4266 6.69864 42.8902C6.39101 42.358 6.57397 41.6775 7.10611 41.3704L28.6456 28.9342V4.06084C28.6456 3.44613 29.1443 2.94852 29.7584 2.94852C30.3731 2.94852 30.8708 3.44613 30.8708 4.06084V28.9342L52.4116 41.3704C52.9437 41.677 53.1262 42.3575 52.8191 42.8902Z" fill="#AD132F"/>
</svg>
