<svg width="63" height="65" viewBox="0 0 63 65" fill="none" xmlns="http://www.w3.org/2000/svg">
<path d="M46.9523 11.1213C46.9523 7.50445 45.023 4.16238 41.8905 2.35411C38.758 0.545376 34.8994 0.545376 31.7669 2.35411C28.6345 4.16238 26.7051 7.50445 26.7051 11.1213C26.7051 16.7106 31.2405 25.274 36.8287 25.274C42.4169 25.274 46.9523 16.7101 46.9523 11.1213ZM28.2071 11.1213C28.2071 8.04115 29.8504 5.19471 32.5182 3.65462C35.1858 2.11407 38.4725 2.11407 41.1401 3.65462C43.8077 5.19471 45.4511 8.04115 45.4511 11.1213C45.4511 16.0017 41.5053 23.7729 36.8292 23.7729C32.1531 23.7729 28.2072 16.0019 28.2072 11.1213H28.2071Z" fill="#AD132F"/>
<path d="M42.0841 11.0088C42.0841 9.61478 41.5303 8.27811 40.5449 7.29223C39.559 6.30677 38.2222 5.75305 36.8284 5.75305C35.4345 5.75305 34.0977 6.30678 33.1118 7.29223C32.1264 8.27813 31.5726 9.61489 31.5726 11.0088C31.5726 12.4026 32.1264 13.7394 33.1118 14.7253C34.0977 15.7108 35.4345 16.2645 36.8284 16.2645C38.2219 16.2627 39.5576 15.7085 40.5432 14.7235C41.5282 13.738 42.0824 12.4022 42.0842 11.0087L42.0841 11.0088ZM33.0742 11.0088C33.0742 10.013 33.4697 9.05839 34.1736 8.35408C34.8779 7.65019 35.8326 7.25465 36.8283 7.25465C37.824 7.25465 38.7787 7.65017 39.483 8.35408C40.1869 9.05842 40.5824 10.013 40.5824 11.0088C40.5824 12.0045 40.1869 12.9591 39.483 13.6635C38.7786 14.3673 37.824 14.7629 36.8283 14.7629C35.833 14.762 34.8788 14.366 34.175 13.6621C33.4711 12.9582 33.0751 12.004 33.0742 11.0088Z" fill="#AD132F"/>
<path d="M17.8083 30.2802V41.1422L17.3341 41.3424C17.0248 40.9907 16.6132 40.7444 16.1569 40.639C15.7006 40.533 15.2224 40.5733 14.7898 40.7534C13.0835 41.4617 8.20408 43.5063 4.14064 45.2083C2.49369 45.9019 1.1878 47.219 0.508542 48.8721C-0.171222 50.5248 -0.169437 52.3795 0.513458 54.0314L3.34251 60.8419C4.03925 62.4974 5.36347 63.8091 7.02518 64.4902C8.68723 65.1717 10.5513 65.1664 12.2094 64.4759L22.6619 60.0661C23.0874 59.8824 23.4462 59.5718 23.6894 59.1772C23.932 58.7821 24.0478 58.3218 24.0196 57.8592L24.7374 57.5539V57.5535C25.6187 57.1794 26.5858 57.0529 27.5334 57.1888C33.0506 58.0156 42.5178 56.105 47.3975 53.1809H47.3979C52.1384 50.3219 56.6769 47.1412 60.982 43.661C65.2326 40.2404 60.5194 33.895 56.1026 36.7825L55.8482 36.9506L55.8487 30.2803C55.8474 29.285 55.4514 28.3308 54.7479 27.6269C54.044 26.9231 53.0899 26.5271 52.0946 26.5262H21.5605C20.5652 26.528 19.6115 26.9239 18.908 27.6278C18.205 28.3313 17.809 29.2854 17.8081 30.2804L17.8083 30.2802ZM19.3099 34.4437C20.2556 34.858 21.2809 35.06 22.3132 35.0355C23.7219 35.0645 25.1088 34.6842 26.3056 33.941C27.2772 33.3189 28.4128 33.0024 29.5663 33.0333C30.7212 33.0024 31.859 33.3189 32.8329 33.941C34.041 34.6574 35.4196 35.0355 36.8244 35.0355C38.229 35.0355 39.6078 34.6574 40.8163 33.941C41.8022 33.347 42.9315 33.0333 44.0824 33.0333C45.2336 33.0333 46.3631 33.347 47.3489 33.941C48.5453 34.6842 49.9321 35.0645 51.3404 35.0355C52.3741 35.0605 53.4012 34.8585 54.3486 34.4437V37.9793C52.9239 38.9706 51.1571 40.2269 49.8937 41.1185C49.3462 39.6776 47.8151 38.4987 46.2731 38.8816C45.7864 38.9934 45.3221 39.1435 44.869 39.2888C43.0407 39.8765 41.1492 40.4847 36.9844 38.8924C29.1115 35.8783 21.2815 39.6302 20.6945 39.9221L19.3099 40.5067V34.4437ZM11.6265 63.0923C10.3368 63.6295 8.88694 63.6331 7.59444 63.1035C6.30193 62.5739 5.27177 61.5536 4.73015 60.266L1.9003 53.4554C1.36936 52.1709 1.36758 50.7283 1.89628 49.4426C2.42454 48.1568 3.43991 47.1325 4.72086 46.5926C7.02339 45.6286 9.58334 44.556 11.6826 43.6774L18.5402 60.1778L11.6265 63.0923ZM22.079 58.6826L19.9231 59.5921L13.0682 43.094C14.0479 42.685 14.8519 42.3498 15.3649 42.1362H15.3645C15.549 42.0593 15.7569 42.0589 15.9419 42.1358C16.1269 42.2122 16.2735 42.3597 16.349 42.5447L22.4803 57.7111C22.6332 58.09 22.4549 58.5218 22.079 58.6822L22.079 58.6826ZM56.9436 38.0279C59.8249 36.1902 62.8201 40.2362 60.043 42.4909C55.7986 45.9375 51.316 49.0789 46.6283 51.8927C42.0733 54.622 32.9012 56.4755 27.7573 55.7037C26.5358 55.5267 25.2894 55.6885 24.1533 56.1707L23.5745 56.4165L18.0185 42.6791L21.2975 41.295C21.4611 41.2253 28.9935 37.4729 36.4444 40.2939C41.1032 42.0743 43.3466 41.3535 45.3256 40.7176C45.7663 40.5759 46.1806 40.4355 46.6057 40.3448C47.7828 40.0945 48.6874 41.5287 48.6887 42.6165C48.6887 43.9062 46.4957 45.4378 45.3771 45.9344C43.9041 46.5887 40.8642 46.5851 39.2704 46.3764L39.2709 46.3759C38.8597 46.3219 38.4829 46.6115 38.4289 47.0226C38.3748 47.4342 38.6644 47.811 39.076 47.8651C40.8726 48.0885 44.2227 48.1028 45.9836 47.3064C46.0251 47.2872 50.0381 45.4262 50.1743 42.7515C51.9503 41.5033 55.4869 38.9562 56.9434 38.0276L56.9436 38.0279ZM54.3487 30.2801V32.7699C53.4388 33.3049 52.3953 33.5694 51.3405 33.5337C50.1857 33.5641 49.0478 33.2481 48.0744 32.626C46.866 31.9096 45.4872 31.5315 44.0825 31.5315C42.6779 31.5315 41.2991 31.9096 40.091 32.626C39.1051 33.22 37.9758 33.5337 36.8245 33.5337C35.6736 33.5337 34.5443 33.22 33.5584 32.626C32.3508 31.9096 30.9729 31.5319 29.5687 31.5319C28.1649 31.5319 26.7872 31.9096 25.5796 32.626C24.6062 33.2486 23.4683 33.5645 22.3135 33.5337C21.2601 33.569 20.2187 33.304 19.3102 32.7699V30.2801C19.3106 29.683 19.5484 29.1105 19.9707 28.6882C20.393 28.2658 20.9655 28.0281 21.5626 28.0276H52.0967C52.6938 28.0281 53.2663 28.2658 53.6886 28.6882C54.111 29.1105 54.3487 29.683 54.3492 30.2801H54.3487Z" fill="#AD132F"/>
</svg>
