<svg width="71" height="64" viewBox="0 0 71 64" fill="none" xmlns="http://www.w3.org/2000/svg">
<path d="M64.0001 39.8191C63.5285 39.8191 62.8801 39.9722 61.9051 40.3048C60.9346 40.6359 59.6631 41.1363 57.9528 41.8152L57.9374 41.8213C55.7726 42.6812 53.2031 43.7018 50.7482 44.508C48.2934 45.3142 45.9291 45.9143 44.1905 45.9143C43.7885 45.9143 43.4133 45.7461 42.7153 45.4284L64.0001 39.8191ZM64.0001 39.8191C67.2505 39.8196 69.8944 42.4638 69.8944 45.7143C69.8944 46.9714 69.1794 48.24 68.3613 49.2739C67.5543 50.2939 66.6728 51.0534 66.3705 51.3016C65.8909 51.6269 61.1828 54.7391 55.0395 57.7769C48.8555 60.835 41.2515 63.8 35.0476 63.8C26.1323 63.8 18.8816 60.6956 15.3309 58.835L15.0381 58.6816V59.0122V59.4285C15.0381 60.1607 14.4448 60.7523 13.7143 60.7523H1.52381C0.793281 60.7523 0.2 60.1607 0.2 59.4285V35.0476C0.2 34.3153 0.793281 33.7237 1.52381 33.7237H13.7143C14.4448 33.7237 15.0381 34.3153 15.0381 35.0476V36.4863V36.676L15.2275 36.686C15.417 36.6961 15.6042 36.7096 15.785 36.7238L15.785 36.7238L15.7873 36.724C15.8312 36.7269 15.8755 36.73 15.9201 36.733C16.1917 36.7518 16.4759 36.7714 16.7619 36.7714C23.0219 36.7714 26.2718 39.6755 27.0442 42.7232L27.082 42.8722L27.2356 42.8741C32.3115 42.9356 35.6785 43.3466 38.026 43.855C40.3696 44.3625 41.7021 44.968 42.7146 45.4281L42.7151 45.4283L64.0001 39.8191ZM65.2596 48.8752L64.7229 49.2278C64.1208 49.6232 59.5295 52.6011 53.6813 55.4808C47.842 58.3562 40.7134 61.1524 35.0477 61.1524C25.2767 61.1524 17.4363 57.0392 15.1374 55.6987L15.0381 55.6408V55.5259V39.5442V39.3308L15.251 39.3446C15.2942 39.3474 15.3412 39.3499 15.3899 39.3524L65.2596 48.8752ZM65.2596 48.8752L65.125 48.8722M65.2596 48.8752L65.125 48.8722M65.125 48.8722C65.5541 48.471 66.0048 47.9864 66.3786 47.5023C66.6225 47.1864 66.837 46.8665 66.9913 46.5668C67.1434 46.2716 67.2477 45.976 67.2477 45.7143C67.2477 43.9229 65.7915 42.4667 64.0001 42.4667V42.4662L63.9868 42.4671C63.8149 42.4785 63.5311 42.555 63.1936 42.6628C62.8479 42.7733 62.4228 42.9245 61.9563 43.0981C61.0575 43.4326 59.9969 43.8533 59.0401 44.2328L58.931 44.2761L58.9308 44.2761C56.5192 45.235 53.8198 46.3074 51.2253 47.1403C48.6272 47.9745 46.1535 48.5619 44.1905 48.5619C43.2161 48.5619 42.5004 48.2386 41.6271 47.8441L41.6205 47.8411C41.6203 47.8411 41.6202 47.841 41.6201 47.841C39.8168 47.0192 36.4855 45.5143 25.9048 45.5143C25.1743 45.5143 24.581 44.9227 24.581 44.1904C24.581 42.9723 23.8795 41.7731 22.559 40.8866C21.2386 40.0003 19.2921 39.419 16.7619 39.419C16.3695 39.419 15.9831 39.3924 15.5941 39.3644L65.125 48.8722ZM12.1905 58.1048H12.3905V57.9048V36.5714V36.3714H12.1905H3.04764H2.84764V36.5714V57.9048V58.1048H3.04764H12.1905Z" fill="#AD132F" stroke="white" stroke-width="0.4"/>
<path d="M51.2219 12.7782L51.2222 12.7785C51.4705 13.0256 51.6096 13.3629 51.6096 13.7143V28.9524C51.6096 29.6829 51.018 30.2762 50.2858 30.2762H25.9048C25.1744 30.2762 24.581 29.6828 24.581 28.9524V13.7143C24.581 13.3629 24.72 13.0258 24.9687 12.7795L24.9694 12.7788L37.1598 0.588364L37.1599 0.588281C37.677 0.0706187 38.5135 0.0704998 39.0314 0.588364L45.5728 7.12978L45.9142 7.4712V6.98835V4.57133C45.9142 3.8408 46.5058 3.24752 47.2381 3.24752C47.9703 3.24752 48.5619 3.8408 48.5619 4.57133V10.036V10.1188L48.6205 10.1774L51.2219 12.7782ZM27.2872 14.2035L27.2286 14.262L27.2286 14.3449L27.2287 27.4287L27.2287 27.6287H27.4287H48.7621H48.9621V27.4287V14.345V14.2622L48.9035 14.2036L46.3035 11.6022L46.2449 11.5436H46.2435L38.2367 3.53678L38.0953 3.39536L37.9539 3.53678L27.2872 14.2035Z" fill="#AD132F" stroke="white" stroke-width="0.4"/>
</svg>
