<svg width="56" height="65" viewBox="0 0 56 65" fill="none" xmlns="http://www.w3.org/2000/svg">
<path d="M13.9023 16.5831C17.697 16.5831 20.7815 13.4986 20.7815 9.70395V7.88003C20.7877 4.07909 17.697 0.994629 13.9023 0.994629C10.114 0.994629 7.02277 4.07909 7.02277 7.87375V9.69766C7.02277 13.4923 10.114 16.5831 13.9023 16.5831ZM8.87879 7.87375C8.87879 5.10309 11.1312 2.85019 13.9023 2.85019C16.673 2.85019 18.9259 5.10263 18.9259 7.87375V9.69766C18.9259 12.4683 16.6735 14.7212 13.9023 14.7212C11.1317 14.7212 8.87879 12.4688 8.87879 9.69766V7.87375Z" fill="#AD132F"/>
<path d="M41.6501 16.5831C45.4448 16.5831 48.5292 13.4986 48.5292 9.70395V7.88003C48.5297 4.07909 45.4452 0.994629 41.6501 0.994629C37.8555 0.994629 34.771 4.07909 34.771 7.87375V9.69766C34.771 13.4923 37.8555 16.5831 41.6501 16.5831ZM36.6203 7.87375C36.6203 5.10309 38.8727 2.85019 41.6438 2.85019C44.4145 2.85019 46.6674 5.10263 46.6674 7.87375V9.69766C46.6674 12.4683 44.415 14.7212 41.6438 14.7212C38.8732 14.7212 36.6203 12.4688 36.6203 9.69766V7.87375Z" fill="#AD132F"/>
<path d="M53.2385 36.2357C54.1282 32.6139 55.2285 28.1085 55.5102 25.3695C55.7084 23.4564 55.0687 21.5749 53.7184 20.071C52.1891 18.3752 49.9108 17.3641 47.6132 17.3641H35.6854C33.9959 17.3641 32.2938 17.9145 30.9051 18.8934C30.0093 18.1895 28.8831 17.7672 27.6542 17.7672C26.4833 17.7672 25.4018 18.1511 24.5251 18.7975C23.1556 17.8632 21.5303 17.3574 19.8729 17.3574L7.93821 17.3578C5.64738 17.3578 3.36283 18.3626 1.8398 20.0517C0.483269 21.5555 -0.163059 23.437 0.0350905 25.3569C0.323001 28.1597 1.38534 32.4731 2.31964 36.2808C2.53078 37.1512 2.74191 37.9829 2.9276 38.7636C3.4204 40.8308 4.58502 42.1936 6.12725 42.5842V60.4953C6.12725 62.9718 8.14314 64.9876 10.6195 64.9876H13.8384C13.8638 64.9876 13.8897 64.9814 13.9089 64.9814C13.9344 64.9814 13.9536 64.9876 13.9794 64.9876H17.1983C19.6748 64.9876 21.6906 62.9717 21.6906 60.4953L21.6901 48.5606C21.7031 48.5669 21.7156 48.5669 21.7223 48.5736V61.4625C21.7223 63.4077 23.3029 64.9946 25.2545 64.9946H27.6029C27.6221 64.9946 27.635 64.9884 27.6542 64.9884C27.6734 64.9884 27.6864 64.9946 27.7056 64.9946H30.054C31.9992 64.9946 33.5862 63.414 33.5862 61.4625L33.5866 50.8587H33.8683V60.5023C33.8683 62.9788 35.8842 64.9946 38.3606 64.9946H41.5794C41.6049 64.9946 41.624 64.9884 41.6499 64.9884C41.6754 64.9884 41.6946 64.9946 41.7205 64.9946H44.9393C47.4158 64.9946 49.4316 62.9787 49.4316 60.5023L49.4312 50.8587H52.9509C53.2258 50.8587 53.4883 50.7373 53.6678 50.5262C53.8468 50.315 53.9173 50.0334 53.866 49.7646L52.0742 40.3193C52.3107 39.8586 52.4964 39.3404 52.6308 38.7771C52.8035 38.0218 53.0147 37.1643 53.2388 36.2363L53.2385 36.2357ZM31.0719 23.0406V24.3717C31.0719 26.2595 29.5359 27.7887 27.6549 27.7887C25.7671 27.7887 24.2379 26.2527 24.2379 24.3717V23.0406C24.2379 21.1528 25.7738 19.6236 27.6549 19.6236C29.5359 19.6232 31.0719 21.1592 31.0719 23.0406ZM31.7312 61.4558C31.7312 62.3771 30.9826 63.1324 30.0546 63.1324H28.6337V47.1982C28.6337 46.6862 28.2177 46.2702 27.7057 46.2702C27.1937 46.2702 26.7776 46.6862 26.7776 47.1982V63.1324H25.2483C24.327 63.1324 23.5717 62.3838 23.5717 61.4558V36.6197C23.5717 36.1077 23.1557 35.6917 22.6437 35.6917C22.1317 35.6917 21.7157 36.1077 21.7157 36.6197V46.3914C21.6518 46.3084 21.5876 46.2187 21.5367 46.1227C21.5304 46.1164 21.5237 46.1035 21.5175 46.0905C21.351 45.7964 21.2487 45.4696 21.1912 45.2139C21.0568 44.6443 20.9033 44.0301 20.7497 43.3967C20.0779 40.6707 19.3164 37.58 19.1178 35.6409C19.0218 34.7003 19.3481 33.7594 20.0266 33.0046C20.8394 32.1025 22.0617 31.5645 23.2901 31.5645H31.9994C33.2283 31.5645 34.4505 32.1019 35.2696 33.0108C35.9543 33.766 36.2744 34.7003 36.1784 35.6409C35.9865 37.5287 35.1928 40.7604 34.5594 43.352C34.3929 44.0367 34.2331 44.6701 34.105 45.2206C34.0219 45.5661 33.8684 46.0397 33.58 46.3914L33.5805 36.6197C33.5805 36.1077 33.1644 35.6917 32.6524 35.6917C32.1404 35.6917 31.7244 36.1077 31.7244 36.6197V61.4558L31.7312 61.4558ZM35.7178 60.4956V50.8583H40.786V63.1324H38.3542C36.9017 63.1324 35.7179 61.9482 35.7179 60.4956H35.7178ZM47.5759 60.4956C47.5759 61.9482 46.3922 63.1319 44.9396 63.1319H42.6488L42.6484 50.8578H47.5759L47.5759 60.4956ZM49.4123 26.2983C49.3163 25.7925 48.8298 25.4662 48.3307 25.5622C47.825 25.6582 47.4987 26.1447 47.5946 26.6438L51.8375 48.9967L41.7266 48.9963H41.7204H33.5869V48.5673C34.7131 48.2026 35.5576 47.1724 35.9161 45.6426C36.0442 45.0985 36.1977 44.4718 36.3643 43.787C37.0106 41.1377 37.8235 37.8422 38.028 35.8263C38.1815 34.3546 37.6887 32.9147 36.6522 31.7629C36.1786 31.2379 35.609 30.8032 34.9819 30.464L35.705 26.6372C35.801 26.1314 35.4684 25.6516 34.9689 25.5556C34.4632 25.4596 33.9833 25.7922 33.8874 26.2917L33.2156 29.8306C32.8187 29.7538 32.4157 29.7092 32.0126 29.7092H23.297C22.7529 29.7092 22.2092 29.786 21.6843 29.9266V26.4644C21.6843 25.9524 21.2683 25.5364 20.7563 25.5364C20.2443 25.5364 19.8282 25.9524 19.8282 26.4644V30.7581C19.3993 31.0398 19.0029 31.3791 18.6574 31.7562C17.6209 32.9079 17.1281 34.348 17.2749 35.8197C17.4861 37.8869 18.2605 41.0414 18.9453 43.8317C19.0988 44.4651 19.2524 45.073 19.3867 45.6364C19.4956 46.0846 19.6425 46.481 19.8282 46.8394V60.4767C19.8282 61.9292 18.6444 63.113 17.1919 63.113H14.9011V40.9657C14.9011 40.4537 14.4851 40.0377 13.9731 40.0377C13.4611 40.0377 13.045 40.4537 13.045 40.9657L13.0455 63.1324H10.6136C9.16112 63.1324 7.97736 61.9487 7.97736 60.4961L7.97692 26.4713C7.97692 25.9593 7.5609 25.5433 7.04889 25.5433C6.60073 25.5433 6.22978 25.8634 6.14007 26.2857C6.12712 26.3432 6.12087 26.4071 6.12087 26.4713L6.12132 40.6069C5.28928 40.1333 4.89917 39.0518 4.72639 38.3353C4.5407 37.5546 4.33625 36.7163 4.11842 35.8458C3.1971 32.0959 2.15396 27.853 1.87845 25.1782C1.73783 23.7896 2.211 22.4139 3.21578 21.3C4.39336 19.9944 6.15968 19.2136 7.93846 19.2136H19.8663C21.05 19.2136 22.2147 19.5529 23.2257 20.1734C22.6882 20.9987 22.3744 21.9843 22.3744 23.0405V24.3715C22.3744 27.277 24.7421 29.6446 27.6476 29.6446C30.5531 29.6446 32.9207 27.277 32.9207 24.3715V23.0405C32.9207 22.0294 32.6328 21.0889 32.14 20.2823C33.1832 19.5975 34.4374 19.2136 35.6789 19.2136L47.6147 19.2141C49.3935 19.2141 51.1661 19.9948 52.3437 21.3066C53.3418 22.4137 53.8154 23.7894 53.6685 25.1718C53.3998 27.7827 52.312 32.2237 51.4416 35.788C51.397 35.967 51.3586 36.1335 51.3135 36.3062L49.4123 26.2983Z" fill="#AD132F"/>
</svg>
