<svg width="58" height="65" viewBox="0 0 58 65" fill="none" xmlns="http://www.w3.org/2000/svg">
<path d="M57.3356 47.5731C57.074 46.6595 56.4438 45.8961 55.5959 45.466L47.9196 41.606V3.44485C47.9186 2.75621 47.6447 2.09603 47.1577 1.60898C46.6706 1.12189 46.0104 0.848075 45.3218 0.847046H7.77045C7.51597 0.847046 7.27522 0.960546 7.11337 1.1565L0.190863 9.54731L0.191372 9.54782C0.16287 9.58344 0.136913 9.62111 0.114009 9.66081L0.105866 9.67302C0.0849974 9.7112 0.0666753 9.7509 0.0514059 9.79212L0.0447893 9.81044C0.0305375 9.85116 0.0193416 9.8929 0.0117063 9.93565V9.95448C0.00407185 9.99927 0.000508937 10.0441 0 10.0888V58.4274C0.00101787 59.116 0.274847 59.7762 0.761933 60.2627C1.24851 60.7498 1.90864 61.0236 2.59728 61.0247H14.0751C14.07 61.0975 14.0664 61.1707 14.0664 61.2435V63.996L14.0659 63.9955C14.0659 64.2215 14.1555 64.4383 14.3153 64.5981C14.4751 64.758 14.6919 64.8475 14.9179 64.847H33.0017C33.4705 64.847 33.8512 64.4673 33.8522 63.9986V61.2461C33.8522 61.1733 33.8522 61.1 33.8441 61.0272H45.3218C46.0105 61.0267 46.6707 60.7529 47.1577 60.2658C47.6443 59.7792 47.9186 59.1191 47.9196 58.4305V51.9431L50.7734 53.8167H50.7729C51.3251 54.1796 51.9715 54.3725 52.6322 54.3709C52.9142 54.3704 53.1951 54.3368 53.4695 54.2717C54.4782 54.0304 55.344 53.3866 55.8647 52.4898L56.9905 50.5394C57.5071 49.6395 57.6323 48.5677 57.3356 47.5731ZM7.12727 3.81711V8.34138C7.12676 8.83508 6.72722 9.23513 6.23352 9.23564H2.65441L7.12727 3.81711ZM32.1493 63.1461H15.7646V61.2451C15.7656 60.3295 16.5077 59.5868 17.4238 59.5859H30.4899C31.4055 59.5869 32.1482 60.3295 32.1491 61.2451L32.1493 63.1461ZM29.6385 57.8824H18.2753V56.324C18.2763 55.6313 18.8372 55.0704 19.5294 55.0693H28.3839C29.0766 55.0704 29.6375 55.6313 29.6385 56.324L29.6385 57.8824ZM46.2148 58.4265H46.2143C46.2138 58.9202 45.8142 59.3203 45.3205 59.3208H33.2436C32.7871 58.6663 32.1127 58.196 31.3411 57.9924V56.324C31.34 55.5397 31.0281 54.7879 30.4738 54.2331C29.9195 53.6788 29.1678 53.3668 28.3834 53.3658H19.5289C18.7451 53.3668 17.9934 53.6788 17.4386 54.2331C16.8843 54.7879 16.5723 55.5396 16.5713 56.324V57.9929V57.9924C15.7997 58.196 15.1258 58.6668 14.6687 59.3208H2.59144C2.09824 59.3198 1.6987 58.9202 1.69769 58.4265V10.9401H6.23264C6.92128 10.9396 7.58147 10.6658 8.06851 10.1787C8.5556 9.69161 8.82942 9.03148 8.83045 8.34282V2.55273H45.3199C45.8125 2.55374 46.2116 2.95176 46.2136 3.44445V40.7469L36.0617 35.6394L36.2724 35.2745H40.7346C41.2049 35.2745 41.5861 34.8933 41.5861 34.423C41.5861 33.9527 41.2049 33.5715 40.7346 33.5715H38.6188C39.5212 33.372 40.2985 32.8029 40.7601 32.0028L41.8116 30.1822C42.088 29.7038 42.1628 29.1353 42.0203 28.6013C41.8773 28.0679 41.5281 27.6129 41.0502 27.3366L33.2966 22.8611C32.8181 22.5853 32.2496 22.51 31.7162 22.653C31.1823 22.796 30.7273 23.1446 30.4509 23.6231L29.3994 25.4472C29.1607 25.8605 29.0146 26.3211 28.9719 26.7964H7.17592C6.7153 26.8097 6.34884 27.1873 6.34884 27.6484C6.34884 28.1091 6.7153 28.4867 7.17592 28.5H29.2741C29.4065 28.784 29.5785 29.0476 29.7851 29.2833L27.3044 33.5739L7.1763 33.5734C6.70601 33.5734 6.32479 33.9546 6.32479 34.4249C6.32479 34.8952 6.70601 35.2764 7.1763 35.2764H26.3272L23.8546 39.5625C22.8275 39.3584 21.7648 39.6501 20.9855 40.3494H7.17669C6.7064 40.3494 6.32518 40.7306 6.32518 41.2009C6.32518 41.6712 6.7064 42.0524 7.17669 42.0524H19.8149L19.2861 42.968C19.0102 43.4465 18.9354 44.015 19.0784 44.5484C19.2214 45.0823 19.5706 45.5368 20.0485 45.8137L22.3252 47.1268H7.17694C6.71631 47.1406 6.34985 47.5177 6.34985 47.9788C6.34985 48.44 6.71631 48.8171 7.17694 48.8308H25.2725L27.7985 50.29C28.2769 50.5664 28.8455 50.6412 29.3794 50.4982C29.9128 50.3557 30.3683 50.0065 30.6447 49.5281L31.0473 48.8313H40.7354C40.9986 48.8329 41.2475 48.7117 41.4088 48.5046C41.5707 48.2969 41.6267 48.0261 41.561 47.7712L46.215 50.8275L46.2148 58.4265ZM20.8996 44.3337C20.7214 44.2273 20.6598 43.9988 20.7611 43.8176L21.8127 41.9935C22.257 41.2331 23.2312 40.9725 23.9956 41.4097L29.636 44.666V44.6665C30.3964 45.1109 30.657 46.0851 30.2198 46.8495L29.1693 48.6737H29.1688C29.0624 48.8518 28.8334 48.9129 28.6522 48.8116L20.8996 44.3337ZM32.0262 45.1984C31.8944 44.7047 31.6496 44.2492 31.3111 43.8664L32.3606 42.0494H32.8548L40.5805 47.1229L31.9601 47.1234C32.1738 46.5025 32.1972 45.832 32.0262 45.1984ZM29.9257 42.8633L25.4163 40.2599L31.1803 30.2765L35.6888 32.8798L29.9257 42.8633ZM30.8815 26.2922L31.9331 24.4716C32.0389 24.2934 32.2675 24.2319 32.4486 24.3326L40.1987 28.8121C40.3763 28.919 40.4374 29.1475 40.3361 29.3287L39.2845 31.1493H39.2851C38.8428 31.9128 37.866 32.1739 37.1016 31.7331L31.4627 28.4783C31.0881 28.2625 30.8174 27.9032 30.713 27.4838L30.7074 27.4553H30.7069C30.6138 27.0608 30.6749 26.646 30.8779 26.2948L30.8815 26.2922ZM55.514 49.6869L54.3877 51.6367L54.3872 51.6362C54.1021 52.1284 53.6273 52.4811 53.074 52.6124C52.6073 52.7326 52.1116 52.6537 51.7059 52.3936L47.5426 49.6589L33.3494 40.3372L35.2091 37.1164L54.8278 46.9863C55.2559 47.2072 55.5735 47.596 55.7033 48.0602C55.8656 48.6053 55.7974 49.1932 55.5144 49.6868L55.514 49.6869ZM23.641 14.0913C23.641 13.621 24.0222 13.2398 24.4925 13.2398H40.7352C41.2055 13.2398 41.5867 13.621 41.5867 14.0913C41.5867 14.5616 41.2055 14.9428 40.7352 14.9428H24.4925C24.0222 14.9428 23.641 14.5616 23.641 14.0913ZM15.329 20.7217C15.329 19.7383 14.8831 19.5576 13.5049 19.2574C12.2477 18.9861 10.3482 18.5687 10.3482 16.1404C10.337 15.4233 10.5813 14.7261 11.0373 14.1727C11.4929 13.619 12.1306 13.2459 12.8366 13.1192V12.4626C12.8295 12.2325 12.9165 12.0091 13.0768 11.8442C13.2372 11.6788 13.458 11.5856 13.6881 11.5856C13.9187 11.5856 14.139 11.6788 14.2994 11.8442C14.4602 12.0091 14.5467 12.2325 14.5401 12.4626V13.1192C15.2466 13.2449 15.8853 13.6179 16.3418 14.1712C16.7989 14.7249 17.0437 15.4227 17.0325 16.1404C17.0193 16.601 16.6416 16.9674 16.1805 16.9674C15.7199 16.9674 15.3422 16.601 15.329 16.1404C15.3127 15.7301 15.1269 15.3453 14.817 15.0771C14.5065 14.8094 14.0988 14.6816 13.6906 14.7254C13.2829 14.6816 12.8753 14.8094 12.5643 15.0771C12.2538 15.3453 12.0685 15.7301 12.0517 16.1404C12.0517 17.113 12.4956 17.2916 13.8673 17.5915C15.128 17.8663 17.0326 18.2816 17.0326 20.7201C17.0438 21.4378 16.7995 22.1355 16.3434 22.6893C15.8869 23.2431 15.2486 23.6166 14.5422 23.7423V24.3989C14.529 24.8601 14.1513 25.2265 13.6907 25.2265C13.2296 25.2265 12.8519 24.8601 12.8387 24.3989V23.7423C12.1322 23.6166 11.494 23.2431 11.0375 22.6893C10.5814 22.1355 10.3371 21.4377 10.3483 20.7201C10.3616 20.2595 10.7392 19.8931 11.2003 19.8931C11.661 19.8931 12.0386 20.2595 12.0518 20.7201C12.0686 21.1304 12.2539 21.5151 12.5644 21.7829C12.8754 22.0511 13.283 22.1788 13.6907 22.1351C14.0984 22.1788 14.5061 22.0516 14.8166 21.7834C15.1265 21.5156 15.3122 21.1314 15.329 20.7217ZM23.6415 20.8677H23.641C23.641 20.3974 24.0222 20.0162 24.4925 20.0162H40.7352C41.2055 20.0162 41.5867 20.3974 41.5867 20.8677C41.5867 21.338 41.2055 21.7192 40.7352 21.7192H24.4925C24.0227 21.7192 23.6415 21.3385 23.641 20.8683L23.6415 20.8677Z" fill="#AD132F"/>
</svg>
