<svg width="71" height="65" viewBox="0 0 71 65" fill="none" xmlns="http://www.w3.org/2000/svg">
<path d="M69.919 45.2138L60.074 35.3693V25.2498C60.074 24.9588 59.9584 24.6795 59.7526 24.4737C59.5468 24.2679 59.2675 24.1523 58.9765 24.1523H52.2928C51.6867 24.1523 51.1952 24.6438 51.1952 25.2498V26.49L46.4262 21.721C46.2205 21.5152 45.9412 21.3991 45.6496 21.3991C45.3586 21.3991 45.0793 21.5152 44.873 21.721L21.4019 45.2134C20.9732 45.6426 20.9732 46.3379 21.4019 46.7667C21.8307 47.1954 22.5259 47.1954 22.9552 46.7667L45.6737 24.0482L51.5181 29.9147C51.8317 30.2263 52.3021 30.3194 52.7112 30.1504C53.1198 29.9813 53.3874 29.5835 53.3893 29.141V26.3476H57.8785L57.878 35.8247C57.8794 36.1153 57.996 36.3936 58.2018 36.5984L68.3707 46.7673C68.7994 47.196 69.4947 47.196 69.9235 46.7673C70.3527 46.3386 70.3527 45.6433 69.9235 45.214L69.919 45.2138Z" fill="#AD132F"/>
<path d="M60.8803 42.5634C60.2742 42.5634 59.7827 43.0549 59.7827 43.661V62.6704H51.9627V51.695C51.9627 51.4039 51.8471 51.1246 51.6413 50.9188C51.4355 50.7131 51.1562 50.5974 50.8652 50.5974H40.1915C39.5854 50.5974 39.094 51.0884 39.094 51.695V62.6704H31.2794V43.661C31.2794 43.0549 30.7879 42.5634 30.1818 42.5634C29.5757 42.5634 29.0843 43.0549 29.0843 43.661V63.7679C29.0843 64.059 29.1999 64.3378 29.4057 64.5441C29.6115 64.7498 29.8908 64.8655 30.1818 64.8655H40.1915C40.4826 64.8655 40.7619 64.7498 40.9677 64.5441C41.1734 64.3378 41.2891 64.059 41.2891 63.7679V52.7925H49.7676V63.7679C49.7676 64.059 49.8833 64.3378 50.0891 64.5441C50.2948 64.7498 50.5741 64.8655 50.8652 64.8655H60.8803C61.1713 64.8655 61.4506 64.7498 61.6564 64.5441C61.8622 64.3378 61.9778 64.059 61.9778 63.7679V43.661C61.9778 43.3699 61.8622 43.0906 61.6564 42.8848C61.4506 42.6791 61.1713 42.5634 60.8803 42.5634Z" fill="#AD132F"/>
<path d="M18.2028 36.0221C17.5967 36.0221 17.1053 36.5135 17.1053 37.1196V63.7629C17.1053 64.3695 17.5967 64.8605 18.2028 64.8605C18.8094 64.8605 19.3004 64.3695 19.3004 63.7629V37.1196C19.3004 36.8286 19.1847 36.5498 18.9789 36.3435C18.7732 36.1377 18.4939 36.0221 18.2028 36.0221Z" fill="#AD132F"/>
<path d="M13.3134 50.1534C11.4638 50.5258 9.54266 50.1132 8.00898 49.0142C6.47493 47.9152 5.46645 46.2292 5.22348 44.358C4.98095 42.4868 5.5258 40.5989 6.72818 39.1451C7.09076 38.7061 7.05745 38.0627 6.65126 37.6635C2.97154 34.0681 1.40802 28.8282 2.51534 23.8043C3.62317 18.7801 7.24506 14.6835 12.0953 12.9685C12.6544 12.7691 12.9533 12.161 12.77 11.5965C12.0934 9.46856 12.5412 7.14315 13.9597 5.41844C15.3777 3.69373 17.5733 2.80541 19.7913 3.05829C22.01 3.31111 23.9492 4.67073 24.9429 6.67039C25.9365 8.66993 25.8493 11.0366 24.7116 12.9577C24.4039 13.4678 24.5597 14.1307 25.0624 14.4501C29.3703 17.1739 31.9754 21.9208 31.9608 27.0173C31.9603 27.7337 31.9088 28.4485 31.8069 29.1575C31.7207 29.7636 32.142 30.3251 32.7481 30.4113C33.3542 30.498 33.9157 30.0767 34.002 29.4706C34.1191 28.6577 34.1774 27.8379 34.1779 27.0172C34.1887 21.5305 31.5531 16.3754 27.0987 13.1719C28.2178 10.6187 28.0585 7.68616 26.669 5.26956C25.2799 2.85296 22.8256 1.24002 20.0562 0.922543C17.2869 0.605535 14.5318 1.62173 12.6317 3.66151C10.732 5.70181 9.91382 8.52205 10.4268 11.262C7.33604 12.5757 4.70005 14.7693 2.8459 17.5694C0.992367 20.3701 0.00257308 23.6535 6.4413e-05 27.0117C-0.011695 31.2798 1.58705 35.3957 4.47791 38.5359C3.18093 40.5207 2.71934 42.9373 3.19322 45.2607C3.66702 47.5841 5.03797 49.6273 7.00866 50.9459C8.97934 52.2644 11.391 52.7529 13.7193 52.3046C14.3147 52.188 14.7032 51.6103 14.5866 51.015C14.4695 50.4192 13.8923 50.0311 13.297 50.1477L13.3134 50.1534Z" fill="#AD132F"/>
</svg>
