<svg width="84" height="64" viewBox="0 0 84 64" fill="none" xmlns="http://www.w3.org/2000/svg">
<mask id="path-1-inside-1_131_528" fill="white">
<path d="M68.191 26.4656C68.9274 25.8509 69.544 24.966 69.544 23.6428V12.5156C69.544 10.2281 67.6589 8.34296 65.3713 8.34296H48.6838V4.16774C48.6838 1.88015 46.7906 0.000620934 44.503 0.000620934L25.0369 0C22.7493 0 20.8698 1.87953 20.8698 4.16712V8.34234L4.17268 8.34296C1.8851 8.34296 0 10.2281 0 12.5156V23.6428C0 24.8064 0.570012 25.8428 1.31203 26.4923C2.05405 27.1418 2.9234 27.5007 3.77336 27.7553L24.6177 34.3378C26.429 34.9817 27.307 32.1987 25.4541 31.6863L4.58114 25.0964C3.94592 24.9064 3.42559 24.6431 3.14555 24.3984C2.86551 24.1532 2.78167 24.0209 2.78167 23.6434V12.5162C2.78167 11.7214 3.37839 11.1253 4.17257 11.1253L65.3719 11.1247C66.1667 11.1247 66.7628 11.7208 66.7628 12.5156V23.6428C66.7628 23.8874 66.7038 24.0824 66.407 24.3301C66.1139 24.5748 65.547 24.8542 64.8776 25.1231L44.0905 31.6863C42.2377 32.1986 43.1156 34.9816 44.9269 34.3378L65.8396 27.7322C66.6368 27.4149 67.4559 27.0796 68.1923 26.4649L68.191 26.4656ZM25.0352 2.78225H44.5013C45.2961 2.78225 45.8978 3.37339 45.8978 4.16755V8.34277H23.6372V4.16755C23.6372 3.37275 24.2389 2.78225 25.0336 2.78225H25.0352ZM30.6013 27.812C29.8276 27.8095 29.2005 28.4373 29.2048 29.2109V38.9446C29.2048 42.0027 31.7103 44.5082 34.7684 44.5082C37.8264 44.5082 40.3345 42.0027 40.3345 38.9446V29.2109C40.3388 28.4416 39.7185 27.8151 38.9492 27.812H30.6013ZM4.15206 30.5745C3.37838 30.5795 2.75993 31.2191 2.77482 31.9927V59.8074C2.77482 62.095 4.66803 63.9745 6.95561 63.9745H52.8487C54.6625 63.9323 54.6625 61.2331 52.8487 61.1928H6.95561C6.16081 61.1928 5.55664 60.6016 5.55664 59.8075V31.9928C5.57217 31.2085 4.9363 30.5671 4.15206 30.5745ZM63.9875 31.9958V34.8428C59.2988 35.1502 57.7657 37.5085 54.2538 37.5594C52.961 37.5594 51.5688 37.0471 51.0566 36.5734C49.6328 35.2589 47.8569 37.3483 49.0983 38.5454C50.016 39.4302 51.4361 39.9289 52.2142 40.1046L47.4138 50.9082C47.3374 51.0865 47.3001 51.2796 47.3026 51.4733C47.3026 51.4733 47.2834 53.1492 48.1446 54.8717C49.0059 56.5942 50.8065 58.4222 54.2515 58.4222C57.6965 58.4222 59.4997 56.5942 60.3609 54.8717C61.2222 53.1492 61.2004 51.4733 61.2004 51.4733C61.2029 51.2796 61.1657 51.0865 61.0893 50.9082L56.2919 40.1127C59.1358 39.6613 60.8067 37.5662 65.3601 37.5644C69.9308 37.5694 71.6011 39.6713 74.45 40.1233L69.6526 50.9189C69.5762 51.0971 69.5383 51.2902 69.5414 51.484C69.5414 51.484 69.5197 53.1599 70.3809 54.8823C71.2422 56.6048 73.0454 58.4329 76.4904 58.4329C79.9353 58.4329 81.736 56.6048 82.5973 54.8823C83.4591 53.1599 83.4393 51.484 83.4393 51.484C83.4417 51.2902 83.4045 51.0971 83.3281 50.9189L78.5277 40.1152C79.3057 39.9389 80.7258 39.4409 81.6436 38.5561C82.8849 37.3589 81.109 35.2694 79.6852 36.584C79.1723 37.0578 77.7809 37.5701 76.4881 37.5701C72.9761 37.5173 71.4431 35.1609 66.7544 34.8535V32.0065C66.7631 31.2378 66.1508 30.6075 65.3716 30.5939C64.5923 30.5964 63.9801 31.2272 63.9888 31.9953L63.9875 31.9958ZM31.9858 30.5963H37.5494V38.9442C37.5494 40.5095 36.333 41.7259 34.7676 41.7259C33.2022 41.7259 31.9858 40.5095 31.9858 38.9442V30.5963ZM65.3752 40.322C64.6798 40.322 63.9868 40.7859 63.9868 41.7129V61.2077L58.3525 61.207C56.4749 61.335 56.6027 64.0348 58.4177 63.9888H65.3585V63.9994H72.321C74.136 64.0466 74.264 61.3456 72.3862 61.2176H66.7526V41.7228C66.7526 40.8026 66.0708 40.3419 65.3809 40.3344V40.3189L65.3752 40.322ZM54.2506 42.3754L57.6682 50.0745H50.8362L54.2506 42.3754ZM76.489 42.386L79.9034 50.085H73.0714L76.489 42.386ZM50.3291 52.8587H58.1771C58.1771 52.8587 57.6865 55.6405 54.2546 55.6405C50.822 55.6405 50.3291 52.8587 50.3291 52.8587ZM72.5643 52.8693H80.4123C80.4123 52.8693 79.9192 55.6511 76.4868 55.6511C73.0543 55.6511 72.5643 52.8693 72.5643 52.8693Z"/>
</mask>
<path d="M68.191 26.4656C68.9274 25.8509 69.544 24.966 69.544 23.6428V12.5156C69.544 10.2281 67.6589 8.34296 65.3713 8.34296H48.6838V4.16774C48.6838 1.88015 46.7906 0.000620934 44.503 0.000620934L25.0369 0C22.7493 0 20.8698 1.87953 20.8698 4.16712V8.34234L4.17268 8.34296C1.8851 8.34296 0 10.2281 0 12.5156V23.6428C0 24.8064 0.570012 25.8428 1.31203 26.4923C2.05405 27.1418 2.9234 27.5007 3.77336 27.7553L24.6177 34.3378C26.429 34.9817 27.307 32.1987 25.4541 31.6863L4.58114 25.0964C3.94592 24.9064 3.42559 24.6431 3.14555 24.3984C2.86551 24.1532 2.78167 24.0209 2.78167 23.6434V12.5162C2.78167 11.7214 3.37839 11.1253 4.17257 11.1253L65.3719 11.1247C66.1667 11.1247 66.7628 11.7208 66.7628 12.5156V23.6428C66.7628 23.8874 66.7038 24.0824 66.407 24.3301C66.1139 24.5748 65.547 24.8542 64.8776 25.1231L44.0905 31.6863C42.2377 32.1986 43.1156 34.9816 44.9269 34.3378L65.8396 27.7322C66.6368 27.4149 67.4559 27.0796 68.1923 26.4649L68.191 26.4656ZM25.0352 2.78225H44.5013C45.2961 2.78225 45.8978 3.37339 45.8978 4.16755V8.34277H23.6372V4.16755C23.6372 3.37275 24.2389 2.78225 25.0336 2.78225H25.0352ZM30.6013 27.812C29.8276 27.8095 29.2005 28.4373 29.2048 29.2109V38.9446C29.2048 42.0027 31.7103 44.5082 34.7684 44.5082C37.8264 44.5082 40.3345 42.0027 40.3345 38.9446V29.2109C40.3388 28.4416 39.7185 27.8151 38.9492 27.812H30.6013ZM4.15206 30.5745C3.37838 30.5795 2.75993 31.2191 2.77482 31.9927V59.8074C2.77482 62.095 4.66803 63.9745 6.95561 63.9745H52.8487C54.6625 63.9323 54.6625 61.2331 52.8487 61.1928H6.95561C6.16081 61.1928 5.55664 60.6016 5.55664 59.8075V31.9928C5.57217 31.2085 4.9363 30.5671 4.15206 30.5745ZM63.9875 31.9958V34.8428C59.2988 35.1502 57.7657 37.5085 54.2538 37.5594C52.961 37.5594 51.5688 37.0471 51.0566 36.5734C49.6328 35.2589 47.8569 37.3483 49.0983 38.5454C50.016 39.4302 51.4361 39.9289 52.2142 40.1046L47.4138 50.9082C47.3374 51.0865 47.3001 51.2796 47.3026 51.4733C47.3026 51.4733 47.2834 53.1492 48.1446 54.8717C49.0059 56.5942 50.8065 58.4222 54.2515 58.4222C57.6965 58.4222 59.4997 56.5942 60.3609 54.8717C61.2222 53.1492 61.2004 51.4733 61.2004 51.4733C61.2029 51.2796 61.1657 51.0865 61.0893 50.9082L56.2919 40.1127C59.1358 39.6613 60.8067 37.5662 65.3601 37.5644C69.9308 37.5694 71.6011 39.6713 74.45 40.1233L69.6526 50.9189C69.5762 51.0971 69.5383 51.2902 69.5414 51.484C69.5414 51.484 69.5197 53.1599 70.3809 54.8823C71.2422 56.6048 73.0454 58.4329 76.4904 58.4329C79.9353 58.4329 81.736 56.6048 82.5973 54.8823C83.4591 53.1599 83.4393 51.484 83.4393 51.484C83.4417 51.2902 83.4045 51.0971 83.3281 50.9189L78.5277 40.1152C79.3057 39.9389 80.7258 39.4409 81.6436 38.5561C82.8849 37.3589 81.109 35.2694 79.6852 36.584C79.1723 37.0578 77.7809 37.5701 76.4881 37.5701C72.9761 37.5173 71.4431 35.1609 66.7544 34.8535V32.0065C66.7631 31.2378 66.1508 30.6075 65.3716 30.5939C64.5923 30.5964 63.9801 31.2272 63.9888 31.9953L63.9875 31.9958ZM31.9858 30.5963H37.5494V38.9442C37.5494 40.5095 36.333 41.7259 34.7676 41.7259C33.2022 41.7259 31.9858 40.5095 31.9858 38.9442V30.5963ZM65.3752 40.322C64.6798 40.322 63.9868 40.7859 63.9868 41.7129V61.2077L58.3525 61.207C56.4749 61.335 56.6027 64.0348 58.4177 63.9888H65.3585V63.9994H72.321C74.136 64.0466 74.264 61.3456 72.3862 61.2176H66.7526V41.7228C66.7526 40.8026 66.0708 40.3419 65.3809 40.3344V40.3189L65.3752 40.322ZM54.2506 42.3754L57.6682 50.0745H50.8362L54.2506 42.3754ZM76.489 42.386L79.9034 50.085H73.0714L76.489 42.386ZM50.3291 52.8587H58.1771C58.1771 52.8587 57.6865 55.6405 54.2546 55.6405C50.822 55.6405 50.3291 52.8587 50.3291 52.8587ZM72.5643 52.8693H80.4123C80.4123 52.8693 79.9192 55.6511 76.4868 55.6511C73.0543 55.6511 72.5643 52.8693 72.5643 52.8693Z" fill="#AD132F" stroke="white" stroke-width="0.6" mask="url(#path-1-inside-1_131_528)"/>
</svg>
