<svg width="56" height="65" viewBox="0 0 56 65" fill="none" xmlns="http://www.w3.org/2000/svg">
<path d="M27.5881 35.6371C22.7089 35.6652 17.9231 36.9793 13.7143 39.4472C9.50489 41.9146 6.02074 45.4489 3.61334 49.693C1.20544 53.9366 -0.0404668 58.7406 0.00100239 63.6193C0.00100239 63.9023 0.113442 64.1739 0.313546 64.374C0.513649 64.5741 0.785221 64.6865 1.06822 64.6865H54.1195C54.4025 64.6865 54.6741 64.5741 54.8742 64.374C55.0743 64.1739 55.1867 63.9023 55.1867 63.6193C55.2282 58.7391 53.9818 53.9338 51.5729 49.6893C49.1641 45.4447 45.6785 41.9106 41.4673 39.443C37.2566 36.976 32.4693 35.663 27.5885 35.6367L27.5881 35.6371ZM29.0718 46.9602L31.11 62.5526H23.4474L25.6671 46.9602H29.0718ZM30.7898 38.0065V44.8367H24.3865V38.0065C26.5114 37.7182 28.6649 37.7182 30.7898 38.0065ZM22.252 38.3266V45.8934C22.252 46.1764 22.3645 46.4475 22.5646 46.6481C22.7647 46.8482 23.0362 46.9606 23.3193 46.9606H23.5008L21.3021 62.5531H2.09206C2.30026 56.8539 4.39177 51.3849 8.03996 47.0009C11.6875 42.6176 16.6859 39.5671 22.2517 38.3269L22.252 38.3266ZM33.2444 62.552L31.2167 46.9595H31.857C32.14 46.9595 32.4116 46.8471 32.6117 46.647C32.8118 46.4464 32.9242 46.1753 32.9242 45.8923V38.3255C38.4828 39.5738 43.4712 42.6277 47.1104 47.011C50.7499 51.3938 52.8353 56.8585 53.0411 62.551L33.2444 62.552Z" fill="#AD132F"/>
<path d="M26.8734 31.8281C31.0036 31.8309 34.9657 30.1929 37.8882 27.2738C40.8102 24.3551 42.453 20.395 42.4548 16.2647C42.4567 12.1343 40.8178 8.17232 37.8982 5.25082C34.9787 2.32931 31.018 0.6875 26.8878 0.686524C22.7576 0.685571 18.7959 2.3259 15.8754 5.24606C12.9544 8.1661 11.3135 12.1273 11.3135 16.2575C11.3193 20.3834 12.9601 24.3388 15.8764 27.2575C18.7931 30.1762 22.7474 31.8199 26.8734 31.8281ZM26.8734 2.78865C30.439 2.78579 33.8598 4.19933 36.3836 6.71834C38.9074 9.23735 40.3276 12.6558 40.3314 16.2214C40.3347 19.787 38.922 23.2083 36.4041 25.7329C33.8857 28.2571 30.4677 29.6779 26.9021 29.6826C23.3364 29.6874 19.9146 28.2757 17.3895 25.7577C14.8644 23.2402 13.4427 19.8227 13.4375 16.257C13.4346 12.6894 14.8482 9.26711 17.3677 6.74151C19.887 4.21592 23.3064 2.79426 26.8736 2.78852L26.8734 2.78865Z" fill="#AD132F"/>
</svg>
