<svg width="20" height="20" viewBox="0 0 20 20" fill="none" xmlns="http://www.w3.org/2000/svg">
<path d="M17.7424 1.95064C17.2183 1.49207 15.1006 0.0341644 10.3834 0.0143544C10.3834 0.0143544 4.82068 -0.303756 2.10893 2.05507C0.599409 3.48688 0.0683892 5.58193 0.0123792 8.17935C-0.0436308 10.7768 -0.1161 15.6445 4.83176 16.9644H4.83651L4.83334 18.9784C4.83334 18.9784 4.8017 19.7938 5.36784 19.9601C6.05267 20.1618 6.45457 19.542 7.10838 18.874C7.46724 18.5073 7.96282 17.9686 8.3362 17.5568C11.7202 17.8269 14.3227 17.2096 14.6183 17.1184C15.3015 16.9083 19.1677 16.4383 19.7966 11.5712C20.4456 6.55427 19.4826 3.38095 17.7424 1.95064ZM18.3158 11.2114C17.7851 15.2754 14.6493 15.5308 14.0711 15.7067C13.8253 15.7817 11.5395 16.321 8.665 16.143C8.665 16.143 6.52324 18.5934 5.85424 19.2305C5.74981 19.3302 5.62703 19.3704 5.54506 19.3506C5.42987 19.3239 5.39822 19.1945 5.39949 19.0054C5.40139 18.7353 5.41785 15.6587 5.41785 15.6587C1.23234 14.5567 1.47633 10.4137 1.5238 8.24415C1.57127 6.0747 2.00102 4.29747 3.27762 3.10215C5.57133 1.13195 10.2964 1.42635 10.2964 1.42635C14.2867 1.44286 16.1987 2.58236 16.6421 2.9641C18.1142 4.15942 18.8643 7.01974 18.3158 11.2102V11.2114Z" fill="#AD132F"/>
<path d="M18.3158 11.2114C17.7851 15.2754 14.6493 15.5308 14.0711 15.7067C13.8253 15.7817 11.5395 16.321 8.665 16.143C8.665 16.143 6.52324 18.5934 5.85424 19.2305C5.74981 19.3302 5.62703 19.3704 5.54506 19.3506C5.42987 19.3239 5.39822 19.1945 5.39949 19.0054C5.40139 18.7353 5.41785 15.6587 5.41785 15.6587C1.23234 14.5567 1.47633 10.4137 1.5238 8.24415C1.57127 6.0747 2.00102 4.29747 3.27762 3.10215C5.57133 1.13195 10.2964 1.42635 10.2964 1.42635C14.2867 1.44286 16.1987 2.58236 16.6421 2.9641C18.1142 4.15942 18.8643 7.01974 18.3158 11.2102V11.2114Z" fill="#AD132F"/>
<path d="M12.3251 8.31873C12.2567 8.31873 12.191 8.29383 12.1415 8.24913C12.0919 8.20443 12.0624 8.14343 12.059 8.07863C12.0137 7.22005 11.5871 6.7996 10.7166 6.75518C10.6472 6.74995 10.5827 6.71923 10.5369 6.66956C10.4911 6.61989 10.4676 6.55522 10.4713 6.48933C10.4751 6.42344 10.5058 6.36155 10.557 6.31686C10.6082 6.27216 10.6758 6.24821 10.7454 6.2501C11.8941 6.31012 12.5327 6.93225 12.5916 8.05343C12.5933 8.08663 12.5882 8.11983 12.5764 8.15113C12.5646 8.18243 12.5464 8.21123 12.5229 8.23583C12.4994 8.26043 12.471 8.28043 12.4394 8.29473C12.4077 8.30893 12.3734 8.31713 12.3384 8.31873H12.3251Z" fill="white"/>
<path d="M13.6941 8.75413H13.6878C13.6171 8.75253 13.55 8.72443 13.5011 8.67593C13.4523 8.62743 13.4258 8.56253 13.4274 8.49543C13.4479 7.63085 13.1875 6.9307 12.6311 6.3551C12.0748 5.7795 11.3169 5.46739 10.3064 5.39716C10.2358 5.39227 10.17 5.36095 10.1237 5.3101C10.0774 5.25925 10.0543 5.19304 10.0594 5.12602C10.0646 5.059 10.0976 4.99667 10.1512 4.95275C10.2049 4.90882 10.2747 4.88689 10.3453 4.89179C11.4824 4.97071 12.3837 5.34795 13.0245 6.01268C13.6653 6.67742 13.984 7.51831 13.9606 8.50593C13.9592 8.57213 13.9305 8.63513 13.8807 8.68153C13.8309 8.72793 13.7639 8.75403 13.6941 8.75413Z" fill="white"/>
<path d="M15.0952 9.27329C15.0248 9.27329 14.9572 9.24679 14.9073 9.19979C14.8573 9.15269 14.829 9.08889 14.8284 9.02209C14.816 7.47568 14.3464 6.29447 13.3926 5.41155C12.4502 4.54124 11.2596 4.09468 9.85357 4.08508C9.81857 4.08496 9.78387 4.0783 9.75157 4.06548C9.71927 4.05266 9.68987 4.03392 9.66517 4.01035C9.61537 3.96273 9.58747 3.89829 9.58777 3.83119C9.58797 3.76409 9.61637 3.69984 9.66657 3.65256C9.71677 3.60529 9.78467 3.57886 9.85547 3.5791H9.85767C11.4058 3.58991 12.7204 4.08448 13.7651 5.04962C14.8097 6.01477 15.3483 7.35264 15.3623 9.01909C15.3628 9.08619 15.3352 9.15069 15.2856 9.19849C15.236 9.24619 15.1684 9.27339 15.0977 9.27389L15.0952 9.27329Z" fill="white"/>
<path d="M10.7837 11.4542C10.7837 11.4542 11.1587 11.4842 11.3606 11.2484L11.7543 10.7787C11.9442 10.5458 12.4024 10.3973 12.8512 10.6343C13.1874 10.8162 13.5139 11.0139 13.8293 11.2268C14.1271 11.4344 14.7388 11.917 14.7388 11.917C15.0294 12.1496 15.0964 12.4911 14.8987 12.8512C14.8987 12.8533 14.8971 12.8587 14.8971 12.8587C14.6792 13.2169 14.4027 13.5398 14.0778 13.8155C14.074 13.8173 14.074 13.8191 14.0705 13.8209C13.7882 14.0446 13.5109 14.1717 13.2385 14.2023C13.1984 14.209 13.1576 14.2114 13.117 14.2095C12.9969 14.2106 12.8774 14.1932 12.7632 14.1579L12.7543 14.1456C12.3347 14.0334 11.634 13.7525 10.4673 13.142C9.7921 12.793 9.1492 12.3903 8.5457 11.9383C8.2432 11.7119 7.95464 11.4692 7.68145 11.2115L7.65234 11.1838L7.62322 11.1562L7.59411 11.1286C7.5843 11.1196 7.5748 11.1103 7.56499 11.101C7.29318 10.8419 7.03727 10.5683 6.79853 10.2814C6.322 9.70912 5.89738 9.09962 5.5292 8.45952C4.88552 7.3527 4.58931 6.68886 4.47096 6.29032L4.45798 6.28192C4.42088 6.1736 4.40261 6.06028 4.40387 5.9464C4.40165 5.90785 4.40409 5.86918 4.41115 5.83116C4.44511 5.57327 4.5794 5.31007 4.814 5.04158C4.8159 5.03828 4.8178 5.03828 4.8197 5.03468C5.1103 4.72656 5.45087 4.46437 5.82857 4.258C5.82857 4.258 5.83427 4.2562 5.83648 4.2562C6.21624 4.06863 6.57637 4.13226 6.82131 4.40625C6.82321 4.40805 7.33113 4.98636 7.54917 5.26876C7.77361 5.56819 7.98211 5.87808 8.1739 6.19729C8.4239 6.62254 8.2672 7.058 8.0216 7.23746L7.52638 7.61079C7.27638 7.80226 7.30929 8.15792 7.30929 8.15792C7.30929 8.15792 8.0428 10.7907 10.7837 11.4542Z" fill="white"/>
</svg>
