<svg width="20" height="20" viewBox="0 0 20 20" fill="none" xmlns="http://www.w3.org/2000/svg">
<path d="M10 20C15.5228 20 20 15.5228 20 10C20 4.47715 15.5228 0 10 0C4.47715 0 0 4.47715 0 10C0 15.5228 4.47715 20 10 20Z" fill="#AD132F"/>
<path d="M13.8151 5.92481C13.8151 5.92481 14.8555 5.52019 14.7688 6.50284C14.7399 6.90747 14.4798 8.3237 14.2775 9.8554L13.5839 14.393C13.5839 14.393 13.5261 15.0578 13.0058 15.1734C12.4856 15.289 11.7053 14.7687 11.5607 14.6531C11.4451 14.5664 9.3931 13.2659 8.6706 12.63C8.4683 12.4566 8.237 12.1098 8.6995 11.7052L11.7342 8.815C12.081 8.4682 12.4278 7.65891 10.9827 8.6416L6.93647 11.3872C6.93647 11.3872 6.47404 11.6763 5.60699 11.4161L3.72837 10.8381C3.72837 10.8381 3.03473 10.4046 4.2197 9.9711C7.10988 8.6127 10.6648 7.22539 13.8151 5.92481Z" fill="white"/>
</svg>
