<svg width="28" height="28" viewBox="0 0 28 28" fill="none" xmlns="http://www.w3.org/2000/svg">
<path d="M2.338 25.6666L3.91533 19.8706C2.87599 18.089 2.32995 16.0626 2.33333 13.9999C2.33333 7.55642 7.5565 2.33325 14 2.33325C20.4435 2.33325 25.6667 7.55642 25.6667 13.9999C25.6667 20.4434 20.4435 25.6666 14 25.6666C11.9383 25.67 9.91276 25.1243 8.13166 24.0858L2.338 25.6666ZM9.7895 8.52592C9.63884 8.53527 9.49162 8.57495 9.35666 8.64259C9.2301 8.71425 9.11458 8.80384 9.01366 8.90859C8.87366 9.04042 8.79433 9.15475 8.70916 9.26558C8.27797 9.82675 8.04604 10.5156 8.04999 11.2233C8.05233 11.7949 8.20166 12.3514 8.435 12.8718C8.91216 13.9241 9.69733 15.0383 10.7345 16.0708C10.9842 16.3193 11.228 16.5689 11.4905 16.8011C12.7778 17.9345 14.3118 18.7518 15.9705 19.1881L16.6343 19.2896C16.8502 19.3013 17.066 19.2849 17.283 19.2744C17.6228 19.2569 17.9545 19.1649 18.2548 19.0049C18.4485 18.9023 18.5395 18.8509 18.7017 18.7483C18.7017 18.7483 18.7518 18.7156 18.8475 18.6433C19.005 18.5266 19.1018 18.4438 19.2325 18.3073C19.3293 18.2069 19.4133 18.0891 19.4775 17.9549C19.5685 17.7648 19.6595 17.4019 19.6968 17.0998C19.7248 16.8688 19.7167 16.7428 19.7132 16.6646C19.7085 16.5398 19.6047 16.4103 19.4915 16.3554L18.8125 16.0509C18.8125 16.0509 17.7975 15.6088 17.178 15.3264C17.1126 15.298 17.0427 15.2817 16.9715 15.2786C16.8917 15.2704 16.8111 15.2794 16.735 15.305C16.6589 15.3305 16.5892 15.372 16.5305 15.4268V15.4244C16.5246 15.4244 16.4465 15.4909 15.603 16.5129C15.5546 16.578 15.488 16.6271 15.4114 16.6542C15.335 16.6812 15.2522 16.6848 15.1736 16.6646C15.0977 16.6443 15.0231 16.6185 14.9508 16.5876C14.8061 16.5269 14.756 16.5036 14.6568 16.4604L14.651 16.4581C13.9835 16.1667 13.3656 15.773 12.8193 15.2914C12.6723 15.1631 12.5358 15.0231 12.3958 14.8878C11.9369 14.4482 11.5368 13.9509 11.2058 13.4084L11.137 13.2976C11.0876 13.2232 11.0476 13.1428 11.018 13.0584C10.9737 12.8869 11.0892 12.7493 11.0892 12.7493C11.0892 12.7493 11.3727 12.4389 11.5045 12.2709C11.6143 12.1313 11.7167 11.986 11.8113 11.8358C11.949 11.6141 11.9922 11.3866 11.9198 11.2104C11.5932 10.4124 11.2548 9.61792 10.9072 8.82925C10.8383 8.67292 10.6342 8.56092 10.4487 8.53875C10.3857 8.53175 10.3227 8.52475 10.2597 8.52008C10.103 8.5123 9.94599 8.51386 9.7895 8.52475V8.52592Z" fill="white"/>
</svg>
