<svg width="59" height="59" viewBox="0 0 59 59" fill="none" xmlns="http://www.w3.org/2000/svg">
<path d="M29.5 54.0834C43.0769 54.0834 54.0834 43.0769 54.0834 29.5C54.0834 15.923 43.0769 4.91669 29.5 4.91669C15.923 4.91669 4.91669 15.923 4.91669 29.5C4.91669 43.0769 15.923 54.0834 29.5 54.0834Z" fill="#AD132F"/>
<path d="M40.5625 28.4757C40.567 30.2062 40.1627 31.9133 39.3825 33.4579C38.4574 35.3089 37.0353 36.8657 35.2754 37.9541C33.5155 39.0424 31.4873 39.6193 29.4181 39.6201C27.6876 39.6246 25.9805 39.2203 24.4358 38.4401L16.9625 40.9312L19.4536 33.4579C18.6734 31.9133 18.2691 30.2062 18.2736 28.4757C18.2744 26.4065 18.8513 24.3783 19.9397 22.6184C21.028 20.8585 22.5849 19.4363 24.4358 18.5113C25.9805 17.7311 27.6876 17.3268 29.4181 17.3313H30.0736C32.8064 17.482 35.3876 18.6355 37.3229 20.5708C39.2582 22.5062 40.4117 25.0873 40.5625 27.8201V28.4757Z" fill="white"/>
</svg>
