<svg width="59" height="59" viewBox="0 0 59 59" fill="none" xmlns="http://www.w3.org/2000/svg">
<path d="M29.5001 54.0833C43.077 54.0833 54.0834 43.0768 54.0834 29.5C54.0834 15.923 43.077 4.91663 29.5001 4.91663C15.9231 4.91663 4.91675 15.923 4.91675 29.5C4.91675 43.0768 15.9231 54.0833 29.5001 54.0833Z" fill="#AD132F"/>
<path d="M38.8788 19.4818C38.8788 19.4818 41.4364 18.4871 41.2233 20.9028C41.1523 21.8975 40.5128 25.3791 40.0155 29.1445L38.3104 40.2994C38.3104 40.2994 38.1683 41.9337 36.8893 42.2179C35.6104 42.5021 33.6922 41.223 33.3367 40.9388C33.0525 40.7257 28.008 37.5286 26.2319 35.9654C25.7346 35.5391 25.166 34.6866 26.3029 33.6919L33.7632 26.5869C34.6158 25.7343 35.4683 23.7448 31.9158 26.1606L21.9688 32.9102C21.9688 32.9102 20.832 33.6209 18.7005 32.9812L14.0822 31.5603C14.0822 31.5603 12.377 30.4946 15.2901 29.4289C22.3951 26.0895 31.1343 22.6791 38.8788 19.4818Z" fill="white"/>
</svg>
