<svg width="59" height="59" viewBox="0 0 59 59" fill="none" xmlns="http://www.w3.org/2000/svg">
<path d="M29.5001 51.2561C41.9229 51.2561 51.9938 41.1852 51.9938 28.7624C51.9938 16.3395 41.9229 6.26874 29.5001 6.26874C17.0772 6.26874 7.00641 16.3395 7.00641 28.7624C7.00641 41.1852 17.0772 51.2561 29.5001 51.2561Z" fill="white"/>
<path d="M4.92655 54.0834L8.25022 41.8703C6.06019 38.1162 4.90959 33.8464 4.91672 29.5C4.91672 15.9226 15.9227 4.91669 29.5 4.91669C43.0774 4.91669 54.0834 15.9226 54.0834 29.5C54.0834 43.0774 43.0774 54.0834 29.5 54.0834C25.1557 54.0905 20.8877 52.9407 17.1346 50.7523L4.92655 54.0834ZM20.6279 17.9655C20.3105 17.9852 20.0003 18.0688 19.7159 18.2114C19.4492 18.3624 19.2058 18.5511 18.9931 18.7719C18.6981 19.0496 18.531 19.2906 18.3515 19.5241C17.4429 20.7066 16.9542 22.158 16.9626 23.6492C16.9675 24.8538 17.2821 26.0264 17.7738 27.1228C18.7793 29.3402 20.4337 31.6879 22.6192 33.8636C23.1453 34.3872 23.6591 34.9133 24.2122 35.4025C26.9247 37.7907 30.1571 39.5128 33.6522 40.4322L35.0509 40.6461C35.5057 40.6707 35.9605 40.6363 36.4178 40.6141C37.1339 40.5773 37.8328 40.3833 38.4656 40.0463C38.8737 39.8299 39.0654 39.7218 39.4071 39.5054C39.4071 39.5054 39.5128 39.4366 39.7144 39.2842C40.0463 39.0384 40.2503 38.8638 40.5257 38.5762C40.7297 38.3648 40.9067 38.1165 41.0419 37.8338C41.2337 37.4331 41.4254 36.6685 41.5041 36.0318C41.5631 35.5451 41.5459 35.2796 41.5385 35.1149C41.5287 34.8518 41.3099 34.5789 41.0714 34.4634L39.6407 33.8218C39.6407 33.8218 37.5019 32.8901 36.1965 32.2951C36.0589 32.2352 35.9114 32.201 35.7614 32.1944C35.5933 32.1771 35.4234 32.1961 35.2631 32.2499C35.1028 32.3037 34.9558 32.3913 34.8322 32.5066V32.5016C34.8199 32.5016 34.6552 32.6418 32.8778 34.7953C32.7758 34.9324 32.6354 35.0359 32.4741 35.093C32.3131 35.1498 32.1386 35.1574 31.9731 35.1149C31.8131 35.0721 31.656 35.0177 31.5036 34.9526C31.1987 34.8248 31.093 34.7756 30.8841 34.6846L30.8718 34.6797C29.4654 34.0656 28.1632 33.2362 27.0122 32.2214C26.7024 31.951 26.4148 31.656 26.1198 31.3708C25.1527 30.4445 24.3098 29.3968 23.6123 28.2536L23.4673 28.0201C23.3631 27.8633 23.2789 27.6939 23.2166 27.5161C23.1231 27.1548 23.3665 26.8647 23.3665 26.8647C23.3665 26.8647 23.9639 26.2108 24.2417 25.8568C24.473 25.5625 24.6888 25.2564 24.8882 24.9398C25.1783 24.4727 25.2692 23.9934 25.1168 23.6221C24.4285 21.9406 23.7156 20.2665 22.983 18.6047C22.838 18.2753 22.4078 18.0393 22.0169 17.9926C21.8841 17.9778 21.7514 17.9631 21.6186 17.9532C21.2885 17.9368 20.9577 17.9401 20.6279 17.9631V17.9655Z" fill="#AD132F"/>
</svg>
